<svg xmlns="http://www.w3.org/2000/svg" viewBox="0 0 1320 880" role="img" aria-labelledby="title desc">
  <title id="title">Drop 001 Poster Wall</title>
  <desc id="desc">A wall of Drop 001 poster artifacts for Full City Columbus.</desc>
  <rect width="1320" height="880" fill="#050606"/>
  <rect x="40" y="40" width="1240" height="800" fill="#061620"/>
  <g transform="translate(80 84)">
    <rect width="342" height="520" fill="#E8DDC7"/>
    <rect x="24" y="24" width="294" height="472" fill="#061620"/>
    <g transform="translate(171 170)">
      <circle r="72" fill="#E8DDC7"/>
      <circle r="54" fill="#061620"/>
      <path d="M-112 0h224M0-112v224" stroke="#E8DDC7" stroke-width="10"/>
      <circle r="28" fill="none" stroke="#E8DDC7" stroke-width="10"/>
      <circle r="14" fill="#F4B037"/>
    </g>
    <text x="42" y="322" fill="#F4B037" font-family="Impact, Arial Black, sans-serif" font-size="48">THE</text>
    <text x="42" y="378" fill="#E8DDC7" font-family="Impact, Arial Black, sans-serif" font-size="48">EARTHWORKS</text>
    <text x="42" y="434" fill="#E8DDC7" font-family="Impact, Arial Black, sans-serif" font-size="48">WERE FIRST</text>
  </g>
  <g transform="translate(490 168)">
    <rect width="342" height="520" fill="#F4B037"/>
    <rect x="24" y="24" width="294" height="472" fill="#050606"/>
    <text x="48" y="156" fill="#F4B037" font-family="Impact, Arial Black, sans-serif" font-size="76">POST</text>
    <text x="48" y="232" fill="#E8DDC7" font-family="Impact, Arial Black, sans-serif" font-size="76">THE</text>
    <text x="48" y="308" fill="#E8DDC7" font-family="Impact, Arial Black, sans-serif" font-size="76">SIGNAL</text>
    <path d="M48 392h246M171 342v100" stroke="#F4B037" stroke-width="10"/>
    <circle cx="171" cy="392" r="44" fill="#E8DDC7"/>
    <circle cx="171" cy="392" r="26" fill="#050606"/>
    <circle cx="171" cy="392" r="12" fill="#F4B037"/>
  </g>
  <g transform="translate(900 84)">
    <rect width="342" height="520" fill="#17352F"/>
    <g opacity="0.7">
      <path d="M0 90h342M0 180h342M0 270h342M0 360h342M0 450h342" stroke="#4F8A74" stroke-width="4"/>
      <path d="M86 0v520M172 0v520M258 0v520" stroke="#4F8A74" stroke-width="4"/>
    </g>
    <g transform="translate(171 160)">
      <rect x="-70" y="-70" width="140" height="140" fill="#061620" stroke="#E8DDC7" stroke-width="8"/>
      <path d="M-116 0h232M0-116v232" stroke="#F4B037" stroke-width="8"/>
      <circle r="48" fill="none" stroke="#E8DDC7" stroke-width="10"/>
      <circle r="22" fill="#F4B037"/>
    </g>
    <text x="34" y="314" fill="#F4B037" font-family="Impact, Arial Black, sans-serif" font-size="50">THE</text>
    <text x="34" y="370" fill="#F4B037" font-family="Impact, Arial Black, sans-serif" font-size="50">MACHINE</text>
    <text x="34" y="426" fill="#E8DDC7" font-family="Impact, Arial Black, sans-serif" font-size="50">PAYS TRIBUTE</text>
  </g>
  <text x="80" y="754" fill="#F4B037" font-family="Impact, Arial Black, sans-serif" font-size="78">DROP 001: SECOND GEOMETRY</text>
  <text x="80" y="812" fill="#E8DDC7" font-family="Arial Black, Impact, sans-serif" font-size="25" letter-spacing="3">POST THE SIGNAL / NAME THE BREAK / BUILD THE BODY</text>
</svg>
