<svg xmlns="http://www.w3.org/2000/svg" viewBox="0 0 1080 1350" role="img" aria-labelledby="title desc">
  <title id="title">The Earthworks Were First With QR</title>
  <desc id="desc">A Drop 001 standalone QR poster linking to https://neocolumbus.github.io/Project-Columbus/site/signal/?drop=001&amp;source=poster-001&amp;kind=Neighborhood&amp;break=The+old+center+is+treated+like+a+blank+growth+market.&amp;line=The+earthworks+were+first.#field-card</desc>
  <image href="001-earthworks-were-first.svg" width="1080" height="1350"/>
  <g transform="translate(796 1008)">
    <rect width="196" height="196" fill="#F6F0E4" stroke="#050606" stroke-width="8"/>
    <g transform="translate(18 14) scale(2.461538)">
      <rect width="65" height="65" fill="#F6F0E4"/>
      <path stroke="#050606" d="M4 4.5h7m3 0h1m5 0h3m2 0h1m1 0h2m1 0h3m1 0h1m2 0h2m3 0h1m3 0h2m1 0h3m2 0h7M4 5.5h1m5 0h1m1 0h2m1 0h1m1 0h3m2 0h1m2 0h2m3 0h1m2 0h6m3 0h1m1 0h1m2 0h2m2 0h1m2 0h1m5 0h1M4 6.5h1m1 0h3m1 0h1m1 0h2m1 0h2m3 0h2m2 0h3m1 0h1m2 0h2m1 0h1m1 0h1m1 0h2m3 0h3m2 0h4m2 0h1m1 0h3m1 0h1M4 7.5h1m1 0h3m1 0h1m1 0h1m2 0h5m1 0h1m3 0h2m2 0h1m1 0h2m2 0h3m2 0h2m1 0h3m1 0h3m1 0h1m2 0h1m1 0h3m1 0h1M4 8.5h1m1 0h3m1 0h1m3 0h1m2 0h1m2 0h4m1 0h2m1 0h1m1 0h5m5 0h1m4 0h4m2 0h1m2 0h1m1 0h3m1 0h1M4 9.5h1m5 0h1m3 0h3m1 0h6m1 0h2m2 0h2m3 0h5m1 0h1m1 0h1m2 0h1m1 0h4m3 0h1m5 0h1M4 10.5h7m1 0h1m1 0h1m1 0h1m1 0h1m1 0h1m1 0h1m1 0h1m1 0h1m1 0h1m1 0h1m1 0h1m1 0h1m1 0h1m1 0h1m1 0h1m1 0h1m1 0h1m1 0h1m1 0h1m1 0h1m1 0h1m1 0h7M12 11.5h2m1 0h1m2 0h3m1 0h1m3 0h1m1 0h3m3 0h1m1 0h4m4 0h1m3 0h3M4 12.5h1m5 0h1m1 0h1m1 0h2m3 0h2m1 0h2m2 0h1m3 0h6m1 0h4m1 0h2m1 0h1m4 0h1m2 0h2m2 0h3M4 13.5h1m1 0h3m2 0h1m1 0h1m1 0h2m1 0h3m5 0h5m2 0h4m1 0h1m1 0h3m1 0h4m1 0h2m1 0h5m1 0h1M4 14.5h2m2 0h1m1 0h3m1 0h9m1 0h2m1 0h1m3 0h2m2 0h4m3 0h1m6 0h2m1 0h1m1 0h1m3 0h2M4 15.5h5m2 0h1m1 0h1m2 0h6m1 0h3m2 0h1m2 0h3m2 0h2m3 0h1m1 0h2m3 0h2m1 0h3m2 0h1m1 0h2M4 16.5h1m1 0h5m1 0h2m1 0h1m9 0h2m1 0h2m2 0h1m3 0h1m1 0h4m2 0h1m2 0h2m1 0h2m2 0h1m1 0h1m3 0h1M9 17.5h1m2 0h1m3 0h1m1 0h1m3 0h1m2 0h1m2 0h1m2 0h1m1 0h5m2 0h2m3 0h3m3 0h3m1 0h1m2 0h1m1 0h1M4 18.5h1m1 0h1m1 0h3m1 0h7m1 0h1m1 0h3m1 0h3m1 0h2m4 0h5m1 0h1m2 0h1m1 0h1m1 0h2m3 0h4M4 19.5h3m1 0h1m4 0h1m1 0h2m1 0h3m7 0h4m2 0h2m2 0h1m2 0h1m1 0h1m1 0h1m3 0h3m2 0h1m3 0h3M4 20.5h1m1 0h3m1 0h8m1 0h4m1 0h1m1 0h1m3 0h1m2 0h3m3 0h2m1 0h1m3 0h2m7 0h1M5 21.5h1m3 0h1m1 0h1m1 0h1m6 0h1m1 0h1m1 0h6m1 0h1m1 0h3m5 0h1m1 0h1m1 0h2m1 0h2m1 0h3m1 0h5M6 22.5h2m2 0h1m1 0h3m2 0h2m2 0h3m1 0h1m2 0h1m1 0h1m1 0h1m3 0h2m1 0h3m2 0h1m2 0h3m1 0h2m2 0h4m1 0h1M4 23.5h2m1 0h1m1 0h1m3 0h1m5 0h1m2 0h5m2 0h1m2 0h3m1 0h3m2 0h1m2 0h1m1 0h1m1 0h1m1 0h10M4 24.5h1m1 0h2m1 0h2m3 0h1m2 0h8m2 0h1m2 0h1m3 0h1m4 0h2m1 0h2m1 0h3m2 0h1m2 0h2m4 0h2M4 25.5h1m1 0h4m2 0h1m1 0h2m4 0h2m1 0h7m1 0h1m2 0h2m1 0h11m1 0h2m1 0h3m1 0h1m1 0h2M4 26.5h2m1 0h1m1 0h6m3 0h4m1 0h1m3 0h6m2 0h2m3 0h1m1 0h1m4 0h1m1 0h3m1 0h2m4 0h1M6 27.5h1m1 0h2m1 0h1m1 0h1m1 0h1m4 0h2m1 0h1m2 0h4m1 0h2m1 0h1m1 0h2m1 0h1m1 0h2m1 0h1m1 0h1m1 0h2m1 0h1m1 0h2m1 0h4M4 28.5h1m1 0h1m2 0h2m1 0h8m2 0h1m2 0h2m5 0h3m1 0h1m2 0h3m2 0h2m2 0h1m2 0h1m1 0h1m2 0h2m1 0h1M5 29.5h1m1 0h3m1 0h4m1 0h1m3 0h2m1 0h2m2 0h3m1 0h1m1 0h3m1 0h1m2 0h2m3 0h5m1 0h3m1 0h3m1 0h2M5 30.5h11m2 0h1m1 0h1m2 0h1m2 0h3m1 0h6m2 0h1m1 0h1m1 0h1m1 0h1m4 0h2m1 0h7M6 31.5h1m1 0h1m3 0h1m1 0h4m5 0h2m2 0h4m3 0h1m3 0h1m2 0h1m4 0h2m1 0h1m2 0h1m3 0h3m1 0h1M4 32.5h1m2 0h2m1 0h1m1 0h2m4 0h3m4 0h1m2 0h1m1 0h1m1 0h1m1 0h2m2 0h5m2 0h3m1 0h4m1 0h1m1 0h1M5 33.5h4m3 0h1m2 0h3m3 0h5m1 0h4m3 0h4m2 0h2m1 0h2m1 0h4m2 0h1m3 0h1m1 0h3M6 34.5h1m1 0h5m1 0h2m4 0h4m4 0h1m1 0h6m1 0h1m2 0h1m4 0h1m1 0h1m1 0h1m1 0h6m1 0h1m1 0h1M4 35.5h2m2 0h1m4 0h5m2 0h1m2 0h1m2 0h2m1 0h1m1 0h3m2 0h1m2 0h1m4 0h3m1 0h4m2 0h1m1 0h1m1 0h1M5 36.5h2m2 0h3m1 0h1m5 0h8m1 0h5m1 0h1m2 0h4m1 0h1m2 0h1m1 0h1m2 0h1m4 0h2m2 0h2M4 37.5h2m3 0h1m1 0h1m1 0h1m5 0h2m3 0h2m1 0h1m2 0h4m1 0h2m1 0h2m1 0h3m1 0h3m1 0h2m2 0h4m2 0h2M7 38.5h1m1 0h3m5 0h3m2 0h1m2 0h1m3 0h1m2 0h4m1 0h2m1 0h3m1 0h1m3 0h1m1 0h1m1 0h2m1 0h3m1 0h2M4 39.5h2m1 0h3m2 0h3m3 0h2m1 0h1m1 0h2m2 0h1m3 0h2m2 0h3m1 0h1m2 0h5m1 0h1m1 0h1m2 0h2m2 0h2M4 40.5h1m1 0h1m1 0h1m1 0h2m1 0h6m4 0h1m3 0h1m1 0h1m1 0h1m4 0h2m2 0h1m3 0h1m1 0h1m1 0h1m1 0h2m1 0h3m3 0h2M4 41.5h1m2 0h1m3 0h1m3 0h1m3 0h1m1 0h1m4 0h3m2 0h1m2 0h4m1 0h1m4 0h3m2 0h1m3 0h1m1 0h1m3 0h2M6 42.5h2m1 0h4m1 0h5m3 0h1m3 0h1m1 0h2m2 0h5m1 0h3m1 0h2m4 0h4m1 0h1m2 0h1m1 0h1M5 43.5h3m4 0h2m1 0h4m2 0h1m3 0h3m2 0h1m1 0h1m4 0h2m6 0h1m3 0h1m1 0h1m1 0h1m3 0h4M7 44.5h2m1 0h1m3 0h1m1 0h2m2 0h4m1 0h2m2 0h1m1 0h2m1 0h2m1 0h1m1 0h3m4 0h2m1 0h1m6 0h1m2 0h1M5 45.5h1m2 0h2m6 0h1m2 0h1m1 0h1m2 0h5m1 0h2m3 0h1m1 0h1m1 0h3m2 0h1m1 0h2m1 0h1m2 0h4m4 0h1M5 46.5h4m1 0h1m2 0h4m1 0h3m1 0h2m2 0h3m5 0h2m1 0h1m2 0h1m2 0h3m1 0h1m1 0h1m2 0h3m1 0h3m1 0h1M4 47.5h1m4 0h1m1 0h1m4 0h4m2 0h2m2 0h3m1 0h1m1 0h1m3 0h2m1 0h1m1 0h1m2 0h1m3 0h8m1 0h4M6 48.5h2m2 0h1m1 0h1m1 0h1m1 0h1m1 0h1m2 0h1m1 0h2m4 0h1m1 0h3m1 0h1m1 0h1m2 0h3m3 0h2m2 0h1m1 0h1m3 0h2m2 0h1M4 49.5h2m1 0h2m2 0h2m1 0h2m1 0h2m1 0h1m3 0h1m2 0h2m3 0h11m2 0h3m1 0h5m1 0h2m1 0h2M4 50.5h1m1 0h1m2 0h2m1 0h2m8 0h2m4 0h4m1 0h2m1 0h4m2 0h2m3 0h2m1 0h2m1 0h1m1 0h1M4 51.5h5m4 0h6m3 0h1m4 0h5m4 0h2m1 0h1m4 0h1m3 0h2m1 0h1m2 0h2m1 0h3M10 52.5h1m3 0h2m2 0h2m3 0h5m2 0h8m2 0h3m1 0h1m3 0h1m1 0h7M12 53.5h1m2 0h1m2 0h4m1 0h3m2 0h3m3 0h1m2 0h1m1 0h2m2 0h4m1 0h2m2 0h1m3 0h3m1 0h1M4 54.5h7m3 0h1m3 0h3m3 0h1m1 0h1m1 0h1m1 0h1m1 0h1m1 0h1m1 0h3m2 0h2m1 0h1m4 0h4m1 0h1m1 0h1m2 0h1M4 55.5h1m5 0h1m2 0h1m1 0h1m1 0h1m3 0h2m2 0h1m1 0h2m1 0h1m3 0h1m2 0h1m1 0h1m2 0h2m1 0h2m3 0h1m1 0h1m3 0h4M4 56.5h1m1 0h3m1 0h1m2 0h5m3 0h5m2 0h8m1 0h4m1 0h2m1 0h3m2 0h1m1 0h5m2 0h2M4 57.5h1m1 0h3m1 0h1m3 0h1m1 0h1m1 0h5m1 0h2m2 0h5m1 0h1m2 0h1m3 0h1m1 0h5m1 0h1m3 0h1m2 0h3M4 58.5h1m1 0h3m1 0h1m3 0h1m1 0h3m1 0h2m3 0h3m2 0h4m1 0h1m1 0h1m1 0h3m5 0h1m1 0h1m2 0h9M4 59.5h1m5 0h1m2 0h1m3 0h4m4 0h2m1 0h1m1 0h2m1 0h2m1 0h1m5 0h1m1 0h2m2 0h2m2 0h1m2 0h1m1 0h2M4 60.5h7m1 0h4m1 0h1m1 0h2m1 0h1m6 0h1m5 0h1m2 0h5m2 0h3m2 0h5m2 0h1m1 0h1"/>
    </g>
    <text x="98" y="186" text-anchor="middle" fill="#050606" font-family="Arial Black, Impact, sans-serif" font-size="26" letter-spacing="3">SCAN</text>
  </g>
</svg>
