<svg xmlns="http://www.w3.org/2000/svg" viewBox="0 0 1080 1350" role="img" aria-labelledby="title desc">
  <title id="title">Signal Seen Confluence With QR</title>
  <desc id="desc">A Drop 001 standalone QR poster linking to https://neocolumbus.github.io/Project-Columbus/site/signal/?drop=001&amp;source=poster-002&amp;kind=Neighborhood&amp;break=The+confluence+is+treated+like+scenery+instead+of+civic+center.&amp;line=Signal+seen%3A+confluence.#field-card. Poster art is inlined for GitHub-safe rendering.</desc>
  <g transform="matrix(1.000000 0 0 1.000000 0.000000 0.000000)">
    <rect width="1080" height="1350" fill="#050606"/>
      <rect x="54" y="54" width="972" height="1242" fill="#061620"/>
      <path d="M0 894 C220 786 350 810 540 902 S870 1006 1080 882" fill="none" stroke="#4F8A74" stroke-width="58"/>
      <path d="M0 972 C220 864 350 888 540 980 S870 1084 1080 960" fill="none" stroke="#E8DDC7" stroke-width="20"/>
      <path d="M540 54 V1296" stroke="#F4B037" stroke-width="10"/>
      <path d="M54 656 H1026" stroke="#F4B037" stroke-width="10"/>
      <g transform="translate(540 656)">
        <circle r="198" fill="#E8DDC7"/>
        <circle r="152" fill="#061620"/>
        <circle r="78" fill="none" stroke="#E8DDC7" stroke-width="26"/>
        <circle r="40" fill="#F4B037"/>
      </g>
      <rect x="54" y="54" width="972" height="116" fill="#F4B037"/>
      <text x="92" y="126" fill="#050606" font-family="Arial Black, Impact, sans-serif" font-size="38" letter-spacing="5">FIELD NOTICE / 002</text>
      <text x="92" y="314" fill="#E8DDC7" font-family="Impact, Arial Black, sans-serif" font-size="132">SIGNAL</text>
      <text x="92" y="442" fill="#E8DDC7" font-family="Impact, Arial Black, sans-serif" font-size="132">SEEN</text>
      <text x="92" y="1150" fill="#F4B037" font-family="Impact, Arial Black, sans-serif" font-size="118">CONFLUENCE</text>
      <text x="92" y="1216" fill="#E8DDC7" font-family="Arial Black, Impact, sans-serif" font-size="28" letter-spacing="4">SCIOTO + OLENTANGY</text>
      <text x="540" y="1332" text-anchor="middle" fill="#E8DDC7" font-family="Arial Black, Impact, sans-serif" font-size="19" letter-spacing="2">neocolumbus.github.io/Project-Columbus/site/signal</text>
  </g>
  <g transform="translate(796 1008)">
    <rect width="196" height="196" fill="#F6F0E4" stroke="#050606" stroke-width="8"/>
    <g transform="translate(18 14) scale(2.318841)">
      <rect width="69" height="69" fill="#F6F0E4"/>
      <path stroke="#050606" d="M4 4.5h7m2 0h1m2 0h2m4 0h2m2 0h1m5 0h2m1 0h1m5 0h1m1 0h5m1 0h1m1 0h1m3 0h2m1 0h7M4 5.5h1m5 0h1m2 0h1m1 0h1m1 0h2m1 0h4m1 0h2m1 0h7m2 0h3m2 0h1m1 0h2m1 0h1m1 0h2m1 0h1m2 0h2m1 0h1m5 0h1M4 6.5h1m1 0h3m1 0h1m1 0h3m4 0h1m2 0h1m2 0h1m1 0h1m1 0h1m2 0h4m2 0h2m1 0h2m1 0h2m2 0h1m5 0h3m1 0h1m1 0h3m1 0h1M4 7.5h1m1 0h3m1 0h1m1 0h1m2 0h2m1 0h2m1 0h2m2 0h5m1 0h2m1 0h1m2 0h4m1 0h1m4 0h1m1 0h1m1 0h4m1 0h1m1 0h1m1 0h3m1 0h1M4 8.5h1m1 0h3m1 0h1m1 0h5m1 0h1m2 0h2m1 0h3m3 0h7m1 0h5m2 0h1m1 0h1m1 0h1m1 0h1m1 0h3m2 0h1m1 0h3m1 0h1M4 9.5h1m5 0h1m1 0h2m1 0h4m3 0h1m1 0h1m1 0h7m3 0h2m2 0h1m2 0h2m1 0h2m1 0h2m3 0h1m3 0h1m5 0h1M4 10.5h7m1 0h1m1 0h1m1 0h1m1 0h1m1 0h1m1 0h1m1 0h1m1 0h1m1 0h1m1 0h1m1 0h1m1 0h1m1 0h1m1 0h1m1 0h1m1 0h1m1 0h1m1 0h1m1 0h1m1 0h1m1 0h1m1 0h1m1 0h1m1 0h7M12 11.5h1m8 0h2m2 0h1m1 0h1m2 0h1m1 0h1m3 0h1m1 0h1m2 0h2m1 0h3m1 0h1m2 0h1m1 0h2m1 0h1M4 12.5h1m1 0h5m8 0h1m1 0h5m2 0h2m1 0h6m1 0h1m1 0h1m1 0h1m2 0h1m1 0h1m4 0h1m1 0h3m1 0h5M5 13.5h3m3 0h1m2 0h1m3 0h1m1 0h1m5 0h2m2 0h2m4 0h1m4 0h1m3 0h4m3 0h2m1 0h1m1 0h3m1 0h2M5 14.5h1m3 0h3m1 0h1m1 0h2m1 0h2m1 0h1m1 0h2m2 0h1m3 0h3m1 0h1m1 0h2m1 0h1m1 0h1m1 0h1m4 0h2m1 0h1m1 0h3m3 0h1m2 0h2M7 15.5h1m1 0h1m5 0h1m4 0h4m2 0h1m1 0h3m2 0h3m2 0h1m4 0h3m2 0h1m1 0h2m1 0h2m2 0h4M4 16.5h1m2 0h5m1 0h2m1 0h4m1 0h1m1 0h1m2 0h1m1 0h2m2 0h1m2 0h1m3 0h2m2 0h1m1 0h1m1 0h1m3 0h6m2 0h1m1 0h2m1 0h1M5 17.5h1m1 0h3m1 0h1m1 0h2m1 0h4m1 0h4m1 0h1m3 0h2m4 0h2m3 0h1m1 0h4m1 0h2m2 0h1m4 0h2m4 0h1M4 18.5h5m1 0h4m2 0h1m1 0h1m4 0h2m1 0h1m3 0h2m1 0h3m2 0h1m1 0h1m1 0h2m1 0h1m1 0h2m1 0h2m1 0h2m8 0h2M5 19.5h3m1 0h1m2 0h5m1 0h4m2 0h1m2 0h1m1 0h2m2 0h2m4 0h2m4 0h3m1 0h1m4 0h2m2 0h1m1 0h1m2 0h2M4 20.5h2m1 0h2m1 0h1m3 0h1m1 0h1m2 0h4m1 0h1m2 0h3m5 0h3m2 0h4m1 0h2m3 0h9m2 0h2M4 21.5h1m2 0h1m1 0h1m6 0h1m1 0h2m2 0h2m3 0h2m1 0h1m1 0h3m1 0h1m2 0h2m4 0h3m7 0h1m1 0h2m1 0h2M5 22.5h1m1 0h1m2 0h13m2 0h1m2 0h1m2 0h5m1 0h2m1 0h1m1 0h2m5 0h2m1 0h4m3 0h4m1 0h1M5 23.5h3m1 0h1m2 0h2m2 0h4m2 0h6m1 0h1m3 0h2m1 0h2m3 0h1m1 0h2m1 0h1m1 0h3m3 0h1m1 0h1m1 0h1m1 0h1m2 0h1M4 24.5h4m1 0h2m1 0h1m1 0h2m1 0h1m1 0h1m2 0h1m1 0h1m1 0h2m7 0h1m3 0h3m5 0h1m2 0h8m1 0h1m1 0h2M4 25.5h1m1 0h1m2 0h1m1 0h2m1 0h5m5 0h1m2 0h3m3 0h1m2 0h1m2 0h1m6 0h1m4 0h3m3 0h3M6 26.5h2m1 0h2m2 0h1m2 0h4m3 0h2m1 0h3m8 0h8m2 0h1m1 0h2m3 0h1m1 0h1m2 0h1m1 0h1m1 0h2M8 27.5h1m2 0h1m1 0h1m2 0h2m1 0h3m4 0h2m2 0h2m1 0h1m3 0h1m5 0h2m1 0h4m3 0h1m2 0h1m1 0h1m1 0h1m2 0h2M4 28.5h2m3 0h3m5 0h1m1 0h1m2 0h1m1 0h2m1 0h3m4 0h2m3 0h3m3 0h3m1 0h2m1 0h1m2 0h3m3 0h4M4 29.5h2m1 0h1m3 0h1m1 0h1m1 0h1m1 0h1m2 0h1m1 0h2m1 0h1m2 0h4m2 0h1m2 0h1m1 0h2m3 0h1m1 0h1m2 0h1m1 0h2m5 0h1m2 0h2M5 30.5h2m2 0h3m1 0h1m1 0h1m1 0h2m1 0h2m2 0h1m1 0h4m1 0h1m1 0h1m1 0h2m2 0h3m1 0h7m1 0h2m1 0h1m2 0h1m1 0h1m1 0h1m1 0h2M6 31.5h1m1 0h2m3 0h1m2 0h5m1 0h3m1 0h1m1 0h2m3 0h2m1 0h4m2 0h1m1 0h1m2 0h2m1 0h2m1 0h1m3 0h2m1 0h1m2 0h1M6 32.5h1m1 0h5m1 0h1m2 0h4m1 0h1m3 0h1m2 0h1m2 0h10m1 0h1m1 0h3m3 0h3m1 0h8M5 33.5h2m1 0h1m3 0h4m2 0h3m3 0h1m1 0h3m1 0h1m1 0h1m3 0h1m2 0h3m3 0h2m1 0h1m2 0h1m1 0h1m2 0h1m3 0h1m1 0h2M4 34.5h2m2 0h1m1 0h1m1 0h1m1 0h2m4 0h2m3 0h2m2 0h1m1 0h2m1 0h1m1 0h5m1 0h1m2 0h1m1 0h1m1 0h3m2 0h1m1 0h1m1 0h1m1 0h5M5 35.5h1m1 0h2m3 0h1m3 0h2m1 0h1m1 0h3m3 0h3m1 0h2m3 0h2m1 0h1m1 0h6m1 0h2m3 0h4m3 0h1m2 0h1M8 36.5h5m1 0h5m3 0h4m1 0h1m1 0h1m2 0h6m1 0h4m2 0h2m2 0h1m1 0h4m1 0h5m1 0h2M4 37.5h1m2 0h1m6 0h6m2 0h2m1 0h1m1 0h2m1 0h1m1 0h1m2 0h3m2 0h2m3 0h5m1 0h1m1 0h1m2 0h2m1 0h1m2 0h1M6 38.5h1m1 0h1m1 0h3m1 0h2m1 0h1m1 0h1m3 0h1m2 0h1m4 0h2m3 0h1m1 0h1m1 0h3m2 0h1m4 0h2m2 0h1m2 0h8M4 39.5h2m2 0h2m3 0h1m1 0h1m2 0h1m1 0h2m1 0h1m4 0h3m2 0h3m4 0h1m1 0h2m1 0h1m4 0h2m1 0h2m1 0h1m6 0h1M4 40.5h2m1 0h5m4 0h1m2 0h2m1 0h1m2 0h1m3 0h1m2 0h5m2 0h1m1 0h2m1 0h1m2 0h2m1 0h4m1 0h2m1 0h5m1 0h1M8 41.5h2m3 0h1m1 0h1m2 0h4m2 0h5m1 0h1m10 0h1m1 0h4m1 0h1m2 0h3m1 0h2m2 0h1m1 0h4M5 42.5h1m2 0h1m1 0h1m2 0h1m1 0h3m5 0h2m3 0h4m4 0h4m1 0h2m1 0h1m2 0h4m1 0h2m1 0h1m1 0h2m2 0h1m1 0h1M5 43.5h4m4 0h1m2 0h1m1 0h3m1 0h1m2 0h1m4 0h4m1 0h1m2 0h1m2 0h5m1 0h3m6 0h2m1 0h1m4 0h1M5 44.5h1m3 0h2m3 0h1m2 0h1m2 0h3m2 0h2m1 0h10m1 0h3m5 0h1m2 0h9m1 0h1m1 0h1m1 0h1M4 45.5h2m1 0h1m4 0h1m1 0h2m4 0h2m2 0h2m1 0h1m4 0h1m3 0h2m1 0h3m1 0h1m2 0h1m1 0h1m4 0h1m1 0h1m2 0h1m4 0h1M4 46.5h1m3 0h1m1 0h1m1 0h1m2 0h2m1 0h2m1 0h3m1 0h2m2 0h1m1 0h1m1 0h1m2 0h3m2 0h1m2 0h1m2 0h6m1 0h2m2 0h2m3 0h2M7 47.5h1m1 0h1m2 0h1m3 0h3m4 0h1m1 0h3m1 0h1m1 0h2m5 0h1m2 0h5m2 0h1m1 0h1m2 0h2m4 0h1m1 0h1m2 0h1M5 48.5h1m1 0h2m1 0h2m2 0h3m2 0h1m1 0h1m2 0h1m1 0h1m2 0h1m4 0h1m1 0h5m1 0h2m3 0h1m1 0h5m1 0h4m1 0h4M4 49.5h2m2 0h2m1 0h1m1 0h2m1 0h1m5 0h1m1 0h1m1 0h7m5 0h1m2 0h2m2 0h1m2 0h1m1 0h1m1 0h2m2 0h1m2 0h1m2 0h1M4 50.5h1m2 0h1m1 0h3m2 0h2m1 0h1m2 0h1m3 0h3m3 0h1m3 0h4m2 0h1m5 0h2m1 0h1m4 0h1m2 0h2m3 0h1m1 0h1M4 51.5h1m1 0h1m4 0h6m1 0h2m1 0h2m1 0h4m1 0h1m2 0h4m5 0h6m1 0h2m3 0h2m1 0h1m2 0h1m3 0h2M4 52.5h2m2 0h6m1 0h1m1 0h1m1 0h3m1 0h1m2 0h2m1 0h1m2 0h1m1 0h3m2 0h4m3 0h1m2 0h8m3 0h3M5 53.5h4m2 0h2m1 0h3m4 0h2m2 0h4m1 0h1m2 0h2m5 0h1m3 0h4m5 0h1m1 0h1m3 0h1m1 0h1M6 54.5h5m2 0h1m1 0h1m2 0h6m1 0h9m1 0h1m1 0h4m1 0h2m6 0h1m1 0h1m1 0h1m3 0h3m1 0h3M4 55.5h3m1 0h1m3 0h3m1 0h2m4 0h7m1 0h4m3 0h1m1 0h2m3 0h1m1 0h4m3 0h1m2 0h1m2 0h2M4 56.5h4m2 0h1m4 0h2m2 0h2m2 0h3m3 0h1m1 0h7m1 0h4m4 0h1m1 0h1m1 0h2m2 0h6m1 0h1m1 0h1M12 57.5h2m2 0h1m1 0h1m4 0h1m2 0h3m1 0h3m3 0h2m1 0h1m1 0h1m1 0h1m1 0h3m1 0h1m1 0h1m1 0h1m2 0h1m3 0h2m1 0h1M4 58.5h7m3 0h4m1 0h1m1 0h1m2 0h1m2 0h1m1 0h2m1 0h1m1 0h1m1 0h1m1 0h2m1 0h4m2 0h1m2 0h1m1 0h3m1 0h1m1 0h1m1 0h1m1 0h3M4 59.5h1m5 0h1m1 0h4m6 0h1m2 0h1m1 0h6m3 0h1m2 0h3m4 0h2m2 0h1m2 0h1m1 0h2m3 0h1m2 0h1M4 60.5h1m1 0h3m1 0h1m1 0h2m1 0h1m2 0h3m1 0h2m2 0h1m2 0h1m1 0h7m2 0h1m2 0h1m1 0h1m3 0h4m3 0h8M4 61.5h1m1 0h3m1 0h1m1 0h1m1 0h1m1 0h1m7 0h3m1 0h1m1 0h1m2 0h3m1 0h1m1 0h3m3 0h3m3 0h1m1 0h1m1 0h3m1 0h2m3 0h1M4 62.5h1m1 0h3m1 0h1m1 0h2m1 0h2m1 0h1m2 0h1m2 0h1m1 0h2m9 0h2m1 0h4m5 0h2m1 0h1m1 0h1m4 0h1m1 0h1m2 0h1M4 63.5h1m5 0h1m2 0h1m1 0h5m1 0h2m5 0h2m1 0h3m1 0h4m4 0h4m1 0h1m2 0h1m2 0h7m3 0h1M4 64.5h7m1 0h1m1 0h1m2 0h1m1 0h3m1 0h6m6 0h1m2 0h5m4 0h1m3 0h3m1 0h1m3 0h2m1 0h3"/>
    </g>
    <text x="98" y="186" text-anchor="middle" fill="#050606" font-family="Arial Black, Impact, sans-serif" font-size="26" letter-spacing="3">SCAN</text>
  </g>
</svg>
