<svg xmlns="http://www.w3.org/2000/svg" viewBox="0 0 1080 1350" role="img" aria-labelledby="title desc">
  <title id="title">The Center Was Here Before The Seal With QR</title>
  <desc id="desc">A Drop 001 standalone QR poster linking to https://neocolumbus.github.io/Project-Columbus/site/signal/?drop=001&amp;source=poster-003&amp;kind=Neighborhood&amp;break=The+center+is+treated+like+branding+instead+of+public+ground.&amp;line=The+center+was+here+before+the+seal.#field-card. Poster art is inlined for GitHub-safe rendering.</desc>
  <g transform="matrix(1.000000 0 0 1.000000 0.000000 0.000000)">
    <rect width="1080" height="1350" fill="#9D4732"/>
      <rect x="66" y="66" width="948" height="1218" fill="#E8DDC7"/>
      <rect x="66" y="66" width="948" height="168" fill="#061620"/>
      <text x="100" y="138" fill="#F4B037" font-family="Arial Black, Impact, sans-serif" font-size="32" letter-spacing="5">EVIDENCE 003 / CITY CENTER</text>
      <text x="100" y="204" fill="#E8DDC7" font-family="Arial Black, Impact, sans-serif" font-size="26" letter-spacing="4">NOT A SEAL. A SIGNAL.</text>
      <g transform="translate(540 454)">
        <rect x="-342" y="-15" width="684" height="30" fill="#061620"/>
        <rect x="-15" y="-204" width="30" height="408" fill="#061620"/>
        <circle r="190" fill="#E8DDC7" stroke="#061620" stroke-width="26"/>
        <circle r="132" fill="#061620"/>
        <circle r="64" fill="none" stroke="#E8DDC7" stroke-width="22"/>
        <circle r="38" fill="#F4B037"/>
      </g>
      <text x="98" y="780" fill="#050606" font-family="Impact, Arial Black, sans-serif" font-size="112">THE CENTER</text>
      <text x="98" y="902" fill="#050606" font-family="Impact, Arial Black, sans-serif" font-size="112">WAS HERE</text>
      <text x="98" y="1024" fill="#050606" font-family="Impact, Arial Black, sans-serif" font-size="112">BEFORE</text>
      <text x="98" y="1146" fill="#9D4732" font-family="Impact, Arial Black, sans-serif" font-size="112">THE SEAL</text>
      <rect x="66" y="1218" width="948" height="66" fill="#061620"/>
      <text x="540" y="1332" text-anchor="middle" fill="#E8DDC7" font-family="Arial Black, Impact, sans-serif" font-size="19" letter-spacing="2">neocolumbus.github.io/Project-Columbus/site/signal</text>
  </g>
  <g transform="translate(796 1008)">
    <rect width="196" height="196" fill="#F6F0E4" stroke="#050606" stroke-width="8"/>
    <g transform="translate(18 14) scale(2.318841)">
      <rect width="69" height="69" fill="#F6F0E4"/>
      <path stroke="#050606" d="M4 4.5h7m3 0h2m2 0h1m2 0h2m1 0h2m1 0h2m3 0h2m1 0h1m3 0h3m4 0h1m1 0h1m2 0h1m3 0h2m1 0h7M4 5.5h1m5 0h1m2 0h2m1 0h1m7 0h1m4 0h6m2 0h5m2 0h1m2 0h2m1 0h4m1 0h2m1 0h1m5 0h1M4 6.5h1m1 0h3m1 0h1m1 0h6m2 0h1m1 0h2m1 0h2m2 0h1m2 0h4m2 0h1m2 0h4m1 0h1m1 0h3m3 0h3m1 0h1m1 0h3m1 0h1M4 7.5h1m1 0h3m1 0h1m1 0h1m1 0h2m5 0h2m3 0h1m2 0h1m1 0h2m1 0h1m2 0h4m1 0h1m2 0h2m4 0h4m1 0h1m1 0h1m1 0h3m1 0h1M4 8.5h1m1 0h3m1 0h1m1 0h2m1 0h4m1 0h2m3 0h2m3 0h1m1 0h5m1 0h2m1 0h6m1 0h1m2 0h1m1 0h3m2 0h1m1 0h3m1 0h1M4 9.5h1m5 0h1m1 0h2m2 0h1m3 0h1m1 0h1m2 0h8m3 0h2m5 0h1m1 0h1m3 0h2m3 0h1m3 0h1m5 0h1M4 10.5h7m1 0h1m1 0h1m1 0h1m1 0h1m1 0h1m1 0h1m1 0h1m1 0h1m1 0h1m1 0h1m1 0h1m1 0h1m1 0h1m1 0h1m1 0h1m1 0h1m1 0h1m1 0h1m1 0h1m1 0h1m1 0h1m1 0h1m1 0h1m1 0h7M12 11.5h4m5 0h2m4 0h1m2 0h3m3 0h1m1 0h1m2 0h2m1 0h3m1 0h1m2 0h1m1 0h2M4 12.5h1m1 0h5m4 0h1m2 0h1m2 0h2m2 0h2m2 0h1m1 0h6m1 0h1m1 0h1m1 0h1m2 0h1m1 0h1m4 0h1m1 0h3m1 0h5M5 13.5h2m1 0h1m4 0h2m3 0h1m1 0h2m2 0h1m2 0h1m2 0h3m2 0h2m4 0h1m3 0h4m3 0h2m3 0h3M6 14.5h1m1 0h1m1 0h3m1 0h1m1 0h2m1 0h1m1 0h3m1 0h2m3 0h4m1 0h1m1 0h2m1 0h1m1 0h1m1 0h1m4 0h2m1 0h1m1 0h1m5 0h2m1 0h2M5 15.5h2m1 0h1m4 0h3m2 0h1m2 0h2m5 0h2m3 0h4m1 0h1m4 0h3m2 0h1m1 0h2m1 0h2m2 0h4M6 16.5h2m1 0h2m1 0h3m2 0h4m1 0h3m1 0h1m2 0h1m1 0h1m4 0h1m2 0h2m2 0h1m1 0h1m1 0h1m3 0h6m2 0h1m1 0h2m1 0h1M4 17.5h2m1 0h3m4 0h5m1 0h5m1 0h1m3 0h1m3 0h1m1 0h2m3 0h1m1 0h4m1 0h2m2 0h1m4 0h2m3 0h2M5 18.5h6m3 0h1m1 0h1m1 0h7m1 0h1m1 0h2m1 0h1m3 0h1m2 0h1m1 0h1m1 0h2m1 0h1m1 0h2m1 0h2m1 0h2m7 0h3M6 19.5h1m1 0h2m5 0h1m1 0h3m6 0h4m3 0h4m1 0h4m6 0h2m4 0h2m1 0h1m2 0h1m2 0h2M4 20.5h4m1 0h4m3 0h1m2 0h5m1 0h1m1 0h3m3 0h1m2 0h2m2 0h2m1 0h1m1 0h1m1 0h1m2 0h8m1 0h1m2 0h1M6 21.5h2m1 0h1m1 0h2m3 0h2m1 0h3m1 0h5m1 0h2m1 0h3m1 0h1m2 0h3m3 0h4m6 0h1m1 0h2m2 0h1M5 22.5h3m1 0h2m1 0h1m5 0h1m2 0h6m1 0h1m2 0h3m1 0h1m1 0h2m1 0h1m1 0h2m5 0h7m3 0h1m1 0h2m1 0h1M4 23.5h3m1 0h1m3 0h3m1 0h3m1 0h1m2 0h1m1 0h2m2 0h1m3 0h2m1 0h1m1 0h1m2 0h1m2 0h3m1 0h2m6 0h1m3 0h1m2 0h1M5 24.5h1m3 0h4m1 0h1m2 0h1m2 0h1m1 0h1m1 0h4m7 0h1m1 0h4m2 0h1m5 0h4m1 0h3m1 0h2m1 0h2m1 0h1M4 25.5h1m1 0h1m1 0h1m4 0h1m2 0h1m5 0h1m1 0h4m1 0h1m3 0h1m2 0h1m2 0h1m1 0h1m3 0h2m4 0h1m1 0h1m3 0h4M10 26.5h1m3 0h2m3 0h7m1 0h1m10 0h1m1 0h1m1 0h1m4 0h1m1 0h2m3 0h1m1 0h1m3 0h2m1 0h2M4 27.5h1m1 0h1m1 0h1m5 0h2m1 0h2m1 0h4m3 0h2m1 0h2m1 0h1m3 0h1m6 0h1m1 0h3m7 0h1m1 0h1m1 0h1M4 28.5h1m1 0h1m3 0h1m2 0h1m1 0h1m1 0h1m1 0h1m1 0h2m1 0h2m1 0h3m4 0h2m4 0h2m5 0h1m4 0h2m1 0h3m3 0h4M6 29.5h2m3 0h2m3 0h1m2 0h1m6 0h1m1 0h4m2 0h1m2 0h1m2 0h1m2 0h1m1 0h3m3 0h3m4 0h1m2 0h3M5 30.5h1m4 0h2m1 0h3m4 0h1m1 0h3m1 0h4m1 0h3m1 0h2m2 0h3m5 0h1m1 0h4m1 0h1m1 0h2m1 0h1m1 0h1m1 0h2M4 31.5h2m3 0h1m1 0h3m3 0h2m1 0h1m4 0h2m1 0h2m3 0h2m1 0h4m2 0h1m1 0h1m2 0h2m1 0h2m1 0h1m1 0h1m1 0h2m1 0h1m2 0h1M6 32.5h1m1 0h5m1 0h1m2 0h1m1 0h1m1 0h1m1 0h2m4 0h1m2 0h10m1 0h1m1 0h3m3 0h3m2 0h7m1 0h1M4 33.5h3m1 0h1m3 0h1m2 0h4m1 0h1m3 0h5m1 0h1m1 0h1m3 0h1m2 0h3m3 0h2m1 0h1m2 0h1m1 0h1m2 0h1m3 0h1m2 0h1M4 34.5h1m1 0h1m1 0h1m1 0h1m1 0h1m3 0h1m1 0h1m1 0h1m1 0h2m1 0h2m2 0h4m1 0h1m1 0h5m1 0h1m2 0h1m1 0h1m1 0h3m2 0h1m1 0h1m1 0h1m1 0h1m2 0h2M4 35.5h5m3 0h1m2 0h1m2 0h2m4 0h1m3 0h1m1 0h1m1 0h1m3 0h2m1 0h1m1 0h6m1 0h2m3 0h4m3 0h1m2 0h1M4 36.5h1m2 0h8m1 0h2m2 0h1m2 0h1m1 0h1m3 0h1m1 0h7m1 0h4m2 0h2m2 0h1m1 0h13M7 37.5h1m1 0h1m1 0h1m3 0h1m1 0h6m3 0h3m1 0h1m1 0h1m2 0h3m2 0h2m3 0h5m1 0h1m1 0h1m1 0h1m1 0h1m1 0h1m1 0h1M4 38.5h1m1 0h2m2 0h2m2 0h1m3 0h3m4 0h1m1 0h2m2 0h1m4 0h1m1 0h1m1 0h3m2 0h1m4 0h2m2 0h2m1 0h8M6 39.5h1m5 0h2m4 0h1m1 0h2m1 0h4m3 0h1m1 0h3m2 0h2m1 0h1m2 0h1m4 0h1m4 0h2m1 0h1m6 0h1M5 40.5h3m2 0h1m8 0h2m3 0h1m1 0h1m2 0h1m2 0h3m1 0h1m2 0h1m1 0h1m2 0h4m3 0h3m1 0h2m1 0h5m1 0h1M5 41.5h2m1 0h2m1 0h3m1 0h2m1 0h1m2 0h3m3 0h2m1 0h1m10 0h1m1 0h5m3 0h1m1 0h1m1 0h2m2 0h1m1 0h2M6 42.5h2m1 0h6m8 0h1m2 0h1m1 0h4m2 0h1m1 0h4m1 0h2m1 0h2m1 0h4m1 0h2m1 0h1m1 0h2m2 0h1m1 0h1M5 43.5h1m1 0h1m4 0h1m1 0h1m1 0h2m1 0h1m3 0h1m1 0h2m3 0h3m9 0h4m2 0h1m1 0h1m2 0h2m1 0h2m1 0h1m4 0h1M4 44.5h1m2 0h1m1 0h2m1 0h2m1 0h1m2 0h8m2 0h8m1 0h1m1 0h2m5 0h2m2 0h1m1 0h1m2 0h6m1 0h1m1 0h1M6 45.5h1m6 0h1m4 0h1m1 0h3m3 0h2m4 0h1m2 0h1m3 0h1m1 0h1m1 0h4m1 0h1m2 0h1m1 0h1m1 0h1m3 0h1M5 46.5h1m1 0h1m1 0h8m1 0h1m2 0h1m7 0h1m1 0h1m2 0h1m1 0h3m3 0h1m1 0h1m2 0h2m1 0h1m1 0h1m1 0h2m2 0h3m2 0h2M9 47.5h1m1 0h1m5 0h2m3 0h1m3 0h2m1 0h1m1 0h4m3 0h1m2 0h2m1 0h3m1 0h1m1 0h1m2 0h2m5 0h2m1 0h2M4 48.5h1m2 0h4m2 0h1m3 0h1m1 0h3m1 0h1m5 0h1m3 0h8m1 0h1m3 0h2m1 0h1m1 0h2m2 0h4m1 0h5M4 49.5h2m2 0h1m2 0h8m1 0h2m4 0h8m4 0h5m1 0h1m1 0h1m5 0h1m3 0h3m3 0h2M4 50.5h1m1 0h1m2 0h3m1 0h1m1 0h1m2 0h1m1 0h1m1 0h1m2 0h1m1 0h1m2 0h1m3 0h4m1 0h2m2 0h2m2 0h1m1 0h2m3 0h1m1 0h1m1 0h1m3 0h3M5 51.5h1m1 0h1m3 0h1m1 0h2m2 0h4m8 0h1m2 0h4m5 0h6m1 0h2m3 0h2m1 0h1m2 0h1M5 52.5h2m1 0h3m2 0h2m3 0h1m1 0h4m1 0h1m3 0h1m4 0h3m2 0h4m3 0h1m2 0h8m3 0h4M4 53.5h3m1 0h2m1 0h1m1 0h3m1 0h6m2 0h4m1 0h1m2 0h2m5 0h1m3 0h4m5 0h1m5 0h1m1 0h1M6 54.5h6m1 0h1m1 0h1m1 0h1m1 0h4m1 0h2m1 0h1m1 0h1m1 0h3m1 0h1m1 0h4m1 0h2m6 0h1m1 0h1m1 0h1m1 0h1m1 0h3m2 0h2M4 55.5h3m1 0h1m3 0h3m4 0h2m1 0h1m1 0h1m4 0h2m2 0h1m3 0h1m1 0h2m3 0h1m1 0h4m3 0h1m2 0h1m2 0h2M4 56.5h4m2 0h3m1 0h1m1 0h3m2 0h2m1 0h3m4 0h7m1 0h4m4 0h1m1 0h1m1 0h2m2 0h8m1 0h1M12 57.5h1m2 0h1m1 0h1m1 0h1m1 0h2m3 0h3m1 0h3m3 0h2m1 0h1m1 0h1m1 0h1m1 0h3m1 0h1m1 0h1m1 0h1m2 0h1m3 0h1m2 0h1M4 58.5h7m5 0h2m1 0h1m2 0h2m1 0h3m1 0h1m2 0h1m1 0h1m1 0h1m1 0h2m1 0h4m2 0h1m2 0h1m1 0h3m1 0h1m1 0h1m1 0h1m2 0h2M4 59.5h1m5 0h1m1 0h2m2 0h5m1 0h1m1 0h6m2 0h1m3 0h6m1 0h1m2 0h1m1 0h1m1 0h1m2 0h1m1 0h2m3 0h2m1 0h1M4 60.5h1m1 0h3m1 0h1m1 0h2m3 0h2m1 0h2m1 0h1m1 0h2m4 0h6m1 0h1m1 0h1m2 0h1m1 0h1m3 0h2m1 0h1m3 0h8M4 61.5h1m1 0h3m1 0h1m1 0h1m2 0h1m1 0h1m2 0h3m5 0h1m1 0h1m2 0h3m3 0h3m1 0h2m1 0h1m6 0h1m1 0h3m1 0h2m3 0h1M4 62.5h1m1 0h3m1 0h1m1 0h1m3 0h3m2 0h1m1 0h2m2 0h1m3 0h1m5 0h2m1 0h1m1 0h2m3 0h1m2 0h2m2 0h1m4 0h1m1 0h1m2 0h1M4 63.5h1m5 0h1m3 0h1m6 0h3m1 0h2m1 0h2m1 0h3m1 0h2m4 0h1m1 0h2m3 0h1m5 0h7m3 0h1M4 64.5h7m1 0h3m1 0h3m1 0h1m1 0h1m2 0h4m6 0h1m4 0h2m3 0h3m3 0h3m1 0h1m3 0h2m1 0h3"/>
    </g>
    <text x="98" y="186" text-anchor="middle" fill="#050606" font-family="Arial Black, Impact, sans-serif" font-size="26" letter-spacing="3">SCAN</text>
  </g>
</svg>
