<svg xmlns="http://www.w3.org/2000/svg" viewBox="0 0 1080 1350" role="img" aria-labelledby="title desc">
  <title id="title">Report A Dead Wall With QR</title>
  <desc id="desc">A Drop 001 poster asking people to report dead walls, with a QR code to the public scan path.</desc>
  <rect width="1080" height="1350" fill="#E8DDC7"/>
  <rect x="58" y="58" width="964" height="1234" fill="#050606"/>
  <g fill="#9D4732">
    <rect x="94" y="94" width="132" height="86"/>
    <rect x="246" y="94" width="190" height="86"/>
    <rect x="456" y="94" width="142" height="86"/>
    <rect x="618" y="94" width="242" height="86"/>
    <rect x="880" y="94" width="106" height="86"/>
    <rect x="94" y="206" width="230" height="86"/>
    <rect x="344" y="206" width="134" height="86"/>
    <rect x="498" y="206" width="252" height="86"/>
    <rect x="770" y="206" width="216" height="86"/>
  </g>
  <path d="M706 422 L872 594 L810 706 L938 858 L872 958" fill="none" stroke="#F4B037" stroke-width="30" stroke-linecap="square"/>
  <path d="M94 382 H986" stroke="#E8DDC7" stroke-width="14"/>
  <path d="M700 348 V1128" stroke="#E8DDC7" stroke-width="8"/>
  <circle cx="700" cy="698" r="92" fill="#E8DDC7"/>
  <circle cx="700" cy="698" r="60" fill="#050606"/>
  <circle cx="700" cy="698" r="28" fill="#F4B037"/>
  <text x="90" y="528" fill="#E8DDC7" font-family="Impact, Arial Black, sans-serif" font-size="140">REPORT</text>
  <text x="90" y="874" fill="#F4B037" font-family="Impact, Arial Black, sans-serif" font-size="180">A DEAD</text>
  <text x="90" y="1042" fill="#E8DDC7" font-family="Impact, Arial Black, sans-serif" font-size="180">WALL</text>
  <g transform="translate(796 1008)">
    <rect width="196" height="196" fill="#F6F0E4" stroke="#050606" stroke-width="8"/>
    <g transform="translate(18 14) scale(3.555556)">
      <rect width="45" height="45" fill="#F6F0E4"/>
      <path stroke="#050606" d="M4 4.5h7m3 0h2m5 0h1m3 0h3m1 0h2m1 0h1m1 0h7m-37 1h1m5 0h1m2 0h3m1 0h1m1 0h4m1 0h3m3 0h3m1 0h1m5 0h1m-37 1h1m1 0h3m1 0h1m1 0h3m2 0h1m2 0h1m1 0h1m2 0h2m3 0h3m1 0h1m1 0h3m1 0h1m-37 1h1m1 0h3m1 0h1m1 0h3m3 0h2m1 0h1m4 0h1m2 0h3m2 0h1m1 0h3m1 0h1m-37 1h1m1 0h3m1 0h1m1 0h2m1 0h1m1 0h9m1 0h1m4 0h1m1 0h1m1 0h3m1 0h1m-37 1h1m5 0h1m1 0h2m3 0h1m2 0h2m2 0h1m3 0h2m1 0h2m1 0h1m5 0h1m-37 1h7m1 0h1m1 0h1m1 0h1m1 0h1m1 0h1m1 0h1m1 0h1m1 0h1m1 0h1m1 0h1m1 0h1m1 0h7m-29 1h1m2 0h1m1 0h9m2 0h1m2 0h2m-29 1h1m1 0h5m2 0h1m1 0h2m1 0h1m1 0h1m2 0h1m3 0h6m1 0h5m-33 1h2m5 0h5m1 0h1m2 0h1m1 0h2m1 0h1m4 0h1m2 0h1m3 0h1m-36 1h2m4 0h2m1 0h1m3 0h1m1 0h2m2 0h1m4 0h2m1 0h3m2 0h1m2 0h2m-35 1h1m1 0h2m1 0h2m1 0h4m1 0h1m3 0h3m6 0h1m2 0h2m3 0h1m-35 1h10m3 0h3m1 0h1m4 0h3m1 0h3m1 0h1m1 0h3m-37 1h4m3 0h1m4 0h3m1 0h1m1 0h3m2 0h1m2 0h1m1 0h1m2 0h1m3 0h1m-35 1h3m2 0h1m1 0h1m1 0h1m2 0h1m1 0h1m2 0h1m2 0h2m1 0h2m1 0h1m2 0h4m1 0h2m-36 1h1m1 0h1m3 0h3m2 0h5m2 0h1m1 0h2m3 0h7m-33 1h7m1 0h1m1 0h1m7 0h1m1 0h1m4 0h2m2 0h2m1 0h1m1 0h1m1 0h1m-37 1h2m5 0h2m2 0h1m2 0h3m5 0h2m4 0h1m2 0h1m1 0h1m1 0h1m-35 1h1m1 0h5m1 0h2m1 0h1m4 0h2m1 0h1m1 0h1m3 0h7m1 0h3m-34 1h1m5 0h3m4 0h1m4 0h1m1 0h2m1 0h1m2 0h3m1 0h1m2 0h1m-37 1h1m2 0h2m1 0h1m1 0h2m2 0h3m2 0h1m2 0h1m1 0h1m2 0h3m1 0h2m1 0h3m-34 1h3m3 0h3m4 0h1m1 0h2m1 0h3m1 0h1m2 0h1m1 0h1m4 0h1m-34 1h3m1 0h1m1 0h2m1 0h1m1 0h7m3 0h1m4 0h4m1 0h3m1 0h2m-36 1h1m3 0h1m1 0h5m1 0h1m2 0h3m2 0h1m2 0h1m1 0h1m1 0h1m1 0h3m2 0h2m-36 1h2m3 0h1m1 0h1m1 0h5m1 0h1m6 0h1m1 0h1m2 0h1m1 0h1m1 0h1m1 0h2m-36 1h1m4 0h1m1 0h2m1 0h2m1 0h3m2 0h1m1 0h1m1 0h2m2 0h1m1 0h1m2 0h1m2 0h1m-35 1h1m1 0h3m1 0h7m1 0h3m2 0h1m1 0h1m3 0h1m1 0h3m1 0h1m2 0h3m-37 1h1m1 0h1m6 0h1m3 0h1m1 0h1m2 0h6m2 0h1m1 0h2m2 0h1m3 0h1m-37 1h1m3 0h1m1 0h2m2 0h1m2 0h3m1 0h4m1 0h4m2 0h5m1 0h1m-27 1h1m1 0h4m2 0h1m1 0h1m1 0h2m1 0h1m1 0h1m1 0h2m3 0h2m-34 1h7m2 0h2m1 0h1m2 0h2m1 0h1m1 0h2m4 0h1m1 0h1m1 0h1m1 0h1m1 0h3m-37 1h1m5 0h1m1 0h2m4 0h1m4 0h3m1 0h1m2 0h1m1 0h1m3 0h2m1 0h2m-37 1h1m1 0h3m1 0h1m1 0h8m2 0h2m4 0h9m1 0h3m-37 1h1m1 0h3m1 0h1m1 0h2m2 0h1m2 0h3m4 0h2m1 0h2m1 0h3m1 0h2m2 0h1m-37 1h1m1 0h3m1 0h1m1 0h3m2 0h2m7 0h1m1 0h4m6 0h3m-37 1h1m5 0h1m2 0h1m2 0h1m3 0h1m2 0h4m1 0h1m3 0h2m2 0h1m3 0h1m-37 1h7m1 0h1m2 0h2m1 0h1m9 0h4m1 0h1m2 0h5"/>
    </g>
    <text x="98" y="186" text-anchor="middle" fill="#050606" font-family="Arial Black, Impact, sans-serif" font-size="26" letter-spacing="3">SCAN</text>
  </g>
  <rect x="58" y="1216" width="964" height="76" fill="#F4B037"/>
  <text x="90" y="1268" fill="#050606" font-family="Arial Black, Impact, sans-serif" font-size="30" letter-spacing="4">DENSITY DESERVES BEAUTY / DROP 001</text>
</svg>
