<svg xmlns="http://www.w3.org/2000/svg" viewBox="0 0 1080 1350" role="img" aria-labelledby="title desc">
  <title id="title">No More Half City With QR</title>
  <desc id="desc">A Drop 001 standalone QR poster linking to https://neocolumbus.github.io/Project-Columbus/site/signal/?drop=001&amp;source=poster-008&amp;kind=Neighborhood&amp;break=This+place+is+treated+like+a+fragment.&amp;line=No+more+half-city.#field-card</desc>
  <image href="008-no-more-half-city.svg" width="1080" height="1350"/>
  <g transform="translate(796 1008)">
    <rect width="196" height="196" fill="#F6F0E4" stroke="#050606" stroke-width="8"/>
    <g transform="translate(18 14) scale(2.461538)">
      <rect width="65" height="65" fill="#F6F0E4"/>
      <path stroke="#050606" d="M4 4.5h7m2 0h2m1 0h1m1 0h3m1 0h2m2 0h4m1 0h1m1 0h5m1 0h1m1 0h6m1 0h4m2 0h7M4 5.5h1m5 0h1m6 0h1m2 0h2m1 0h1m2 0h2m2 0h2m1 0h4m1 0h1m5 0h1m2 0h3m1 0h1m2 0h1m5 0h1M4 6.5h1m1 0h3m1 0h1m1 0h2m3 0h4m2 0h1m7 0h2m1 0h2m2 0h2m4 0h2m2 0h4m2 0h1m1 0h3m1 0h1M4 7.5h1m1 0h3m1 0h1m1 0h3m1 0h3m1 0h1m2 0h1m5 0h2m6 0h2m1 0h3m2 0h1m1 0h1m1 0h1m1 0h1m2 0h1m1 0h3m1 0h1M4 8.5h1m1 0h3m1 0h1m1 0h1m1 0h2m2 0h1m1 0h1m2 0h4m1 0h1m1 0h6m4 0h1m2 0h6m2 0h1m2 0h1m1 0h3m1 0h1M4 9.5h1m5 0h1m1 0h1m3 0h2m2 0h4m1 0h1m3 0h2m3 0h1m2 0h2m1 0h1m1 0h1m1 0h2m1 0h4m3 0h1m5 0h1M4 10.5h7m1 0h1m1 0h1m1 0h1m1 0h1m1 0h1m1 0h1m1 0h1m1 0h1m1 0h1m1 0h1m1 0h1m1 0h1m1 0h1m1 0h1m1 0h1m1 0h1m1 0h1m1 0h1m1 0h1m1 0h1m1 0h1m1 0h7M12 11.5h3m1 0h2m2 0h1m1 0h1m5 0h3m3 0h1m1 0h1m1 0h2m3 0h2m1 0h1m1 0h1m1 0h3M4 12.5h1m1 0h5m2 0h2m1 0h2m1 0h2m1 0h1m1 0h2m4 0h6m1 0h4m1 0h2m6 0h1m3 0h5M8 13.5h1m8 0h1m9 0h2m1 0h7m1 0h1m1 0h2m1 0h1m1 0h2m4 0h2m2 0h1m2 0h1m1 0h1M4 14.5h2m4 0h2m1 0h1m8 0h2m2 0h2m1 0h4m3 0h2m4 0h1m4 0h1m1 0h3m2 0h1m3 0h2M4 15.5h2m1 0h3m1 0h3m1 0h1m1 0h5m3 0h2m1 0h2m6 0h1m2 0h3m2 0h1m1 0h3m4 0h1m1 0h2m1 0h2M4 16.5h3m3 0h3m1 0h1m1 0h4m1 0h1m1 0h2m1 0h1m1 0h1m1 0h2m1 0h1m6 0h1m1 0h1m4 0h1m6 0h1m2 0h1m1 0h1M6 17.5h1m1 0h1m5 0h8m3 0h1m1 0h1m1 0h2m2 0h4m2 0h3m1 0h1m2 0h1m1 0h2m1 0h3m3 0h2m1 0h1M4 18.5h5m1 0h1m5 0h9m1 0h1m3 0h2m1 0h1m3 0h2m1 0h1m1 0h1m3 0h2m1 0h2m3 0h5M6 19.5h2m1 0h1m2 0h2m1 0h1m5 0h2m1 0h4m1 0h5m1 0h3m3 0h1m2 0h2m2 0h1m2 0h1m3 0h4m1 0h1M4 20.5h1m2 0h1m2 0h8m2 0h4m1 0h1m5 0h1m1 0h3m3 0h2m5 0h2m7 0h1m4 0h1M5 21.5h2m1 0h2m1 0h1m1 0h1m5 0h1m1 0h2m1 0h2m2 0h2m3 0h3m1 0h1m1 0h2m4 0h2m1 0h1m2 0h3m2 0h5M10 22.5h2m2 0h2m1 0h1m2 0h1m1 0h2m1 0h2m2 0h1m5 0h1m1 0h2m3 0h1m2 0h1m3 0h2m1 0h4m2 0h2M6 23.5h1m2 0h1m2 0h1m1 0h1m2 0h1m1 0h4m1 0h1m1 0h4m1 0h3m2 0h1m1 0h1m7 0h1m1 0h1m2 0h4m1 0h4M4 24.5h2m1 0h1m1 0h2m1 0h2m2 0h4m1 0h3m6 0h1m8 0h3m1 0h1m1 0h3m5 0h2m2 0h1m2 0h1M4 25.5h3m2 0h1m1 0h2m1 0h3m2 0h2m3 0h1m3 0h3m2 0h1m1 0h2m2 0h2m4 0h5m2 0h2m1 0h1m2 0h1m1 0h1M4 26.5h1m1 0h1m2 0h11m7 0h1m1 0h3m2 0h3m3 0h2m1 0h1m3 0h1m1 0h3m1 0h2m4 0h1M6 27.5h1m8 0h1m1 0h2m1 0h3m1 0h1m3 0h2m2 0h1m1 0h1m4 0h1m1 0h4m1 0h1m1 0h1m1 0h2m1 0h6m1 0h1M8 28.5h4m1 0h1m1 0h2m1 0h4m2 0h2m1 0h1m1 0h2m3 0h3m3 0h1m1 0h1m4 0h1m6 0h1M4 29.5h2m2 0h2m4 0h1m1 0h1m2 0h5m1 0h1m1 0h3m3 0h2m1 0h2m2 0h2m3 0h4m2 0h3m2 0h2m1 0h2M4 30.5h1m1 0h8m2 0h2m2 0h1m2 0h1m1 0h1m1 0h2m1 0h7m1 0h1m1 0h1m1 0h1m6 0h2m1 0h7M4 31.5h1m2 0h2m3 0h1m1 0h3m2 0h2m2 0h8m3 0h1m1 0h2m3 0h4m1 0h1m1 0h1m1 0h1m1 0h1m3 0h3M4 32.5h1m3 0h1m1 0h1m1 0h2m2 0h2m1 0h1m3 0h2m3 0h1m1 0h1m1 0h1m1 0h1m4 0h4m2 0h3m1 0h4m1 0h1m1 0h1M4 33.5h1m1 0h3m3 0h2m1 0h4m2 0h3m1 0h1m1 0h2m1 0h1m3 0h4m2 0h2m2 0h3m1 0h1m2 0h2m3 0h1m2 0h2M5 34.5h1m1 0h6m4 0h2m3 0h1m1 0h13m2 0h4m1 0h1m4 0h2m1 0h5m1 0h2M4 35.5h3m1 0h2m1 0h2m2 0h1m1 0h3m1 0h4m1 0h2m1 0h1m2 0h2m1 0h3m2 0h1m2 0h3m2 0h1m1 0h2m2 0h2m2 0h1M5 36.5h4m1 0h1m2 0h1m1 0h1m2 0h2m3 0h2m1 0h3m2 0h2m1 0h2m1 0h3m2 0h1m4 0h1m2 0h1m3 0h3m2 0h2M4 37.5h2m3 0h1m1 0h4m1 0h1m1 0h4m6 0h1m4 0h1m1 0h1m1 0h1m3 0h1m2 0h2m1 0h2m3 0h3m3 0h3M5 38.5h1m1 0h1m2 0h3m4 0h4m1 0h1m2 0h6m1 0h3m1 0h4m1 0h2m1 0h1m1 0h1m1 0h1m1 0h4m3 0h2m1 0h1M4 39.5h5m3 0h1m1 0h2m2 0h4m1 0h2m1 0h1m1 0h1m3 0h1m2 0h2m4 0h2m1 0h3m1 0h3m3 0h1m2 0h2M6 40.5h1m1 0h1m1 0h2m2 0h1m1 0h1m2 0h1m1 0h2m1 0h1m6 0h1m2 0h2m1 0h4m1 0h1m2 0h3m6 0h4M5 41.5h3m1 0h1m1 0h3m1 0h1m3 0h1m1 0h2m1 0h5m1 0h1m1 0h1m1 0h3m3 0h1m2 0h4m6 0h1m6 0h1M6 42.5h1m1 0h3m3 0h3m1 0h1m1 0h2m4 0h1m1 0h1m2 0h6m1 0h2m2 0h2m4 0h4m1 0h1m2 0h4M4 43.5h1m1 0h1m1 0h1m6 0h2m2 0h1m4 0h1m2 0h1m2 0h1m1 0h1m3 0h1m4 0h3m1 0h1m2 0h4m2 0h3m1 0h3M4 44.5h2m1 0h1m1 0h2m2 0h2m2 0h1m2 0h1m1 0h2m1 0h3m1 0h1m1 0h3m1 0h1m1 0h1m1 0h2m1 0h1m1 0h1m1 0h2m2 0h1m5 0h1M4 45.5h4m1 0h1m4 0h1m1 0h1m4 0h1m2 0h1m1 0h3m1 0h1m2 0h1m1 0h1m3 0h6m1 0h2m4 0h3m4 0h2M9 46.5h5m4 0h3m4 0h1m1 0h8m1 0h5m3 0h1m3 0h5m5 0h2M4 47.5h2m3 0h1m1 0h1m1 0h1m3 0h2m1 0h3m3 0h1m3 0h2m1 0h1m1 0h1m2 0h2m1 0h1m1 0h2m3 0h2m1 0h4m2 0h2M4 48.5h4m2 0h1m3 0h1m1 0h2m3 0h2m2 0h2m2 0h1m1 0h2m1 0h1m5 0h3m3 0h2m2 0h1m1 0h1m3 0h2m1 0h1M6 49.5h1m6 0h1m1 0h3m1 0h1m1 0h2m1 0h5m1 0h1m2 0h3m3 0h3m3 0h4m2 0h4m3 0h3M4 50.5h1m1 0h1m2 0h9m4 0h2m4 0h4m2 0h1m2 0h1m1 0h1m2 0h1m1 0h1m2 0h7m1 0h1M4 51.5h5m5 0h1m2 0h1m1 0h1m2 0h2m1 0h1m1 0h4m1 0h3m1 0h1m1 0h2m3 0h6m2 0h1m2 0h1m2 0h3M10 52.5h2m3 0h1m3 0h1m1 0h1m2 0h2m4 0h6m1 0h4m4 0h1m1 0h1m4 0h6m1 0h2M12 53.5h2m2 0h1m4 0h1m2 0h3m1 0h3m3 0h1m1 0h1m1 0h3m3 0h4m3 0h2m3 0h3m1 0h1M4 54.5h7m2 0h2m1 0h2m4 0h1m2 0h1m2 0h3m1 0h1m1 0h4m3 0h2m1 0h1m4 0h2m1 0h1m1 0h1m1 0h1m2 0h1M4 55.5h1m5 0h1m1 0h2m3 0h4m4 0h4m1 0h1m3 0h1m1 0h1m1 0h3m3 0h1m1 0h1m1 0h2m1 0h2m3 0h5M4 56.5h1m1 0h3m1 0h1m1 0h3m1 0h3m1 0h2m1 0h2m1 0h1m1 0h8m1 0h2m1 0h1m1 0h2m1 0h2m3 0h1m1 0h5m2 0h2M4 57.5h1m1 0h3m1 0h1m1 0h1m2 0h1m2 0h1m2 0h2m1 0h2m1 0h1m2 0h1m1 0h1m1 0h1m4 0h3m2 0h1m1 0h2m5 0h1m1 0h4M4 58.5h1m1 0h3m1 0h1m1 0h2m2 0h1m6 0h2m1 0h1m4 0h1m4 0h3m1 0h1m1 0h1m1 0h3m2 0h4m2 0h1m2 0h1M4 59.5h1m5 0h1m2 0h2m1 0h3m1 0h3m4 0h1m1 0h1m3 0h2m1 0h2m3 0h1m1 0h3m2 0h1m3 0h1m2 0h4M4 60.5h7m1 0h1m1 0h2m1 0h1m1 0h1m1 0h1m1 0h1m1 0h2m2 0h1m5 0h1m2 0h3m1 0h1m2 0h3m2 0h2m1 0h2m1 0h1m2 0h1"/>
    </g>
    <text x="98" y="186" text-anchor="middle" fill="#050606" font-family="Arial Black, Impact, sans-serif" font-size="26" letter-spacing="3">SCAN</text>
  </g>
</svg>
