<svg xmlns="http://www.w3.org/2000/svg" viewBox="0 0 2550 3300" role="img" aria-labelledby="title desc">
  <title id="title">Drop 001 Signal Seen Confluence SINGLE STICKER / NO QR</title>
  <desc id="desc">A letter-size printable page with one Drop 001 poster sticker. Poster art is inlined for GitHub-safe rendering.</desc>
  <defs>
    <clipPath id="single-poster">
      <rect width="1640" height="2050" rx="44"/>
    </clipPath>
    <g id="single-frame">
      <rect x="-48" y="-48" width="1736" height="2146" rx="74" fill="#F6F0E4"/>
      <rect x="-48" y="-48" width="1736" height="2146" rx="74" fill="none" stroke="#050606" stroke-width="18"/>
    </g>
    <g id="single-frame-qr">
      <rect x="-48" y="-48" width="1736" height="2506" rx="74" fill="#F6F0E4"/>
      <rect x="-48" y="-48" width="1736" height="2506" rx="74" fill="none" stroke="#050606" stroke-width="18"/>
    </g>
  </defs>
  <rect width="2550" height="3300" fill="#F6F0E4"/>
  <text x="150" y="194" fill="#050606" font-family="Arial Black, Impact, sans-serif" font-size="74" letter-spacing="5">DROP 001 / SINGLE STICKER / NO QR</text>
  <text x="150" y="278" fill="#9D4732" font-family="Arial Black, Impact, sans-serif" font-size="34" letter-spacing="5">SIGNAL SEEN CONFLUENCE</text>

  <g transform="translate(455 570)">
    <use href="#single-frame"/>
    <g clip-path="url(#single-poster)">
      <g transform="matrix(1.518519 0 0 1.518519 0.000000 0.000000)">
        <rect width="1080" height="1350" fill="#050606"/>
          <rect x="54" y="54" width="972" height="1242" fill="#061620"/>
          <path d="M0 894 C220 786 350 810 540 902 S870 1006 1080 882" fill="none" stroke="#4F8A74" stroke-width="58"/>
          <path d="M0 972 C220 864 350 888 540 980 S870 1084 1080 960" fill="none" stroke="#E8DDC7" stroke-width="20"/>
          <path d="M540 54 V1296" stroke="#F4B037" stroke-width="10"/>
          <path d="M54 656 H1026" stroke="#F4B037" stroke-width="10"/>
          <g transform="translate(540 656)">
            <circle r="198" fill="#E8DDC7"/>
            <circle r="152" fill="#061620"/>
            <circle r="78" fill="none" stroke="#E8DDC7" stroke-width="26"/>
            <circle r="40" fill="#F4B037"/>
          </g>
          <rect x="54" y="54" width="972" height="116" fill="#F4B037"/>
          <text x="92" y="126" fill="#050606" font-family="Arial Black, Impact, sans-serif" font-size="38" letter-spacing="5">FIELD NOTICE / 002</text>
          <text x="92" y="314" fill="#E8DDC7" font-family="Impact, Arial Black, sans-serif" font-size="132">SIGNAL</text>
          <text x="92" y="442" fill="#E8DDC7" font-family="Impact, Arial Black, sans-serif" font-size="132">SEEN</text>
          <text x="92" y="1150" fill="#F4B037" font-family="Impact, Arial Black, sans-serif" font-size="118">CONFLUENCE</text>
          <text x="92" y="1216" fill="#E8DDC7" font-family="Arial Black, Impact, sans-serif" font-size="28" letter-spacing="4">SCIOTO + OLENTANGY</text>
          <text x="540" y="1332" text-anchor="middle" fill="#E8DDC7" font-family="Arial Black, Impact, sans-serif" font-size="19" letter-spacing="2">neocolumbus.github.io/Project-Columbus/site/signal</text>
      </g>
    </g>
  </g>

  <text x="150" y="3148" fill="#050606" font-family="Arial Black, Impact, sans-serif" font-size="40" letter-spacing="5">PRINT ONE PAGE / CUT ONE BIG STICKER / TEST EVERY SCAN</text>
</svg>
