<svg xmlns="http://www.w3.org/2000/svg" viewBox="0 0 2550 3300" role="img" aria-labelledby="title desc">
  <title id="title">Drop 001 Report A Dead Wall SINGLE STICKER / NO QR</title>
  <desc id="desc">A letter-size printable page with one Drop 001 poster sticker. Poster art is inlined for GitHub-safe rendering.</desc>
  <defs>
    <clipPath id="single-poster">
      <rect width="1640" height="2050" rx="44"/>
    </clipPath>
    <g id="single-frame">
      <rect x="-48" y="-48" width="1736" height="2146" rx="74" fill="#F6F0E4"/>
      <rect x="-48" y="-48" width="1736" height="2146" rx="74" fill="none" stroke="#050606" stroke-width="18"/>
    </g>
    <g id="single-frame-qr">
      <rect x="-48" y="-48" width="1736" height="2506" rx="74" fill="#F6F0E4"/>
      <rect x="-48" y="-48" width="1736" height="2506" rx="74" fill="none" stroke="#050606" stroke-width="18"/>
    </g>
  </defs>
  <rect width="2550" height="3300" fill="#F6F0E4"/>
  <text x="150" y="194" fill="#050606" font-family="Arial Black, Impact, sans-serif" font-size="74" letter-spacing="5">DROP 001 / SINGLE STICKER / NO QR</text>
  <text x="150" y="278" fill="#9D4732" font-family="Arial Black, Impact, sans-serif" font-size="34" letter-spacing="5">REPORT A DEAD WALL</text>

  <g transform="translate(455 570)">
    <use href="#single-frame"/>
    <g clip-path="url(#single-poster)">
      <g transform="matrix(1.518519 0 0 1.518519 0.000000 0.000000)">
        <rect width="1080" height="1350" fill="#E8DDC7"/>
          <rect x="58" y="58" width="964" height="1234" fill="#050606"/>
          <g fill="#9D4732">
            <rect x="94" y="94" width="132" height="86"/>
            <rect x="246" y="94" width="190" height="86"/>
            <rect x="456" y="94" width="142" height="86"/>
            <rect x="618" y="94" width="242" height="86"/>
            <rect x="880" y="94" width="106" height="86"/>
            <rect x="94" y="206" width="230" height="86"/>
            <rect x="344" y="206" width="134" height="86"/>
            <rect x="498" y="206" width="252" height="86"/>
            <rect x="770" y="206" width="216" height="86"/>
          </g>
          <path d="M706 422 L872 594 L810 706 L938 858 L884 982 L962 1106" fill="none" stroke="#F4B037" stroke-width="30" stroke-linecap="square"/>
          <path d="M94 382 H986" stroke="#E8DDC7" stroke-width="14"/>
          <path d="M700 348 V1128" stroke="#E8DDC7" stroke-width="8"/>
          <circle cx="700" cy="698" r="92" fill="#E8DDC7"/>
          <circle cx="700" cy="698" r="60" fill="#050606"/>
          <circle cx="700" cy="698" r="28" fill="#F4B037"/>
          <text x="90" y="528" fill="#E8DDC7" font-family="Impact, Arial Black, sans-serif" font-size="140">REPORT</text>
          <text x="90" y="874" fill="#F4B037" font-family="Impact, Arial Black, sans-serif" font-size="180">A DEAD</text>
          <text x="90" y="1042" fill="#E8DDC7" font-family="Impact, Arial Black, sans-serif" font-size="180">WALL</text>
          <rect x="58" y="1216" width="964" height="76" fill="#F4B037"/>
          <text x="90" y="1268" fill="#050606" font-family="Arial Black, Impact, sans-serif" font-size="30" letter-spacing="4">DENSITY DESERVES BEAUTY / DROP 001</text>
      </g>
    </g>
  </g>

  <text x="150" y="3148" fill="#050606" font-family="Arial Black, Impact, sans-serif" font-size="40" letter-spacing="5">PRINT ONE PAGE / CUT ONE BIG STICKER / TEST EVERY SCAN</text>
</svg>
