<svg xmlns="http://www.w3.org/2000/svg" viewBox="0 0 2550 3300" role="img" aria-labelledby="title desc">
  <title id="title">Drop 001 Earthworks Were First Printer Ready Sticker</title>
  <desc id="desc">An 8 by 10 inch sticker centered on a letter-size page with a distinct QR code linking to https://neocolumbus.github.io/Project-Columbus/site/signal/?drop=001&amp;source=sticker-001&amp;kind=Neighborhood&amp;break=The+old+center+is+treated+like+a+blank+growth+market.&amp;line=The+earthworks+were+first.&amp;asset=001-earthworks-were-first-sticker#field-card.</desc>
  <defs>
    <clipPath id="single-poster">
      <rect width="1080" height="1350"/>
    </clipPath>
  </defs>
  <rect width="2550" height="3300" fill="#FFFFFF"/>
  <g transform="translate(75 150) scale(2.222222)">
    <g clip-path="url(#single-poster)">
      <g transform="matrix(1.000000 0 0 1.000000 0.000000 0.000000)">
        <rect width="1080" height="1350" fill="#E8DDC7"/>
          <rect x="58" y="58" width="964" height="1234" fill="#061620"/>
          <rect x="58" y="58" width="964" height="98" fill="#9D4732"/>
          <text x="92" y="121" fill="#E8DDC7" font-family="Arial Black, Impact, sans-serif" font-size="34" letter-spacing="5">DROP 001 / SECOND GEOMETRY</text>
          <g transform="translate(540 356)">
            <circle r="178" fill="#E8DDC7"/>
            <circle r="136" fill="#061620"/>
            <rect x="-258" y="-13" width="516" height="26" fill="#E8DDC7"/>
            <rect x="-13" y="-178" width="26" height="356" fill="#E8DDC7"/>
            <rect x="-258" y="-4" width="516" height="8" fill="#B77836"/>
            <rect x="-4" y="-178" width="8" height="356" fill="#B77836"/>
            <circle r="72" fill="none" stroke="#E8DDC7" stroke-width="23"/>
            <circle r="36" fill="#F4B037"/>
          </g>
          <text x="92" y="725" fill="#F4B037" font-family="Impact, Arial Black, sans-serif" font-size="150">THE</text>
          <text x="92" y="875" fill="#E8DDC7" font-family="Impact, Arial Black, sans-serif" font-size="144">EARTHWORKS</text>
          <text x="92" y="1025" fill="#E8DDC7" font-family="Impact, Arial Black, sans-serif" font-size="150">WERE</text>
          <text x="92" y="1176" fill="#F4B037" font-family="Impact, Arial Black, sans-serif" font-size="150">FIRST</text>
          <rect x="58" y="1216" width="964" height="76" fill="#F4B037"/>
          <text x="92" y="1266" fill="#050606" font-family="Arial Black, Impact, sans-serif" font-size="28" letter-spacing="3">THE NEXT CITY IS US / PROJECT-COLUMBUS</text>
          <text x="540" y="1318" text-anchor="middle" fill="#061620" font-family="Arial Black, Impact, sans-serif" font-size="17" letter-spacing="2">HOPEWELL CEREMONIAL EARTHWORKS / RAISED TWO THOUSAND YEARS BACK</text>
          <text x="540" y="1340" text-anchor="middle" fill="#061620" font-family="Arial Black, Impact, sans-serif" font-size="17" letter-spacing="2">neocolumbus.github.io/Project-Columbus/site/signal</text>
      </g>
    </g>
    <g transform="translate(796 1008)">
      <rect width="196" height="196" fill="#F6F0E4" stroke="#050606" stroke-width="8"/>
      <g transform="translate(18 14) scale(2.318841)" shape-rendering="crispEdges">
        <rect width="69" height="69" fill="#F6F0E4"/>
        <path stroke="#050606" d="M4 4.5h7m3 0h1m2 0h1m2 0h1m1 0h3m1 0h1m3 0h1m2 0h1m2 0h1m2 0h1m1 0h1m1 0h4m6 0h1m1 0h2m1 0h7M4 5.5h1m5 0h1m4 0h1m3 0h1m1 0h1m6 0h3m1 0h4m2 0h1m2 0h3m3 0h1m1 0h4m2 0h2m1 0h1m5 0h1M4 6.5h1m1 0h3m1 0h1m1 0h1m1 0h4m4 0h1m1 0h6m1 0h1m1 0h3m1 0h2m2 0h1m1 0h4m1 0h3m3 0h3m1 0h1m1 0h3m1 0h1M4 7.5h1m1 0h3m1 0h1m1 0h1m1 0h2m2 0h2m2 0h1m1 0h1m2 0h1m1 0h1m2 0h1m1 0h1m1 0h1m1 0h3m4 0h3m2 0h1m1 0h3m1 0h1m1 0h1m1 0h3m1 0h1M4 8.5h1m1 0h3m1 0h1m1 0h1m1 0h5m2 0h1m1 0h1m6 0h1m1 0h5m2 0h2m3 0h1m1 0h3m2 0h5m2 0h1m1 0h3m1 0h1M4 9.5h1m5 0h1m1 0h3m2 0h1m2 0h2m1 0h1m1 0h3m1 0h4m3 0h5m1 0h3m5 0h5m3 0h1m5 0h1M4 10.5h7m1 0h1m1 0h1m1 0h1m1 0h1m1 0h1m1 0h1m1 0h1m1 0h1m1 0h1m1 0h1m1 0h1m1 0h1m1 0h1m1 0h1m1 0h1m1 0h1m1 0h1m1 0h1m1 0h1m1 0h1m1 0h1m1 0h1m1 0h1m1 0h7M12 11.5h1m1 0h3m1 0h5m4 0h1m1 0h1m1 0h2m3 0h1m1 0h2m1 0h2m1 0h3m1 0h1m2 0h1m1 0h3M4 12.5h1m1 0h5m2 0h2m1 0h1m2 0h2m1 0h3m2 0h1m1 0h1m2 0h5m1 0h3m1 0h1m2 0h1m1 0h1m4 0h1m1 0h1m1 0h1m1 0h5M4 13.5h1m2 0h3m3 0h1m1 0h1m1 0h1m4 0h1m2 0h1m5 0h1m1 0h2m1 0h1m2 0h3m3 0h4m3 0h2m3 0h3m1 0h3M4 14.5h1m4 0h3m2 0h2m2 0h2m1 0h1m1 0h6m2 0h2m2 0h1m1 0h4m1 0h1m1 0h1m4 0h2m1 0h1m1 0h1m5 0h1m1 0h3M4 15.5h1m1 0h1m2 0h1m1 0h1m1 0h2m1 0h3m1 0h3m1 0h1m2 0h3m3 0h2m1 0h2m5 0h3m2 0h1m1 0h2m1 0h3m1 0h4m2 0h1M4 16.5h1m2 0h4m2 0h1m5 0h2m2 0h3m2 0h1m3 0h1m4 0h7m1 0h1m1 0h1m3 0h6m1 0h2m1 0h3M7 17.5h2m4 0h1m3 0h3m3 0h1m1 0h4m1 0h4m2 0h2m3 0h1m1 0h4m1 0h2m2 0h1m5 0h1m4 0h1M4 18.5h2m1 0h10m1 0h1m1 0h2m2 0h2m2 0h1m3 0h1m1 0h2m1 0h2m1 0h4m1 0h1m1 0h2m1 0h2m1 0h2m8 0h2M5 19.5h2m2 0h1m1 0h1m3 0h4m2 0h4m2 0h1m1 0h3m1 0h5m4 0h1m1 0h3m1 0h3m6 0h4m2 0h2M4 20.5h3m1 0h1m1 0h1m1 0h1m1 0h2m2 0h1m3 0h2m2 0h1m2 0h1m1 0h1m4 0h1m2 0h3m3 0h3m2 0h4m1 0h2m1 0h1m3 0h1M12 21.5h1m4 0h2m1 0h3m2 0h2m1 0h3m2 0h2m1 0h1m2 0h1m1 0h1m2 0h3m1 0h1m4 0h1m1 0h1m1 0h2m2 0h1M4 22.5h4m1 0h2m3 0h1m1 0h1m4 0h1m1 0h2m2 0h1m3 0h4m3 0h1m1 0h4m5 0h2m1 0h1m1 0h2m5 0h2m1 0h1M6 23.5h1m5 0h1m1 0h3m5 0h1m2 0h2m1 0h2m4 0h2m1 0h1m3 0h1m2 0h1m2 0h1m2 0h1m5 0h1m1 0h3M4 24.5h1m3 0h1m1 0h1m1 0h1m1 0h1m1 0h2m3 0h1m1 0h3m2 0h2m8 0h3m5 0h2m1 0h1m2 0h1m1 0h6m1 0h2M5 25.5h2m1 0h1m2 0h3m1 0h1m1 0h3m1 0h1m1 0h3m2 0h3m2 0h2m1 0h2m3 0h1m3 0h3m5 0h1m4 0h3M4 26.5h1m1 0h1m1 0h9m2 0h1m3 0h1m2 0h3m2 0h4m2 0h2m1 0h1m1 0h2m3 0h5m2 0h1m1 0h1m2 0h1m1 0h1m1 0h2M4 27.5h6m2 0h2m1 0h2m2 0h2m1 0h1m1 0h2m4 0h1m2 0h2m6 0h5m2 0h2m3 0h1m2 0h1m1 0h1m1 0h1m2 0h1M4 28.5h3m3 0h1m1 0h1m4 0h1m1 0h1m1 0h6m1 0h2m5 0h1m3 0h3m1 0h1m1 0h3m2 0h3m3 0h2m1 0h1m1 0h2m1 0h1M4 29.5h2m1 0h1m3 0h2m5 0h1m1 0h1m1 0h6m1 0h2m1 0h1m1 0h1m1 0h1m4 0h1m1 0h7m2 0h2m4 0h4M4 30.5h1m1 0h1m1 0h3m1 0h1m1 0h1m2 0h1m2 0h2m1 0h2m1 0h1m2 0h2m1 0h2m1 0h1m2 0h1m1 0h4m4 0h3m3 0h1m2 0h1m1 0h4m1 0h1M5 31.5h4m2 0h9m1 0h2m2 0h3m2 0h1m2 0h2m1 0h3m3 0h1m1 0h1m2 0h2m1 0h2m1 0h1m1 0h1m1 0h2m1 0h1m2 0h1M5 32.5h1m2 0h5m2 0h2m2 0h1m3 0h3m1 0h1m1 0h1m2 0h10m1 0h1m1 0h3m3 0h3m1 0h8M8 33.5h1m3 0h1m1 0h2m1 0h3m3 0h3m1 0h2m1 0h3m3 0h1m2 0h1m1 0h1m3 0h2m1 0h1m2 0h1m1 0h1m2 0h1m3 0h1M5 34.5h1m2 0h1m1 0h1m1 0h1m3 0h13m1 0h3m1 0h1m1 0h3m3 0h1m2 0h1m1 0h1m1 0h3m2 0h1m1 0h1m1 0h1m1 0h1m1 0h3M4 35.5h2m1 0h2m3 0h3m2 0h1m2 0h1m2 0h1m4 0h3m1 0h1m3 0h1m1 0h2m1 0h1m1 0h4m1 0h2m3 0h4m3 0h1M5 36.5h10m1 0h2m1 0h1m2 0h3m4 0h1m1 0h6m2 0h2m4 0h2m2 0h1m1 0h4m1 0h5m1 0h1m1 0h1M4 37.5h1m1 0h3m3 0h2m1 0h1m3 0h2m6 0h2m1 0h1m4 0h1m1 0h1m2 0h2m3 0h5m1 0h1m1 0h1m1 0h3m1 0h1M4 38.5h1m2 0h1m2 0h4m2 0h1m1 0h4m1 0h2m2 0h3m1 0h2m2 0h2m1 0h1m1 0h1m1 0h1m2 0h1m4 0h2m2 0h1m2 0h5m1 0h2M5 39.5h2m2 0h1m1 0h1m1 0h1m1 0h1m2 0h3m1 0h3m1 0h1m1 0h1m2 0h3m1 0h1m8 0h2m1 0h2m1 0h2m2 0h1m1 0h1m4 0h1m1 0h1M6 40.5h1m1 0h1m1 0h2m1 0h1m2 0h2m1 0h2m1 0h1m2 0h1m5 0h1m1 0h3m1 0h1m1 0h4m4 0h1m2 0h6m1 0h4m1 0h1m1 0h1M4 41.5h1m1 0h2m1 0h1m1 0h3m1 0h5m1 0h2m2 0h1m1 0h2m1 0h1m1 0h1m2 0h1m3 0h2m2 0h5m3 0h1m7 0h1m1 0h3M4 42.5h1m1 0h1m1 0h1m1 0h1m1 0h2m4 0h1m1 0h1m2 0h1m1 0h1m1 0h1m3 0h1m4 0h3m3 0h2m1 0h1m1 0h1m1 0h3m1 0h3m1 0h2m2 0h1m1 0h1M5 43.5h1m3 0h1m1 0h4m2 0h2m1 0h3m4 0h2m1 0h1m1 0h3m2 0h3m2 0h9m3 0h1m1 0h1m2 0h1m4 0h1M5 44.5h2m1 0h3m1 0h2m2 0h1m2 0h3m1 0h1m2 0h1m1 0h2m2 0h3m3 0h3m4 0h2m5 0h5m2 0h2m1 0h1m1 0h1M5 45.5h1m1 0h3m1 0h6m2 0h2m1 0h5m1 0h1m1 0h1m1 0h1m2 0h1m3 0h1m1 0h1m4 0h2m4 0h2m1 0h1m2 0h1m4 0h1M4 46.5h1m1 0h1m1 0h6m3 0h2m1 0h2m2 0h2m3 0h1m1 0h1m3 0h2m1 0h2m1 0h2m4 0h1m1 0h4m1 0h2m2 0h1m4 0h2M5 47.5h3m1 0h1m2 0h1m2 0h2m3 0h1m1 0h1m3 0h1m1 0h2m1 0h3m3 0h1m1 0h1m4 0h3m1 0h1m1 0h1m3 0h1m6 0h1m1 0h1M7 48.5h2m1 0h1m5 0h2m2 0h4m1 0h2m2 0h1m3 0h2m2 0h6m8 0h2m2 0h3m1 0h4m1 0h1M4 49.5h1m4 0h1m2 0h2m3 0h1m2 0h1m2 0h1m3 0h4m6 0h1m2 0h2m3 0h2m5 0h2m2 0h4m1 0h2M5 50.5h1m2 0h1m1 0h2m4 0h1m6 0h2m1 0h1m2 0h1m1 0h1m1 0h1m1 0h8m4 0h1m2 0h5m2 0h5m1 0h2M4 51.5h2m5 0h4m2 0h3m1 0h1m1 0h2m1 0h4m1 0h2m1 0h2m5 0h6m1 0h2m3 0h2m1 0h1m2 0h2M4 52.5h1m3 0h1m1 0h3m2 0h1m5 0h1m1 0h3m3 0h1m1 0h1m1 0h4m2 0h4m3 0h1m2 0h8m3 0h4M5 53.5h1m1 0h3m1 0h1m1 0h7m2 0h1m4 0h2m1 0h1m1 0h1m6 0h1m4 0h4m5 0h1m1 0h2m2 0h1m1 0h1M6 54.5h12m1 0h1m1 0h4m3 0h1m2 0h1m1 0h1m2 0h3m1 0h1m1 0h2m6 0h1m1 0h1m1 0h2m2 0h7M4 55.5h3m1 0h1m5 0h1m4 0h1m4 0h4m2 0h1m1 0h2m1 0h1m1 0h1m1 0h2m1 0h1m1 0h1m1 0h4m3 0h1m2 0h1m2 0h2m3 0h1M4 56.5h4m2 0h7m2 0h1m2 0h1m6 0h1m1 0h7m1 0h3m5 0h1m1 0h1m1 0h2m2 0h8M12 57.5h1m1 0h1m3 0h2m2 0h1m3 0h3m1 0h3m3 0h2m1 0h1m1 0h1m1 0h1m1 0h3m1 0h1m1 0h1m1 0h1m2 0h1m3 0h1m1 0h2M4 58.5h7m3 0h1m3 0h3m1 0h1m1 0h1m1 0h5m1 0h1m1 0h1m1 0h1m1 0h2m2 0h3m2 0h1m2 0h1m1 0h3m1 0h1m1 0h1m1 0h1m2 0h2M4 59.5h1m5 0h1m1 0h1m6 0h4m1 0h1m1 0h1m3 0h1m1 0h1m3 0h1m5 0h1m1 0h3m1 0h1m1 0h1m2 0h4m3 0h2m1 0h1M4 60.5h1m1 0h3m1 0h1m1 0h2m1 0h1m1 0h1m4 0h2m1 0h2m4 0h6m2 0h4m3 0h2m1 0h1m1 0h3m2 0h5m1 0h2M4 61.5h1m1 0h3m1 0h1m1 0h1m2 0h1m2 0h4m2 0h1m3 0h1m1 0h1m1 0h5m3 0h2m3 0h4m2 0h1m1 0h1m2 0h2m1 0h2m3 0h1M4 62.5h1m1 0h3m1 0h1m1 0h3m1 0h2m2 0h3m3 0h2m1 0h1m1 0h2m4 0h8m2 0h1m1 0h5m5 0h1m1 0h1m2 0h1M4 63.5h1m5 0h1m2 0h4m1 0h1m3 0h2m4 0h1m2 0h2m3 0h1m4 0h1m1 0h2m3 0h1m1 0h2m1 0h1m1 0h6m3 0h1M4 64.5h7m1 0h3m2 0h2m5 0h2m7 0h3m2 0h5m2 0h1m1 0h1m1 0h5m1 0h1m3 0h2m1 0h3"/>
      </g>
      <text x="98" y="186" text-anchor="middle" fill="#050606" font-family="Arial Black, Impact, sans-serif" font-size="26" letter-spacing="3">SCAN</text>
    </g>
  </g>
</svg>
