<svg xmlns="http://www.w3.org/2000/svg" viewBox="0 0 2550 3300" role="img" aria-labelledby="title desc">
  <title id="title">Drop 001 Center Was Here Before Printer Ready Sticker</title>
  <desc id="desc">An 8 by 10 inch sticker centered on a letter-size page with a distinct QR code linking to https://neocolumbus.github.io/Project-Columbus/site/signal/?drop=001&amp;source=sticker-003&amp;kind=Neighborhood&amp;break=The+center+is+treated+like+branding+instead+of+public+ground.&amp;line=The+center+was+here+before+the+seal.&amp;asset=003-center-before-seal-sticker#field-card.</desc>
  <defs>
    <clipPath id="single-poster">
      <rect width="1080" height="1350"/>
    </clipPath>
  </defs>
  <rect width="2550" height="3300" fill="#FFFFFF"/>
  <g transform="translate(75 150) scale(2.222222)">
    <g clip-path="url(#single-poster)">
      <g transform="matrix(1.000000 0 0 1.000000 0.000000 0.000000)">
        <rect width="1080" height="1350" fill="#9D4732"/>
          <rect x="66" y="66" width="948" height="1218" fill="#E8DDC7"/>
          <rect x="66" y="66" width="948" height="168" fill="#061620"/>
          <text x="100" y="138" fill="#F4B037" font-family="Arial Black, Impact, sans-serif" font-size="32" letter-spacing="5">EVIDENCE 003 / CITY CENTER</text>
          <text x="100" y="204" fill="#E8DDC7" font-family="Arial Black, Impact, sans-serif" font-size="26" letter-spacing="4">NOT A SEAL. A SIGNAL.</text>
          <g transform="translate(540 454)">
            <rect x="-342" y="-15" width="684" height="30" fill="#061620"/>
            <rect x="-15" y="-282" width="30" height="560" fill="#061620"/>
            <circle r="190" fill="#E8DDC7" stroke="#061620" stroke-width="26"/>
            <circle r="132" fill="#061620"/>
            <circle r="64" fill="none" stroke="#E8DDC7" stroke-width="22"/>
            <circle r="38" fill="#F4B037"/>
          </g>
          <text x="98" y="850" fill="#050606" font-family="Impact, Arial Black, sans-serif" font-size="104">THE CENTER</text>
          <text x="98" y="960" fill="#050606" font-family="Impact, Arial Black, sans-serif" font-size="104">WAS HERE</text>
          <text x="98" y="1070" fill="#050606" font-family="Impact, Arial Black, sans-serif" font-size="104">BEFORE</text>
          <text x="98" y="1180" fill="#9D4732" font-family="Impact, Arial Black, sans-serif" font-size="104">THE SEAL</text>
          <rect x="66" y="1218" width="948" height="66" fill="#061620"/>
          <text x="540" y="1332" text-anchor="middle" fill="#E8DDC7" font-family="Arial Black, Impact, sans-serif" font-size="19" letter-spacing="2">neocolumbus.github.io/Project-Columbus/site/signal</text>
      </g>
    </g>
    <g transform="translate(796 1008)">
      <rect width="196" height="196" fill="#F6F0E4" stroke="#050606" stroke-width="8"/>
      <g transform="translate(18 14) scale(2.191781)" shape-rendering="crispEdges">
        <rect width="73" height="73" fill="#F6F0E4"/>
        <path stroke="#050606" d="M4 4.5h7m2 0h1m1 0h1m1 0h1m1 0h6m1 0h3m1 0h1m2 0h3m2 0h1m2 0h5m2 0h1m1 0h1m2 0h1m3 0h1m1 0h1m2 0h7M4 5.5h1m5 0h1m2 0h3m1 0h4m1 0h2m3 0h2m2 0h1m4 0h2m1 0h1m4 0h1m1 0h4m1 0h1m1 0h3m1 0h1m2 0h1m1 0h1m5 0h1M4 6.5h1m1 0h3m1 0h1m1 0h3m2 0h1m1 0h4m1 0h1m1 0h2m1 0h1m4 0h2m3 0h1m1 0h1m1 0h2m1 0h1m1 0h1m1 0h1m2 0h2m1 0h1m1 0h1m1 0h1m1 0h1m1 0h3m1 0h1M4 7.5h1m1 0h3m1 0h1m1 0h1m1 0h1m1 0h1m2 0h1m1 0h2m2 0h4m2 0h2m1 0h1m4 0h4m7 0h3m1 0h2m2 0h2m2 0h1m1 0h3m1 0h1M4 8.5h1m1 0h3m1 0h1m1 0h1m2 0h1m1 0h1m3 0h3m3 0h3m4 0h8m1 0h4m1 0h1m2 0h3m1 0h1m1 0h1m2 0h1m1 0h1m1 0h3m1 0h1M4 9.5h1m5 0h1m1 0h2m2 0h3m1 0h1m1 0h2m3 0h1m4 0h1m1 0h1m3 0h2m2 0h1m2 0h1m3 0h4m1 0h2m1 0h2m3 0h1m5 0h1M4 10.5h7m1 0h1m1 0h1m1 0h1m1 0h1m1 0h1m1 0h1m1 0h1m1 0h1m1 0h1m1 0h1m1 0h1m1 0h1m1 0h1m1 0h1m1 0h1m1 0h1m1 0h1m1 0h1m1 0h1m1 0h1m1 0h1m1 0h1m1 0h1m1 0h1m1 0h1m1 0h7M12 11.5h3m1 0h5m1 0h2m1 0h4m1 0h2m1 0h2m3 0h1m4 0h2m1 0h6m1 0h1m2 0h2M4 12.5h1m1 0h5m3 0h1m1 0h2m3 0h4m1 0h1m2 0h1m1 0h11m3 0h1m1 0h1m3 0h3m4 0h1m1 0h1m1 0h5M5 13.5h1m1 0h1m5 0h1m1 0h3m2 0h2m3 0h2m1 0h1m1 0h1m2 0h1m1 0h1m5 0h1m1 0h5m3 0h3m3 0h3m5 0h2m1 0h1M5 14.5h1m1 0h1m2 0h1m1 0h1m4 0h1m1 0h2m1 0h2m1 0h1m1 0h1m3 0h1m1 0h1m3 0h2m1 0h1m1 0h2m3 0h1m2 0h1m1 0h3m2 0h1m3 0h4m2 0h1M4 15.5h2m2 0h1m3 0h1m3 0h2m4 0h4m3 0h1m2 0h3m1 0h1m4 0h4m2 0h3m4 0h3m1 0h3m2 0h1M6 16.5h1m1 0h5m1 0h1m5 0h2m3 0h1m1 0h2m2 0h3m1 0h1m1 0h1m1 0h3m3 0h1m1 0h1m1 0h1m1 0h4m2 0h1m1 0h3m1 0h2m1 0h1M4 17.5h3m1 0h1m2 0h3m1 0h1m2 0h1m1 0h1m1 0h3m2 0h1m2 0h1m4 0h1m5 0h1m3 0h2m2 0h1m1 0h1m1 0h1m1 0h1m1 0h3m3 0h3m1 0h2M5 18.5h2m2 0h5m2 0h1m1 0h2m3 0h1m2 0h1m1 0h3m1 0h3m3 0h1m1 0h1m2 0h2m5 0h1m3 0h1m2 0h1m1 0h1m2 0h1m1 0h2M5 19.5h1m3 0h1m1 0h2m2 0h2m1 0h5m1 0h2m2 0h7m1 0h1m4 0h1m1 0h2m1 0h3m6 0h5m2 0h1m2 0h1M6 20.5h1m3 0h1m2 0h4m1 0h2m4 0h2m3 0h1m1 0h2m2 0h1m2 0h4m3 0h1m1 0h1m3 0h4m3 0h1m1 0h1m2 0h5M4 21.5h1m1 0h3m9 0h1m3 0h2m2 0h1m3 0h1m2 0h2m4 0h3m1 0h2m1 0h2m4 0h2m2 0h4m4 0h1m1 0h3M4 22.5h3m1 0h6m1 0h2m5 0h1m1 0h1m2 0h1m4 0h1m1 0h2m1 0h4m1 0h2m4 0h1m1 0h3m1 0h3m2 0h3m3 0h1M5 23.5h1m1 0h1m4 0h2m2 0h2m1 0h1m1 0h1m3 0h4m1 0h1m1 0h1m1 0h1m1 0h1m7 0h3m1 0h1m1 0h2m1 0h1m1 0h2m4 0h1m5 0h2M5 24.5h7m1 0h1m5 0h1m1 0h5m2 0h2m2 0h1m2 0h1m1 0h1m1 0h5m1 0h3m2 0h1m1 0h2m3 0h2m1 0h1m1 0h3m1 0h1M4 25.5h3m4 0h1m3 0h2m1 0h2m1 0h2m1 0h1m3 0h4m4 0h2m1 0h2m2 0h1m1 0h2m1 0h1m2 0h3m2 0h4m3 0h3m1 0h2M4 26.5h1m2 0h2m1 0h3m3 0h3m3 0h2m3 0h1m2 0h2m2 0h5m3 0h1m4 0h1m1 0h3m2 0h2m3 0h4m2 0h1M6 27.5h1m1 0h1m5 0h2m1 0h3m1 0h7m1 0h1m1 0h1m1 0h2m1 0h1m1 0h1m2 0h1m1 0h2m1 0h4m6 0h3m1 0h2m3 0h1m2 0h1M4 28.5h1m1 0h1m1 0h1m1 0h3m2 0h5m1 0h2m2 0h1m2 0h2m2 0h1m2 0h1m2 0h4m5 0h1m2 0h3m1 0h1m2 0h3m3 0h2m1 0h2M5 29.5h3m1 0h1m1 0h1m1 0h2m2 0h1m6 0h3m1 0h1m1 0h1m2 0h1m5 0h1m1 0h1m1 0h7m1 0h1m3 0h5m3 0h6M6 30.5h5m1 0h1m2 0h2m1 0h1m1 0h1m2 0h1m2 0h1m1 0h2m1 0h1m2 0h3m1 0h2m2 0h1m1 0h1m2 0h4m1 0h1m1 0h2m3 0h1m1 0h6M4 31.5h1m2 0h2m2 0h5m4 0h3m1 0h6m1 0h1m2 0h1m1 0h1m2 0h1m1 0h5m2 0h1m1 0h1m4 0h6m1 0h1m2 0h1m1 0h2M5 32.5h1m1 0h1m1 0h4m4 0h1m2 0h1m2 0h2m1 0h1m1 0h2m1 0h1m3 0h1m3 0h4m2 0h3m1 0h6m3 0h11M5 33.5h1m3 0h1m4 0h4m1 0h3m1 0h1m1 0h3m2 0h1m1 0h2m2 0h2m2 0h2m1 0h5m3 0h1m4 0h1m1 0h2m7 0h1M6 34.5h7m1 0h2m5 0h1m1 0h1m1 0h1m4 0h9m2 0h2m1 0h1m2 0h2m1 0h1m1 0h1m1 0h1m1 0h2m1 0h6m1 0h2M5 35.5h2m1 0h1m3 0h1m1 0h1m1 0h5m2 0h4m2 0h1m2 0h1m1 0h1m3 0h3m5 0h2m1 0h1m2 0h1m2 0h4m1 0h1m3 0h2M8 36.5h1m1 0h1m1 0h1m1 0h4m2 0h2m3 0h3m1 0h1m2 0h3m1 0h1m1 0h1m1 0h2m1 0h1m1 0h2m5 0h1m1 0h1m3 0h3m1 0h1m1 0h4M6 37.5h3m3 0h3m1 0h1m2 0h1m4 0h3m1 0h1m1 0h1m2 0h2m3 0h3m5 0h2m1 0h1m3 0h1m2 0h1m1 0h3m3 0h5M4 38.5h1m1 0h1m1 0h6m1 0h2m4 0h3m1 0h3m1 0h2m1 0h1m1 0h5m1 0h2m1 0h1m1 0h2m5 0h1m1 0h2m4 0h5m1 0h1M5 39.5h1m2 0h1m2 0h1m9 0h2m2 0h3m2 0h2m1 0h2m2 0h2m3 0h7m1 0h1m2 0h1m2 0h1m2 0h4m1 0h2m2 0h1M4 40.5h2m1 0h1m1 0h2m2 0h1m1 0h1m1 0h3m1 0h1m1 0h1m1 0h3m1 0h2m1 0h2m1 0h3m2 0h2m3 0h3m1 0h1m1 0h3m1 0h1m4 0h1m5 0h3M6 41.5h2m3 0h1m3 0h3m1 0h3m3 0h1m2 0h1m6 0h1m2 0h4m3 0h3m3 0h1m1 0h1m1 0h1m2 0h3m3 0h5M5 42.5h2m1 0h3m1 0h2m5 0h3m2 0h5m3 0h5m2 0h4m2 0h1m1 0h1m2 0h1m1 0h1m1 0h2m3 0h3m2 0h2M4 43.5h1m1 0h4m1 0h4m1 0h2m1 0h1m3 0h2m4 0h11m1 0h4m3 0h1m6 0h11M6 44.5h3m1 0h3m1 0h3m1 0h1m2 0h1m1 0h1m5 0h1m1 0h2m3 0h2m1 0h2m4 0h3m1 0h1m1 0h4m2 0h2m2 0h1m1 0h1m1 0h1m1 0h1M4 45.5h1m3 0h2m2 0h2m1 0h3m2 0h1m2 0h2m1 0h1m1 0h1m1 0h1m4 0h1m3 0h1m4 0h3m4 0h1m3 0h1m1 0h2m3 0h7M4 46.5h1m1 0h2m2 0h7m1 0h1m1 0h2m6 0h1m2 0h4m1 0h2m1 0h1m2 0h3m3 0h5m1 0h1m9 0h1m1 0h1M5 47.5h1m2 0h2m5 0h1m1 0h1m2 0h1m1 0h3m1 0h1m2 0h1m5 0h2m2 0h1m1 0h4m2 0h3m3 0h1m2 0h5m1 0h1m4 0h2M5 48.5h2m3 0h5m3 0h1m1 0h3m1 0h1m1 0h1m1 0h1m2 0h4m2 0h1m1 0h2m1 0h1m2 0h3m1 0h1m2 0h2m4 0h1m1 0h3m3 0h1m1 0h1M5 49.5h1m1 0h2m4 0h1m1 0h2m1 0h2m2 0h2m1 0h1m2 0h2m1 0h1m2 0h6m1 0h1m1 0h1m1 0h5m2 0h2m2 0h3m1 0h1m2 0h2m2 0h2M5 50.5h1m1 0h1m2 0h1m1 0h3m3 0h2m1 0h2m1 0h1m1 0h2m1 0h2m2 0h1m2 0h2m1 0h2m1 0h1m1 0h1m3 0h1m1 0h6m7 0h1m2 0h1M4 51.5h1m2 0h1m3 0h3m4 0h1m1 0h1m2 0h1m1 0h1m1 0h2m1 0h1m2 0h6m5 0h1m3 0h2m1 0h1m1 0h1m1 0h2m2 0h4m1 0h1m2 0h2M4 52.5h7m1 0h2m4 0h2m1 0h3m7 0h4m1 0h2m1 0h3m3 0h1m1 0h1m1 0h5m1 0h1m2 0h1m1 0h1m5 0h2M5 53.5h2m1 0h2m1 0h1m3 0h2m2 0h1m2 0h1m1 0h2m1 0h1m1 0h2m4 0h1m1 0h2m1 0h2m1 0h1m1 0h5m3 0h1m3 0h3m1 0h1m1 0h2m2 0h2M5 54.5h7m2 0h1m1 0h1m3 0h2m6 0h2m1 0h1m1 0h1m1 0h1m3 0h4m2 0h1m2 0h4m2 0h1m11 0h2M5 55.5h2m1 0h1m5 0h4m2 0h1m2 0h1m2 0h1m1 0h8m1 0h2m3 0h3m1 0h1m1 0h1m6 0h3m1 0h2m1 0h4m1 0h1M5 56.5h2m1 0h3m1 0h3m1 0h3m1 0h1m2 0h4m1 0h1m3 0h2m1 0h8m6 0h2m1 0h2m6 0h2m4 0h1M4 57.5h1m2 0h1m1 0h1m2 0h1m2 0h1m1 0h1m4 0h2m2 0h1m2 0h3m2 0h2m1 0h1m1 0h3m1 0h7m3 0h1m3 0h3m2 0h3m3 0h1M6 58.5h2m1 0h2m1 0h1m2 0h2m2 0h1m1 0h1m1 0h1m1 0h1m1 0h1m1 0h3m1 0h4m2 0h2m1 0h1m1 0h1m4 0h2m1 0h1m1 0h4m1 0h1m4 0h3M4 59.5h1m2 0h1m3 0h3m1 0h1m1 0h7m1 0h2m1 0h2m1 0h1m2 0h1m1 0h4m1 0h1m1 0h4m1 0h4m2 0h4m1 0h1m1 0h5m1 0h2M5 60.5h2m1 0h1m1 0h3m1 0h1m2 0h5m2 0h2m4 0h1m2 0h6m1 0h1m1 0h1m2 0h2m3 0h5m5 0h7M12 61.5h1m1 0h4m1 0h1m4 0h2m2 0h3m3 0h1m3 0h2m1 0h1m2 0h1m1 0h2m3 0h1m1 0h1m3 0h4m3 0h2m1 0h2M4 62.5h7m7 0h1m1 0h1m1 0h1m1 0h1m1 0h5m1 0h3m1 0h1m1 0h2m2 0h1m4 0h1m1 0h3m1 0h2m1 0h2m1 0h2m1 0h1m1 0h2M4 63.5h1m5 0h1m1 0h1m1 0h4m1 0h1m1 0h2m2 0h1m3 0h1m2 0h1m1 0h1m3 0h1m4 0h2m1 0h1m1 0h1m4 0h5m1 0h2m3 0h2m2 0h1M4 64.5h1m1 0h3m1 0h1m1 0h3m1 0h1m1 0h1m1 0h1m1 0h1m1 0h2m1 0h3m4 0h7m1 0h2m3 0h1m1 0h1m1 0h3m1 0h1m1 0h2m1 0h7m1 0h1M4 65.5h1m1 0h3m1 0h1m1 0h1m1 0h1m1 0h2m1 0h3m2 0h1m3 0h4m4 0h3m1 0h2m2 0h4m3 0h1m1 0h1m2 0h1m1 0h3m6 0h1M4 66.5h1m1 0h3m1 0h1m1 0h1m1 0h2m1 0h3m2 0h3m1 0h2m1 0h1m3 0h1m1 0h1m2 0h3m1 0h2m3 0h1m1 0h3m2 0h1m1 0h2m5 0h2m1 0h2M4 67.5h1m5 0h1m4 0h3m1 0h1m2 0h1m1 0h3m1 0h1m1 0h2m1 0h3m4 0h4m1 0h1m4 0h1m2 0h1m1 0h3m1 0h3m2 0h2m1 0h1M4 68.5h7m1 0h1m1 0h5m1 0h1m1 0h1m2 0h1m2 0h1m1 0h1m1 0h4m1 0h3m2 0h1m1 0h1m2 0h4m1 0h1m4 0h2m1 0h1m1 0h3m1 0h1"/>
      </g>
      <text x="98" y="186" text-anchor="middle" fill="#050606" font-family="Arial Black, Impact, sans-serif" font-size="26" letter-spacing="3">SCAN</text>
    </g>
  </g>
</svg>
