<svg xmlns="http://www.w3.org/2000/svg" viewBox="0 0 2550 3300" role="img" aria-labelledby="title desc">
  <title id="title">Drop 001 Pile Of Projects Printer Ready Sticker</title>
  <desc id="desc">An 8 by 10 inch sticker centered on a letter-size page with a distinct QR code linking to https://neocolumbus.github.io/Project-Columbus/site/signal/?drop=001&amp;source=sticker-004&amp;kind=Neighborhood&amp;break=Disconnected+projects+are+standing+in+for+city+form.&amp;line=A+pile+of+projects+is+not+a+city.&amp;asset=004-pile-of-projects-sticker#field-card.</desc>
  <defs>
    <clipPath id="single-poster">
      <rect width="1080" height="1350"/>
    </clipPath>
  </defs>
  <rect width="2550" height="3300" fill="#FFFFFF"/>
  <g transform="translate(75 150) scale(2.222222)">
    <g clip-path="url(#single-poster)">
      <g transform="matrix(1.000000 0 0 1.000000 0.000000 0.000000)">
        <rect width="1080" height="1350" fill="#F4B037"/>
          <rect x="52" y="52" width="976" height="1246" fill="#050606"/>
          <g fill="#E8DDC7">
            <rect x="102" y="112" width="196" height="156"/>
            <rect x="342" y="112" width="278" height="156"/>
            <rect x="662" y="112" width="316" height="156"/>
            <rect x="102" y="314" width="332" height="156"/>
            <rect x="480" y="314" width="182" height="156"/>
            <rect x="704" y="314" width="274" height="156"/>
          </g>
          <path d="M92 576 H988" stroke="#F4B037" stroke-width="24"/>
          <path d="M540 84 V586" stroke="#F4B037" stroke-width="16"/>
          <circle cx="540" cy="586" r="78" fill="#E8DDC7"/>
          <circle cx="540" cy="586" r="42" fill="#050606"/>
          <circle cx="540" cy="586" r="22" fill="#F4B037"/>
          <text x="92" y="762" fill="#F4B037" font-family="Impact, Arial Black, sans-serif" font-size="150">A PILE</text>
          <text x="92" y="912" fill="#E8DDC7" font-family="Impact, Arial Black, sans-serif" font-size="150">OF PROJECTS</text>
          <text x="92" y="1062" fill="#E8DDC7" font-family="Impact, Arial Black, sans-serif" font-size="150">IS NOT</text>
          <text x="92" y="1212" fill="#F4B037" font-family="Impact, Arial Black, sans-serif" font-size="150">A CITY</text>
          <text x="92" y="1272" fill="#E8DDC7" font-family="Arial Black, Impact, sans-serif" font-size="30" letter-spacing="4">MAKE THE WHOLE BODY MOVE</text>
          <text x="540" y="1332" text-anchor="middle" fill="#061620" font-family="Arial Black, Impact, sans-serif" font-size="19" letter-spacing="2">neocolumbus.github.io/Project-Columbus/site/signal</text>
      </g>
    </g>
    <g transform="translate(796 1008)">
      <rect width="196" height="196" fill="#F6F0E4" stroke="#050606" stroke-width="8"/>
      <g transform="translate(18 14) scale(2.318841)" shape-rendering="crispEdges">
        <rect width="69" height="69" fill="#F6F0E4"/>
        <path stroke="#050606" d="M4 4.5h7m3 0h5m1 0h1m1 0h1m2 0h1m2 0h1m1 0h1m2 0h1m2 0h1m4 0h1m2 0h5m3 0h1m2 0h2m1 0h7M4 5.5h1m5 0h1m2 0h1m2 0h4m1 0h2m1 0h3m2 0h2m2 0h3m1 0h2m3 0h1m1 0h2m2 0h4m3 0h2m1 0h1m5 0h1M4 6.5h1m1 0h3m1 0h1m1 0h1m2 0h3m2 0h2m1 0h1m1 0h1m2 0h2m2 0h3m1 0h2m3 0h1m1 0h2m1 0h3m1 0h1m3 0h3m1 0h1m1 0h3m1 0h1M4 7.5h1m1 0h3m1 0h1m1 0h1m11 0h1m1 0h4m2 0h1m1 0h2m2 0h1m1 0h1m5 0h2m1 0h1m1 0h2m1 0h1m1 0h1m1 0h1m1 0h3m1 0h1M4 8.5h1m1 0h3m1 0h1m1 0h2m1 0h2m4 0h4m2 0h1m2 0h1m1 0h5m2 0h1m1 0h1m1 0h6m2 0h1m1 0h3m2 0h1m1 0h3m1 0h1M4 9.5h1m5 0h1m1 0h2m1 0h2m1 0h1m1 0h1m1 0h1m1 0h1m3 0h5m3 0h3m1 0h4m1 0h1m3 0h2m1 0h3m3 0h1m5 0h1M4 10.5h7m1 0h1m1 0h1m1 0h1m1 0h1m1 0h1m1 0h1m1 0h1m1 0h1m1 0h1m1 0h1m1 0h1m1 0h1m1 0h1m1 0h1m1 0h1m1 0h1m1 0h1m1 0h1m1 0h1m1 0h1m1 0h1m1 0h1m1 0h1m1 0h7M12 11.5h1m1 0h1m1 0h2m1 0h2m1 0h1m1 0h3m1 0h2m2 0h1m3 0h1m1 0h2m1 0h2m1 0h3m1 0h1m2 0h1m1 0h3M4 12.5h1m1 0h5m6 0h2m1 0h1m2 0h3m2 0h2m2 0h5m1 0h3m1 0h1m2 0h1m1 0h1m4 0h1m1 0h3m1 0h5M6 13.5h1m4 0h2m1 0h3m6 0h3m6 0h3m1 0h1m2 0h3m3 0h4m3 0h2m3 0h3m3 0h1M4 14.5h2m3 0h2m2 0h2m2 0h1m5 0h4m3 0h3m2 0h1m1 0h4m1 0h1m1 0h1m4 0h2m1 0h1m1 0h3m3 0h5M4 15.5h2m5 0h1m2 0h1m1 0h3m1 0h2m3 0h1m1 0h3m3 0h5m5 0h3m2 0h1m1 0h2m1 0h2m2 0h4m2 0h1M4 16.5h1m3 0h1m1 0h1m3 0h1m1 0h1m5 0h1m2 0h3m1 0h1m1 0h1m4 0h8m1 0h1m1 0h1m3 0h6m1 0h2m1 0h3M4 17.5h1m3 0h2m1 0h2m1 0h3m3 0h1m2 0h1m2 0h2m2 0h1m3 0h4m3 0h1m1 0h4m1 0h2m2 0h1m5 0h1m2 0h3M5 18.5h1m3 0h3m2 0h1m2 0h2m6 0h2m2 0h1m2 0h2m1 0h1m1 0h2m1 0h4m1 0h1m1 0h2m1 0h2m1 0h2m8 0h2M11 19.5h1m1 0h1m2 0h2m1 0h1m2 0h3m3 0h1m2 0h1m1 0h6m2 0h2m1 0h6m9 0h3m1 0h2M4 20.5h5m1 0h1m1 0h2m1 0h1m1 0h1m2 0h3m3 0h3m2 0h1m1 0h1m2 0h1m1 0h5m3 0h2m2 0h4m1 0h5m1 0h2M5 21.5h5m1 0h3m1 0h1m1 0h2m2 0h1m3 0h3m2 0h1m5 0h1m2 0h3m2 0h4m3 0h3m1 0h1m1 0h5M5 22.5h1m1 0h1m1 0h2m1 0h1m2 0h2m2 0h5m1 0h3m3 0h4m2 0h2m3 0h2m3 0h4m3 0h2m1 0h1m3 0h2m1 0h1M4 23.5h1m1 0h1m2 0h1m1 0h1m1 0h1m1 0h2m3 0h1m4 0h1m1 0h1m1 0h2m2 0h2m6 0h1m1 0h2m1 0h1m1 0h3m2 0h2m1 0h1m1 0h1m1 0h1m2 0h1M4 24.5h2m1 0h1m1 0h3m1 0h3m1 0h2m1 0h1m1 0h1m1 0h1m4 0h1m3 0h1m1 0h1m3 0h2m1 0h1m3 0h1m4 0h7m1 0h1m1 0h2M9 25.5h1m1 0h3m1 0h1m2 0h3m1 0h1m1 0h1m2 0h2m1 0h1m5 0h1m2 0h1m4 0h4m5 0h1m3 0h4m2 0h1M5 26.5h1m4 0h2m1 0h3m1 0h2m1 0h1m6 0h1m3 0h4m2 0h3m2 0h3m4 0h6m1 0h1m4 0h1m1 0h2M4 27.5h2m1 0h2m4 0h1m1 0h1m2 0h5m1 0h1m2 0h1m2 0h2m1 0h2m2 0h3m4 0h1m1 0h1m1 0h1m2 0h1m4 0h1m1 0h1m1 0h1m3 0h1M5 28.5h1m1 0h2m1 0h2m1 0h2m1 0h1m2 0h1m1 0h1m1 0h1m2 0h1m1 0h2m1 0h1m3 0h1m2 0h5m4 0h1m3 0h2m3 0h2m1 0h1m1 0h4M4 29.5h1m3 0h2m2 0h2m2 0h6m1 0h2m1 0h1m1 0h3m3 0h1m1 0h1m3 0h1m2 0h1m1 0h3m1 0h1m1 0h2m2 0h1m2 0h4M4 30.5h1m5 0h3m1 0h1m2 0h3m1 0h1m2 0h1m1 0h1m2 0h5m1 0h1m1 0h4m1 0h2m3 0h1m1 0h2m2 0h2m2 0h1m1 0h6M4 31.5h2m1 0h1m1 0h1m1 0h8m2 0h1m1 0h4m1 0h1m1 0h1m2 0h6m3 0h1m1 0h1m2 0h2m1 0h2m1 0h1m2 0h3m1 0h1m2 0h1M5 32.5h1m2 0h8m3 0h2m1 0h1m3 0h1m2 0h1m1 0h11m1 0h1m1 0h3m3 0h3m1 0h8M4 33.5h1m1 0h1m1 0h1m3 0h1m1 0h2m2 0h4m3 0h4m1 0h1m1 0h1m3 0h1m2 0h1m1 0h1m3 0h2m1 0h1m2 0h1m1 0h1m2 0h1m3 0h1m1 0h1M5 34.5h4m1 0h1m1 0h2m1 0h1m5 0h1m1 0h2m2 0h1m1 0h2m1 0h1m1 0h1m1 0h3m3 0h1m2 0h1m1 0h1m1 0h3m2 0h1m1 0h1m1 0h1m1 0h1m1 0h3M5 35.5h2m1 0h1m3 0h2m1 0h1m2 0h1m1 0h6m2 0h1m1 0h1m1 0h1m3 0h1m1 0h2m1 0h1m1 0h4m1 0h2m3 0h4m3 0h1M4 36.5h1m1 0h1m1 0h5m1 0h1m4 0h2m4 0h2m2 0h1m1 0h6m2 0h2m4 0h2m2 0h1m1 0h4m1 0h5m1 0h1m1 0h1M4 37.5h5m2 0h1m1 0h1m2 0h5m6 0h2m1 0h1m1 0h1m4 0h1m2 0h2m3 0h5m1 0h1m1 0h1m3 0h1m1 0h1m2 0h1M4 38.5h1m2 0h1m1 0h3m1 0h2m1 0h1m2 0h4m1 0h1m2 0h2m1 0h2m4 0h1m1 0h1m1 0h1m1 0h1m2 0h1m4 0h2m2 0h1m2 0h8M4 39.5h1m3 0h1m2 0h1m3 0h1m2 0h1m1 0h4m5 0h2m1 0h2m3 0h1m4 0h5m1 0h1m1 0h1m3 0h1m1 0h1m4 0h1m1 0h1M4 40.5h2m2 0h1m1 0h2m2 0h6m2 0h3m4 0h1m3 0h4m2 0h2m1 0h1m2 0h2m3 0h6m1 0h6m1 0h1M4 41.5h1m2 0h1m1 0h1m1 0h1m1 0h1m1 0h1m1 0h3m2 0h1m3 0h3m1 0h1m1 0h1m7 0h2m3 0h2m1 0h1m3 0h1m6 0h1m1 0h3M4 42.5h1m1 0h1m2 0h3m1 0h2m1 0h1m1 0h6m3 0h1m3 0h1m1 0h2m1 0h1m1 0h3m1 0h1m4 0h1m1 0h2m1 0h4m1 0h2m2 0h1m1 0h1M4 43.5h6m4 0h1m1 0h2m1 0h3m2 0h1m1 0h4m2 0h1m1 0h1m2 0h1m4 0h3m5 0h1m5 0h1m2 0h1m4 0h1M4 44.5h3m2 0h2m5 0h3m3 0h1m2 0h2m2 0h1m2 0h4m2 0h6m1 0h3m1 0h2m1 0h1m1 0h7m1 0h1m1 0h1M8 45.5h1m2 0h1m1 0h5m2 0h1m5 0h1m1 0h3m1 0h1m2 0h1m5 0h1m3 0h3m5 0h1m1 0h1m2 0h2m3 0h1M7 46.5h2m1 0h2m2 0h2m1 0h1m1 0h4m2 0h1m2 0h2m1 0h1m2 0h3m1 0h1m1 0h3m4 0h5m2 0h2m1 0h3m3 0h2M7 47.5h2m2 0h2m1 0h1m1 0h5m1 0h2m2 0h4m1 0h3m5 0h1m1 0h2m1 0h2m2 0h1m1 0h1m2 0h1m3 0h1m3 0h1m1 0h2M5 48.5h3m2 0h3m1 0h1m1 0h2m1 0h1m3 0h1m2 0h1m2 0h1m4 0h1m4 0h3m3 0h1m1 0h1m3 0h2m2 0h4m1 0h3M5 49.5h2m1 0h2m1 0h1m3 0h1m1 0h1m1 0h1m1 0h1m1 0h1m1 0h6m1 0h1m6 0h1m1 0h1m2 0h3m1 0h1m3 0h1m3 0h4m1 0h2M5 50.5h3m2 0h1m1 0h3m1 0h4m1 0h1m1 0h1m2 0h2m1 0h1m1 0h1m1 0h4m1 0h1m1 0h5m2 0h6m1 0h1m1 0h6m2 0h1M5 51.5h1m1 0h3m7 0h1m3 0h1m1 0h2m4 0h1m1 0h5m5 0h6m1 0h2m3 0h2m2 0h1m2 0h1M5 52.5h3m2 0h1m1 0h2m2 0h3m1 0h1m3 0h1m4 0h1m3 0h4m2 0h4m3 0h1m2 0h7m4 0h4M4 53.5h1m7 0h1m7 0h1m1 0h2m3 0h2m1 0h1m1 0h1m6 0h1m4 0h4m5 0h1m1 0h2m2 0h1m1 0h1M6 54.5h6m1 0h1m1 0h1m1 0h3m4 0h1m2 0h1m1 0h1m1 0h3m2 0h3m1 0h1m1 0h2m6 0h1m1 0h1m1 0h2m2 0h7M4 55.5h3m1 0h1m3 0h1m1 0h2m1 0h4m1 0h4m3 0h2m2 0h1m3 0h1m1 0h2m1 0h1m1 0h1m1 0h4m3 0h1m5 0h3m2 0h1M4 56.5h4m2 0h1m2 0h1m4 0h2m2 0h5m5 0h6m1 0h3m5 0h1m1 0h1m1 0h2m2 0h8M12 57.5h1m1 0h1m2 0h2m1 0h2m4 0h3m1 0h3m3 0h2m1 0h1m1 0h1m1 0h1m1 0h3m1 0h1m1 0h1m1 0h1m2 0h1m3 0h1m2 0h1M4 58.5h7m2 0h2m3 0h1m1 0h1m1 0h2m2 0h3m3 0h1m1 0h1m1 0h1m1 0h2m2 0h3m2 0h1m2 0h1m1 0h5m1 0h1m1 0h5M4 59.5h1m5 0h1m1 0h1m1 0h3m1 0h1m1 0h3m1 0h3m2 0h1m2 0h1m3 0h2m1 0h1m1 0h1m1 0h4m1 0h1m1 0h2m1 0h4m3 0h1m2 0h1M4 60.5h1m1 0h3m1 0h1m1 0h1m1 0h1m1 0h1m7 0h1m6 0h11m4 0h2m1 0h5m2 0h8M4 61.5h1m1 0h3m1 0h1m1 0h1m2 0h1m1 0h6m3 0h1m1 0h1m1 0h1m2 0h2m1 0h1m2 0h1m1 0h1m1 0h2m1 0h3m2 0h3m2 0h2m1 0h2m3 0h1M4 62.5h1m1 0h3m1 0h1m1 0h2m7 0h2m2 0h3m3 0h1m5 0h2m1 0h1m1 0h3m2 0h5m7 0h1m1 0h1m2 0h1M4 63.5h1m5 0h1m2 0h1m4 0h1m3 0h1m1 0h1m3 0h1m1 0h3m2 0h2m2 0h1m3 0h3m1 0h2m4 0h8m3 0h1M4 64.5h7m1 0h7m1 0h1m1 0h1m1 0h1m1 0h1m2 0h1m3 0h3m1 0h1m1 0h2m5 0h1m5 0h2m1 0h1m3 0h2m1 0h3"/>
      </g>
      <text x="98" y="186" text-anchor="middle" fill="#050606" font-family="Arial Black, Impact, sans-serif" font-size="26" letter-spacing="3">SCAN</text>
    </g>
  </g>
</svg>
