<svg xmlns="http://www.w3.org/2000/svg" viewBox="0 0 2550 3300" role="img" aria-labelledby="title desc">
  <title id="title">Drop 001 Report A Dead Wall Printer Ready Sticker</title>
  <desc id="desc">A letter-size printer-ready sticker with a distinct QR code linking to https://neocolumbus.github.io/Project-Columbus/site/signal/?drop=001&amp;source=sticker-006&amp;kind=Dead+Wall&amp;break=Blank+frontage.+Dead+street.&amp;line=Density+deserves+beauty.&amp;asset=006-report-dead-wall-sticker#field-card.</desc>
  <defs>
    <clipPath id="single-poster">
      <rect width="1640" height="2050" rx="44"/>
    </clipPath>
    <g id="single-frame">
      <rect x="-48" y="-48" width="1736" height="2506" rx="74" fill="#F6F0E4"/>
      <rect x="-48" y="-48" width="1736" height="2506" rx="74" fill="none" stroke="#050606" stroke-width="18"/>
    </g>
    <g id="single-qr">
      <rect width="300" height="360" fill="#F6F0E4" stroke="#050606" stroke-width="14"/>
      <g transform="translate(28 24) scale(3.536232)" shape-rendering="crispEdges">
        <rect width="69" height="69" fill="#F6F0E4"/>
        <path stroke="#050606" d="M4 4.5h7m4 0h1m1 0h3m2 0h1m4 0h2m3 0h2m1 0h1m1 0h1m2 0h2m3 0h3m1 0h1m1 0h2m2 0h2m1 0h7M4 5.5h1m5 0h1m4 0h1m2 0h4m1 0h3m2 0h7m2 0h6m1 0h2m1 0h1m1 0h2m2 0h1m1 0h2m1 0h1m5 0h1M4 6.5h1m1 0h3m1 0h1m1 0h1m5 0h1m2 0h1m2 0h1m3 0h2m2 0h4m2 0h1m2 0h5m2 0h1m1 0h1m3 0h3m1 0h1m1 0h3m1 0h1M4 7.5h1m1 0h3m1 0h1m1 0h2m2 0h1m2 0h4m4 0h3m1 0h2m1 0h1m2 0h4m1 0h1m4 0h1m1 0h6m1 0h1m1 0h1m1 0h3m1 0h1M4 8.5h1m1 0h3m1 0h1m1 0h1m4 0h2m2 0h1m4 0h2m2 0h7m1 0h1m2 0h2m2 0h1m1 0h1m2 0h2m1 0h3m2 0h1m1 0h3m1 0h1M4 9.5h1m5 0h1m1 0h2m1 0h2m1 0h1m1 0h1m8 0h4m3 0h2m2 0h1m5 0h1m2 0h1m3 0h2m3 0h1m5 0h1M4 10.5h7m1 0h1m1 0h1m1 0h1m1 0h1m1 0h1m1 0h1m1 0h1m1 0h1m1 0h1m1 0h1m1 0h1m1 0h1m1 0h1m1 0h1m1 0h1m1 0h1m1 0h1m1 0h1m1 0h1m1 0h1m1 0h1m1 0h1m1 0h1m1 0h7M12 11.5h1m2 0h1m2 0h1m2 0h1m1 0h1m4 0h2m1 0h2m3 0h1m1 0h2m1 0h2m1 0h3m1 0h1m2 0h1m1 0h3M4 12.5h1m1 0h5m3 0h1m1 0h1m1 0h1m2 0h4m2 0h3m1 0h6m1 0h3m1 0h1m2 0h1m1 0h1m4 0h1m1 0h3m1 0h5M4 13.5h3m2 0h1m1 0h5m5 0h1m2 0h1m1 0h1m1 0h1m3 0h3m1 0h1m2 0h3m3 0h4m3 0h2m3 0h3m1 0h2M4 14.5h1m1 0h1m3 0h2m4 0h1m2 0h1m1 0h2m4 0h3m1 0h1m5 0h4m1 0h1m1 0h1m4 0h2m1 0h1m1 0h1m1 0h1m3 0h1m1 0h3M4 15.5h1m6 0h1m2 0h1m4 0h2m6 0h2m4 0h2m2 0h1m5 0h3m2 0h1m1 0h2m1 0h4m1 0h3m2 0h2M5 16.5h1m1 0h5m4 0h1m4 0h1m1 0h1m4 0h2m5 0h1m1 0h7m1 0h1m1 0h1m3 0h5m3 0h1m1 0h2m1 0h1M4 17.5h1m1 0h1m4 0h3m1 0h6m1 0h1m1 0h2m4 0h1m1 0h2m2 0h2m3 0h1m1 0h4m1 0h2m2 0h1m4 0h2m2 0h1m1 0h1M4 18.5h3m1 0h3m1 0h2m3 0h1m2 0h2m1 0h3m1 0h1m1 0h2m1 0h1m1 0h2m1 0h2m1 0h4m1 0h1m1 0h2m1 0h2m1 0h2m6 0h4M6 19.5h2m1 0h1m1 0h1m2 0h1m2 0h1m3 0h3m2 0h4m1 0h1m1 0h2m1 0h1m2 0h2m4 0h3m3 0h2m3 0h1m1 0h1m1 0h2m1 0h2M5 20.5h4m1 0h3m1 0h2m8 0h2m2 0h2m1 0h1m3 0h1m4 0h2m1 0h1m1 0h1m3 0h2m1 0h1m1 0h3m2 0h1m1 0h2M5 21.5h1m1 0h1m1 0h1m2 0h1m3 0h2m1 0h1m1 0h2m1 0h1m2 0h4m2 0h1m2 0h1m2 0h3m3 0h3m3 0h3m1 0h1m1 0h3m1 0h1M4 22.5h1m1 0h1m2 0h2m1 0h3m1 0h1m1 0h1m1 0h2m1 0h2m1 0h1m4 0h4m2 0h2m1 0h1m1 0h2m6 0h1m1 0h1m1 0h2m1 0h1m1 0h1m1 0h2m1 0h1M4 23.5h1m1 0h1m2 0h1m1 0h4m2 0h1m2 0h3m1 0h4m1 0h1m3 0h2m1 0h1m1 0h2m3 0h4m1 0h1m1 0h2m4 0h2m1 0h2m2 0h1M5 24.5h2m2 0h2m3 0h1m1 0h1m1 0h1m2 0h2m1 0h1m2 0h2m4 0h1m1 0h1m3 0h2m1 0h2m2 0h2m1 0h4m1 0h3m1 0h2m1 0h4M6 25.5h1m6 0h1m2 0h4m1 0h3m3 0h3m3 0h1m2 0h1m4 0h1m1 0h2m1 0h4m2 0h2m3 0h3m3 0h1M5 26.5h2m1 0h3m1 0h1m3 0h2m1 0h3m6 0h1m8 0h2m1 0h1m1 0h1m2 0h1m3 0h4m1 0h1m1 0h1m2 0h1m1 0h1m1 0h2M4 27.5h1m1 0h1m1 0h1m3 0h1m2 0h1m2 0h3m1 0h3m1 0h3m1 0h2m1 0h1m3 0h1m1 0h1m3 0h2m1 0h1m1 0h2m6 0h1m1 0h3m2 0h2M4 28.5h4m1 0h4m1 0h1m5 0h1m1 0h1m4 0h3m4 0h2m3 0h3m3 0h3m4 0h1m1 0h4m1 0h1m1 0h4M7 29.5h1m1 0h1m2 0h3m1 0h1m2 0h3m1 0h3m2 0h4m2 0h1m2 0h1m2 0h1m2 0h1m2 0h1m2 0h1m1 0h1m1 0h1m4 0h1m1 0h1m1 0h1M10 30.5h1m2 0h1m1 0h3m1 0h2m1 0h2m2 0h4m1 0h3m1 0h2m2 0h3m3 0h3m6 0h1m1 0h2m3 0h1m2 0h1M4 31.5h6m1 0h1m2 0h3m1 0h1m1 0h1m1 0h4m2 0h1m4 0h2m1 0h3m3 0h1m1 0h1m2 0h2m1 0h2m1 0h1m1 0h1m1 0h2m1 0h1m2 0h2M8 32.5h5m1 0h3m1 0h2m2 0h1m6 0h1m1 0h11m1 0h1m1 0h3m3 0h3m1 0h8M5 33.5h2m1 0h1m3 0h2m1 0h1m1 0h1m1 0h3m1 0h6m1 0h3m3 0h1m2 0h1m1 0h1m3 0h2m1 0h1m2 0h1m1 0h1m2 0h1m3 0h1M4 34.5h1m2 0h2m1 0h1m1 0h4m2 0h2m3 0h1m1 0h3m1 0h1m2 0h1m1 0h1m1 0h3m3 0h1m2 0h1m1 0h1m1 0h3m2 0h3m1 0h1m1 0h2m1 0h2M5 35.5h1m1 0h2m3 0h1m2 0h2m1 0h2m1 0h2m3 0h1m1 0h2m2 0h1m3 0h1m1 0h2m1 0h1m1 0h4m1 0h2m3 0h4m3 0h1m2 0h1M5 36.5h8m2 0h1m5 0h1m1 0h1m2 0h2m1 0h1m2 0h5m2 0h2m4 0h2m2 0h1m1 0h4m1 0h9M4 37.5h1m1 0h1m1 0h1m2 0h5m1 0h4m2 0h1m1 0h4m1 0h1m4 0h3m2 0h2m3 0h5m1 0h1m1 0h1m3 0h1m1 0h1m1 0h1M9 38.5h4m3 0h1m1 0h1m3 0h1m2 0h1m1 0h2m2 0h2m3 0h1m1 0h1m1 0h1m1 0h1m2 0h1m4 0h2m2 0h7m1 0h3M7 39.5h1m1 0h1m1 0h2m1 0h6m4 0h1m1 0h1m2 0h5m1 0h1m4 0h2m1 0h1m1 0h2m2 0h1m2 0h3m8 0h1M6 40.5h1m3 0h1m2 0h1m2 0h1m1 0h2m1 0h1m2 0h2m3 0h1m1 0h1m1 0h3m3 0h1m4 0h8m3 0h8m1 0h1M4 41.5h4m3 0h3m1 0h2m3 0h2m1 0h1m4 0h3m1 0h1m10 0h2m1 0h1m1 0h1m4 0h1m3 0h3m1 0h4M7 42.5h4m2 0h2m1 0h1m1 0h3m1 0h3m1 0h1m1 0h4m4 0h1m1 0h2m2 0h1m1 0h1m2 0h5m2 0h1m2 0h2m2 0h1m1 0h1M5 43.5h1m1 0h1m4 0h1m1 0h1m3 0h2m1 0h1m3 0h1m1 0h2m1 0h1m1 0h3m4 0h1m1 0h1m2 0h2m1 0h2m2 0h1m1 0h1m2 0h1m2 0h1m4 0h1M4 44.5h2m1 0h7m1 0h3m1 0h1m4 0h1m1 0h1m1 0h3m1 0h3m1 0h2m1 0h3m1 0h1m1 0h3m1 0h5m1 0h4m1 0h1m1 0h1m1 0h1M4 45.5h3m10 0h1m2 0h2m1 0h5m4 0h1m2 0h2m2 0h1m1 0h1m1 0h1m2 0h3m2 0h3m1 0h1m3 0h1M6 46.5h1m2 0h2m1 0h1m1 0h2m2 0h2m2 0h4m3 0h1m1 0h1m1 0h7m1 0h3m1 0h1m3 0h4m1 0h2m1 0h3m3 0h2M4 47.5h1m3 0h1m2 0h1m2 0h2m3 0h2m3 0h2m1 0h1m1 0h1m1 0h3m4 0h2m1 0h3m1 0h1m1 0h2m1 0h1m2 0h1m6 0h2m1 0h1M5 48.5h2m2 0h3m7 0h1m3 0h1m5 0h1m3 0h2m2 0h4m1 0h1m4 0h1m1 0h4m2 0h4m1 0h3M4 49.5h6m2 0h1m4 0h2m1 0h1m1 0h2m1 0h1m1 0h6m5 0h2m1 0h2m1 0h2m2 0h1m1 0h1m5 0h1m1 0h2m2 0h2M5 50.5h1m3 0h3m2 0h1m1 0h1m1 0h1m2 0h2m1 0h6m4 0h4m2 0h1m2 0h2m1 0h4m1 0h1m2 0h1m3 0h4m1 0h2M4 51.5h1m1 0h1m1 0h1m3 0h3m4 0h1m2 0h2m1 0h1m3 0h1m2 0h4m5 0h6m1 0h2m3 0h2m1 0h1m4 0h1m2 0h1M9 52.5h3m4 0h1m1 0h2m1 0h2m2 0h1m3 0h1m4 0h3m2 0h4m3 0h1m2 0h8m3 0h5M4 53.5h2m1 0h1m4 0h2m1 0h1m1 0h1m2 0h1m1 0h2m3 0h2m1 0h1m1 0h3m4 0h1m4 0h4m5 0h1m1 0h2m2 0h1m3 0h2M6 54.5h5m2 0h1m1 0h2m1 0h1m1 0h3m1 0h4m1 0h5m1 0h1m1 0h2m1 0h1m1 0h2m6 0h1m1 0h1m1 0h1m1 0h1m1 0h1m1 0h1m2 0h2M4 55.5h3m1 0h1m3 0h4m2 0h2m1 0h1m2 0h1m3 0h1m1 0h2m1 0h1m3 0h1m1 0h2m1 0h1m1 0h1m1 0h4m3 0h1m2 0h1m2 0h1m3 0h1M4 56.5h4m2 0h3m1 0h3m1 0h2m1 0h2m1 0h2m3 0h1m1 0h7m1 0h3m5 0h1m1 0h1m1 0h2m2 0h6m1 0h1M12 57.5h2m1 0h1m1 0h3m2 0h2m2 0h7m3 0h2m1 0h1m1 0h1m1 0h1m1 0h3m1 0h1m1 0h1m1 0h1m2 0h1m3 0h1m2 0h1M4 58.5h7m3 0h1m1 0h2m2 0h1m3 0h6m2 0h1m1 0h1m1 0h1m1 0h2m2 0h3m2 0h1m2 0h1m1 0h5m1 0h1m1 0h5M4 59.5h1m5 0h1m1 0h1m7 0h1m7 0h1m3 0h1m3 0h1m2 0h2m1 0h1m2 0h1m1 0h1m2 0h1m1 0h1m3 0h1m3 0h1m2 0h1M4 60.5h1m1 0h3m1 0h1m1 0h1m1 0h1m1 0h6m2 0h1m1 0h1m2 0h1m1 0h7m2 0h4m6 0h1m1 0h2m1 0h9M4 61.5h1m1 0h3m1 0h1m1 0h1m2 0h3m1 0h1m2 0h1m5 0h1m1 0h6m1 0h1m1 0h3m4 0h2m5 0h1m1 0h3m1 0h2m3 0h1M4 62.5h1m1 0h3m1 0h1m1 0h1m1 0h1m1 0h1m1 0h3m2 0h5m4 0h1m4 0h2m1 0h4m5 0h2m1 0h1m1 0h1m4 0h1m1 0h1m2 0h1M4 63.5h1m5 0h1m2 0h1m5 0h1m3 0h1m1 0h2m1 0h2m1 0h2m3 0h1m7 0h1m1 0h4m1 0h1m5 0h4m3 0h1M4 64.5h7m1 0h6m1 0h4m3 0h3m4 0h3m3 0h2m2 0h1m2 0h2m3 0h3m1 0h1m3 0h2m1 0h3"/>
      </g>
      <text x="150" y="326" text-anchor="middle" fill="#050606" font-family="Arial Black, Impact, sans-serif" font-size="48" letter-spacing="7">SCAN</text>
    </g>
  </defs>
  <rect width="2550" height="3300" fill="#F6F0E4"/>
  <text x="150" y="194" fill="#050606" font-family="Arial Black, Impact, sans-serif" font-size="74" letter-spacing="5">DROP 001 / STICKER / QR</text>
  <text x="150" y="278" fill="#9D4732" font-family="Arial Black, Impact, sans-serif" font-size="34" letter-spacing="5">REPORT A DEAD WALL</text>

  <g transform="translate(455 450)">
    <use href="#single-frame"/>
    <g clip-path="url(#single-poster)">
      <g transform="matrix(1.518519 0 0 1.518519 0.000000 0.000000)">
        <rect width="1080" height="1350" fill="#E8DDC7"/>
          <rect x="58" y="58" width="964" height="1234" fill="#050606"/>
          <g fill="#9D4732">
            <rect x="94" y="94" width="132" height="86"/>
            <rect x="246" y="94" width="190" height="86"/>
            <rect x="456" y="94" width="142" height="86"/>
            <rect x="618" y="94" width="242" height="86"/>
            <rect x="880" y="94" width="106" height="86"/>
            <rect x="94" y="206" width="230" height="86"/>
            <rect x="344" y="206" width="134" height="86"/>
            <rect x="498" y="206" width="252" height="86"/>
            <rect x="770" y="206" width="216" height="86"/>
          </g>
          <path d="M706 422 L872 594 L810 706 L938 858 L884 982 L962 1106" fill="none" stroke="#F4B037" stroke-width="30" stroke-linecap="square"/>
          <path d="M94 382 H986" stroke="#E8DDC7" stroke-width="14"/>
          <path d="M700 348 V1128" stroke="#E8DDC7" stroke-width="8"/>
          <circle cx="700" cy="698" r="92" fill="#E8DDC7"/>
          <circle cx="700" cy="698" r="60" fill="#050606"/>
          <circle cx="700" cy="698" r="28" fill="#F4B037"/>
          <text x="90" y="528" fill="#E8DDC7" font-family="Impact, Arial Black, sans-serif" font-size="140">REPORT</text>
          <text x="90" y="874" fill="#F4B037" font-family="Impact, Arial Black, sans-serif" font-size="180">A DEAD</text>
          <text x="90" y="1042" fill="#E8DDC7" font-family="Impact, Arial Black, sans-serif" font-size="180">WALL</text>
          <rect x="58" y="1216" width="964" height="76" fill="#F4B037"/>
          <text x="90" y="1268" fill="#050606" font-family="Arial Black, Impact, sans-serif" font-size="30" letter-spacing="4">DENSITY DESERVES BEAUTY / DROP 001</text>
      </g>
    </g>
    <rect y="2050" width="1640" height="360" fill="#F6F0E4"/>
    <text x="72" y="2200" fill="#050606" font-family="Arial Black, Impact, sans-serif" font-size="44" letter-spacing="5">SCAN THE SIGNAL</text>
    <text x="72" y="2278" fill="#9D4732" font-family="Arial Black, Impact, sans-serif" font-size="26" letter-spacing="4">SOURCE STICKER-006 / PRINTER READY</text>
    <use href="#single-qr" transform="translate(1296 2074)"/>
  </g>

  <text x="150" y="3148" fill="#050606" font-family="Arial Black, Impact, sans-serif" font-size="40" letter-spacing="5">LETTER PDF / CUT ONE BIG STICKER / TEST EVERY SCAN</text>
</svg>
