<svg xmlns="http://www.w3.org/2000/svg" viewBox="0 0 2550 3300" role="img" aria-labelledby="title desc">
  <title id="title">Drop 001 COTA Nervous System Printer Ready Sticker</title>
  <desc id="desc">An 8 by 10 inch sticker centered on a letter-size page with a distinct QR code linking to https://neocolumbus.github.io/Project-Columbus/site/signal/?drop=001&amp;source=sticker-007&amp;kind=Transit&amp;break=Stop+lacks+shelter%2C+shade%2C+light%2C+crossing%2C+seating%2C+route+information%2C+or+dignity.&amp;line=Transit+is+the+nervous+system.&amp;asset=007-cota-nervous-system-sticker#field-card.</desc>
  <defs>
    <clipPath id="single-poster">
      <rect width="1080" height="1350"/>
    </clipPath>
  </defs>
  <rect width="2550" height="3300" fill="#FFFFFF"/>
  <g transform="translate(75 150) scale(2.222222)">
    <g clip-path="url(#single-poster)">
      <g transform="matrix(1.000000 0 0 1.000000 0.000000 0.000000)">
        <rect width="1080" height="1350" fill="#061620"/>
          <rect x="58" y="58" width="964" height="1234" fill="#050606"/>
          <rect x="58" y="58" width="964" height="104" fill="#F4B037"/>
          <text x="92" y="124" fill="#050606" font-family="Arial Black, Impact, sans-serif" font-size="34" letter-spacing="5">TRANSIT 007</text>
          <g opacity="0.42">
            <path d="M474 274 H932 M474 402 H932 M474 530 H932 M474 658 H932 M474 786 H932 M474 914 H932" stroke="#4F8A74" stroke-width="8"/>
            <path d="M560 220 V1040 M690 220 V1040 M820 220 V1040 M950 220 V1040" stroke="#4F8A74" stroke-width="8"/>
          </g>
          <path d="M500 1010 C630 850 620 704 726 650 C820 602 820 724 946 472" fill="none" stroke="#F4B037" stroke-width="34" stroke-linecap="square"/>
          <path d="M488 506 C604 418 706 436 788 548 C878 674 894 730 968 660" fill="none" stroke="#E8DDC7" stroke-width="18" stroke-linecap="square"/>
          <g fill="#F6F0E4" stroke="#050606" stroke-width="14">
            <circle cx="548" cy="920" r="46"/>
            <circle cx="726" cy="650" r="46"/>
            <circle cx="720" cy="610" r="46"/>
            <circle cx="900" cy="504" r="46"/>
          </g>
          <g transform="translate(622 320)">
            <circle r="116" fill="#E8DDC7"/>
            <circle r="84" fill="#061620"/>
            <circle r="44" fill="none" stroke="#E8DDC7" stroke-width="18"/>
            <circle r="24" fill="#F4B037"/>
          </g>
          <text x="86" y="662" fill="#F4B037" font-family="Impact, Arial Black, sans-serif" font-size="116">COTA IS THE</text>
          <text x="86" y="820" fill="#E8DDC7" font-family="Impact, Arial Black, sans-serif" font-size="138">NERVOUS</text>
          <text x="86" y="978" fill="#E8DDC7" font-family="Impact, Arial Black, sans-serif" font-size="138">SYSTEM</text>
          <rect x="58" y="1216" width="964" height="76" fill="#F4B037"/>
          <text x="90" y="1268" fill="#050606" font-family="Arial Black, Impact, sans-serif" font-size="30" letter-spacing="4">FREQUENCY IS DIGNITY / DROP 001</text>
          <text x="540" y="1332" text-anchor="middle" fill="#E8DDC7" font-family="Arial Black, Impact, sans-serif" font-size="19" letter-spacing="2">neocolumbus.github.io/Project-Columbus/site/signal</text>
      </g>
    </g>
    <g transform="translate(796 1008)">
      <rect width="196" height="196" fill="#F6F0E4" stroke="#050606" stroke-width="8"/>
      <g transform="translate(18 14) scale(2.077922)" shape-rendering="crispEdges">
        <rect width="77" height="77" fill="#F6F0E4"/>
        <path stroke="#050606" d="M4 4.5h7m2 0h1m1 0h1m2 0h1m2 0h2m1 0h3m1 0h2m1 0h1m1 0h3m1 0h1m1 0h1m1 0h1m1 0h6m1 0h1m2 0h1m3 0h4m1 0h3m1 0h7M4 5.5h1m5 0h1m3 0h5m3 0h2m2 0h1m2 0h2m3 0h3m2 0h2m1 0h2m1 0h1m3 0h1m1 0h1m1 0h4m4 0h1m4 0h1m5 0h1M4 6.5h1m1 0h3m1 0h1m1 0h2m1 0h1m1 0h3m3 0h1m1 0h3m2 0h2m2 0h4m1 0h8m1 0h1m1 0h1m4 0h8m3 0h1m1 0h3m1 0h1M4 7.5h1m1 0h3m1 0h1m1 0h1m4 0h3m2 0h2m2 0h1m1 0h5m1 0h1m5 0h2m1 0h1m3 0h1m3 0h2m4 0h3m4 0h1m1 0h1m1 0h3m1 0h1M4 8.5h1m1 0h3m1 0h1m1 0h2m1 0h1m1 0h1m1 0h4m1 0h2m2 0h1m4 0h1m1 0h7m3 0h2m4 0h1m4 0h1m1 0h2m2 0h1m1 0h1m1 0h1m1 0h3m1 0h1M4 9.5h1m5 0h1m1 0h2m1 0h2m4 0h4m1 0h2m3 0h6m3 0h2m5 0h4m2 0h3m1 0h1m1 0h1m2 0h1m3 0h1m5 0h1M4 10.5h7m1 0h1m1 0h1m1 0h1m1 0h1m1 0h1m1 0h1m1 0h1m1 0h1m1 0h1m1 0h1m1 0h1m1 0h1m1 0h1m1 0h1m1 0h1m1 0h1m1 0h1m1 0h1m1 0h1m1 0h1m1 0h1m1 0h1m1 0h1m1 0h1m1 0h1m1 0h1m1 0h1m1 0h7M12 11.5h3m2 0h2m4 0h3m3 0h1m2 0h3m1 0h1m3 0h3m1 0h2m1 0h3m3 0h1m1 0h1m2 0h4m2 0h1M4 12.5h1m1 0h5m3 0h1m1 0h4m1 0h2m1 0h1m1 0h2m3 0h11m8 0h1m1 0h1m3 0h1m2 0h1m2 0h1m1 0h1m1 0h5M5 13.5h3m1 0h1m3 0h2m1 0h1m3 0h10m1 0h1m3 0h2m1 0h1m4 0h3m1 0h1m3 0h3m1 0h2m1 0h2m3 0h3m2 0h5M4 14.5h1m3 0h1m1 0h2m1 0h1m2 0h1m2 0h2m1 0h6m4 0h3m2 0h2m1 0h3m1 0h1m1 0h2m1 0h3m2 0h1m1 0h1m2 0h1m2 0h1m3 0h3m1 0h2M4 15.5h1m2 0h2m4 0h1m1 0h2m2 0h1m1 0h2m1 0h1m4 0h3m1 0h1m5 0h1m1 0h1m1 0h3m2 0h4m4 0h1m1 0h1m1 0h2m2 0h2m1 0h5M4 16.5h1m1 0h1m1 0h1m1 0h2m2 0h5m3 0h1m2 0h1m3 0h6m1 0h5m6 0h1m3 0h4m2 0h1m1 0h1m5 0h1M4 17.5h1m1 0h4m2 0h1m2 0h1m3 0h1m3 0h1m1 0h2m1 0h1m1 0h1m6 0h1m6 0h5m3 0h2m2 0h1m1 0h4m1 0h3m2 0h1m1 0h1m1 0h1M4 18.5h3m1 0h3m1 0h1m5 0h1m4 0h2m1 0h2m1 0h5m1 0h3m1 0h2m1 0h1m1 0h1m4 0h4m1 0h2m3 0h2m2 0h1m1 0h2m1 0h1M6 19.5h2m1 0h1m1 0h2m1 0h3m1 0h4m4 0h1m1 0h2m1 0h1m3 0h1m1 0h1m1 0h6m1 0h2m1 0h1m3 0h1m2 0h3m2 0h1m2 0h9M7 20.5h2m1 0h1m1 0h2m2 0h2m1 0h6m1 0h2m1 0h2m1 0h5m1 0h1m1 0h1m1 0h1m2 0h3m1 0h6m2 0h4m1 0h1m3 0h1m2 0h1M6 21.5h1m1 0h1m3 0h4m1 0h1m2 0h4m3 0h1m1 0h1m1 0h1m3 0h2m4 0h3m1 0h3m4 0h2m3 0h2m1 0h2m1 0h6m1 0h1m1 0h1M5 22.5h1m2 0h5m1 0h1m3 0h1m1 0h4m2 0h3m4 0h8m6 0h3m1 0h2m1 0h3m2 0h2m1 0h2m3 0h1m1 0h3M5 23.5h2m4 0h1m1 0h1m2 0h1m1 0h1m5 0h3m1 0h2m4 0h2m4 0h1m1 0h1m2 0h2m1 0h4m3 0h2m1 0h1m1 0h1m3 0h2m1 0h2m1 0h1M4 24.5h1m2 0h4m1 0h1m2 0h3m2 0h1m2 0h2m1 0h1m1 0h1m5 0h2m1 0h4m2 0h1m2 0h2m4 0h3m2 0h3m9 0h3M6 25.5h1m2 0h1m2 0h1m5 0h1m1 0h2m3 0h1m3 0h2m5 0h3m2 0h1m3 0h2m1 0h1m2 0h3m4 0h1m4 0h3m2 0h1m1 0h3M6 26.5h3m1 0h2m3 0h2m1 0h2m1 0h3m1 0h1m1 0h1m1 0h1m3 0h2m1 0h1m1 0h1m1 0h4m1 0h1m1 0h13m1 0h2m1 0h8M4 27.5h2m1 0h1m4 0h2m7 0h1m1 0h1m3 0h4m1 0h1m1 0h2m3 0h1m1 0h1m1 0h2m3 0h3m2 0h1m2 0h2m1 0h6m3 0h1m1 0h2M6 28.5h2m1 0h2m1 0h1m1 0h1m1 0h3m5 0h3m1 0h8m1 0h2m1 0h1m5 0h1m4 0h2m6 0h1m3 0h1m1 0h3m3 0h1M5 29.5h1m1 0h2m4 0h1m1 0h2m2 0h2m6 0h2m7 0h1m4 0h1m1 0h1m1 0h5m1 0h1m1 0h1m2 0h4m3 0h3m4 0h1m1 0h1M5 30.5h1m1 0h2m1 0h3m1 0h2m1 0h1m1 0h1m2 0h2m2 0h5m1 0h2m2 0h1m3 0h3m1 0h1m4 0h2m3 0h3m2 0h1m1 0h2m1 0h1m1 0h1m2 0h1m1 0h1M5 31.5h2m1 0h2m2 0h2m2 0h1m1 0h1m2 0h1m2 0h1m1 0h1m2 0h1m1 0h1m3 0h1m1 0h1m2 0h1m3 0h1m1 0h2m2 0h2m4 0h1m1 0h6m1 0h3m1 0h3M4 32.5h2m4 0h2m1 0h1m5 0h4m1 0h2m1 0h2m1 0h4m1 0h1m1 0h7m5 0h5m3 0h1m1 0h1m2 0h2m1 0h1m3 0h1m1 0h1M4 33.5h1m6 0h1m3 0h1m4 0h2m1 0h1m1 0h1m3 0h2m3 0h1m1 0h1m1 0h2m1 0h1m1 0h1m1 0h3m1 0h1m1 0h1m3 0h1m2 0h3m2 0h3m4 0h1m1 0h1M4 34.5h1m2 0h1m2 0h1m3 0h1m1 0h1m2 0h2m1 0h2m1 0h1m6 0h1m1 0h1m1 0h5m1 0h1m3 0h1m2 0h3m1 0h1m2 0h1m2 0h2m1 0h1m1 0h3m1 0h1M4 35.5h2m1 0h2m2 0h2m2 0h3m1 0h7m1 0h3m2 0h4m3 0h1m1 0h1m2 0h1m3 0h1m4 0h2m1 0h1m1 0h1m1 0h3m1 0h3m1 0h4M5 36.5h11m2 0h1m2 0h2m2 0h2m1 0h1m5 0h1m1 0h6m1 0h1m1 0h3m3 0h5m8 0h5M4 37.5h2m2 0h1m3 0h1m2 0h2m3 0h6m2 0h2m1 0h1m1 0h4m3 0h1m4 0h4m2 0h3m1 0h1m2 0h3m3 0h1m3 0h2M4 38.5h2m1 0h2m1 0h1m1 0h2m2 0h1m2 0h2m4 0h1m8 0h1m1 0h1m1 0h1m1 0h3m7 0h3m1 0h2m3 0h1m1 0h4m1 0h1m1 0h2m1 0h2M7 39.5h2m3 0h2m1 0h2m1 0h1m4 0h1m1 0h1m3 0h3m2 0h1m1 0h1m3 0h3m1 0h1m1 0h4m1 0h3m1 0h2m2 0h3m1 0h2m3 0h3m1 0h1M5 40.5h8m1 0h1m3 0h2m1 0h3m1 0h1m5 0h1m1 0h10m2 0h1m1 0h1m4 0h1m5 0h2m2 0h1m1 0h6m1 0h2M4 41.5h1m1 0h1m2 0h1m1 0h1m1 0h2m3 0h1m1 0h1m1 0h2m1 0h2m2 0h1m2 0h2m1 0h1m2 0h2m1 0h1m2 0h4m1 0h1m1 0h3m2 0h6m1 0h1m7 0h2M4 42.5h1m1 0h1m1 0h9m1 0h1m2 0h1m1 0h1m4 0h5m1 0h1m3 0h1m2 0h4m7 0h1m1 0h2m4 0h4m1 0h1m1 0h1m1 0h1m1 0h1M6 43.5h2m1 0h1m1 0h1m3 0h1m3 0h3m3 0h1m1 0h2m3 0h3m5 0h2m1 0h2m3 0h2m3 0h1m1 0h2m1 0h1m1 0h1m2 0h1m2 0h6M5 44.5h1m1 0h6m1 0h4m3 0h4m2 0h1m3 0h2m1 0h1m10 0h3m1 0h6m4 0h1m1 0h2m2 0h2m4 0h1M5 45.5h2m5 0h5m2 0h1m1 0h1m2 0h2m2 0h1m1 0h1m4 0h1m1 0h2m1 0h2m1 0h1m1 0h2m1 0h1m2 0h1m4 0h5m4 0h3m1 0h4M4 46.5h2m1 0h2m1 0h1m3 0h2m2 0h1m3 0h2m3 0h4m3 0h1m1 0h2m2 0h3m4 0h1m2 0h1m1 0h1m1 0h1m1 0h1m1 0h1m1 0h4m1 0h1m4 0h2M4 47.5h2m1 0h3m4 0h2m3 0h1m1 0h6m1 0h1m3 0h8m3 0h2m1 0h1m1 0h3m2 0h1m5 0h5m1 0h3m1 0h4M10 48.5h1m2 0h4m2 0h2m3 0h2m1 0h4m1 0h5m8 0h2m4 0h3m1 0h1m1 0h1m1 0h1m5 0h2m1 0h1m3 0h1M5 49.5h1m1 0h2m3 0h1m2 0h1m2 0h4m6 0h3m6 0h3m6 0h3m2 0h3m3 0h2m1 0h1m5 0h1m5 0h1M7 50.5h5m2 0h2m1 0h1m2 0h2m1 0h1m1 0h2m1 0h1m1 0h1m5 0h1m1 0h1m2 0h3m1 0h3m1 0h7m6 0h1m5 0h1m1 0h2M4 51.5h1m1 0h1m1 0h2m1 0h1m3 0h1m3 0h1m6 0h2m1 0h1m1 0h2m1 0h1m2 0h6m1 0h5m1 0h2m1 0h1m2 0h1m3 0h1m1 0h3m1 0h1m1 0h4M4 52.5h2m2 0h1m1 0h4m3 0h1m1 0h2m1 0h1m1 0h1m1 0h2m1 0h1m2 0h3m3 0h2m1 0h1m1 0h1m1 0h1m1 0h1m1 0h5m3 0h1m3 0h2m2 0h4m2 0h2M6 53.5h1m2 0h1m2 0h4m1 0h1m6 0h7m2 0h1m1 0h1m1 0h1m2 0h2m2 0h5m2 0h3m3 0h4m1 0h1m3 0h2m1 0h2M5 54.5h1m2 0h4m2 0h1m3 0h1m2 0h1m1 0h1m1 0h2m1 0h2m2 0h3m2 0h3m2 0h1m1 0h1m3 0h3m3 0h1m1 0h2m1 0h3m3 0h1m5 0h1M4 55.5h1m6 0h1m4 0h2m2 0h1m1 0h1m1 0h1m1 0h4m2 0h1m3 0h1m3 0h1m3 0h2m1 0h3m1 0h1m1 0h2m1 0h2m1 0h1m1 0h3m2 0h1m2 0h2m1 0h1M4 56.5h1m3 0h3m1 0h6m1 0h1m3 0h3m1 0h1m3 0h4m5 0h2m4 0h1m3 0h3m1 0h1m2 0h2m2 0h2m4 0h2M4 57.5h1m6 0h2m1 0h1m1 0h1m2 0h1m1 0h1m2 0h1m1 0h1m1 0h1m2 0h1m3 0h4m1 0h1m5 0h1m2 0h1m1 0h3m2 0h1m1 0h2m1 0h1m1 0h4m2 0h1m1 0h2M4 58.5h1m1 0h2m2 0h1m3 0h2m3 0h1m1 0h2m2 0h1m3 0h3m4 0h1m1 0h1m2 0h1m1 0h2m2 0h1m1 0h2m1 0h1m1 0h2m5 0h2m1 0h1m6 0h1M4 59.5h1m2 0h1m1 0h1m1 0h2m1 0h2m1 0h1m1 0h1m4 0h3m2 0h2m2 0h1m1 0h1m3 0h3m1 0h1m2 0h1m1 0h1m1 0h1m2 0h1m1 0h3m1 0h2m1 0h2m2 0h4m1 0h2M9 60.5h2m1 0h5m3 0h1m1 0h6m1 0h2m1 0h3m2 0h1m3 0h1m2 0h1m2 0h1m1 0h2m1 0h1m6 0h1m8 0h1m1 0h1M11 61.5h3m1 0h3m2 0h1m5 0h3m1 0h2m3 0h2m1 0h1m1 0h2m1 0h6m4 0h1m1 0h1m1 0h1m1 0h2m3 0h2m4 0h3M4 62.5h1m1 0h1m1 0h6m1 0h2m4 0h1m1 0h1m2 0h1m1 0h2m2 0h1m1 0h1m1 0h2m1 0h1m2 0h1m1 0h1m2 0h1m1 0h2m1 0h1m1 0h1m3 0h1m2 0h2m5 0h1m2 0h1M4 63.5h1m9 0h1m1 0h4m2 0h3m3 0h1m2 0h5m1 0h4m2 0h2m1 0h3m1 0h1m3 0h8m1 0h1m1 0h1m1 0h1m1 0h4M4 64.5h1m2 0h2m1 0h2m3 0h1m2 0h1m1 0h2m7 0h1m2 0h1m1 0h1m1 0h5m1 0h1m2 0h3m1 0h5m1 0h1m1 0h3m2 0h1m1 0h5m2 0h2M12 65.5h1m4 0h2m1 0h2m1 0h5m1 0h1m6 0h1m3 0h2m3 0h3m1 0h1m3 0h1m2 0h5m2 0h2m3 0h3m1 0h1M4 66.5h7m2 0h1m1 0h2m1 0h1m3 0h4m1 0h3m1 0h2m1 0h3m1 0h1m1 0h1m1 0h1m4 0h1m1 0h4m1 0h2m3 0h6m1 0h1m1 0h1m1 0h2M4 67.5h1m5 0h1m1 0h1m3 0h2m2 0h1m1 0h2m2 0h2m1 0h2m2 0h4m3 0h1m1 0h1m1 0h1m1 0h1m6 0h5m2 0h2m2 0h1m3 0h1m1 0h1m1 0h1M4 68.5h1m1 0h3m1 0h1m1 0h2m1 0h2m2 0h1m2 0h6m1 0h1m1 0h2m1 0h1m1 0h6m3 0h1m1 0h4m1 0h1m1 0h1m2 0h1m1 0h1m2 0h1m1 0h5m3 0h1M4 69.5h1m1 0h3m1 0h1m1 0h2m2 0h2m1 0h2m1 0h2m3 0h1m1 0h1m3 0h4m2 0h3m4 0h1m1 0h1m2 0h4m2 0h5m3 0h1m1 0h2m1 0h1M4 70.5h1m1 0h3m1 0h1m1 0h1m1 0h1m1 0h6m1 0h1m2 0h3m1 0h4m2 0h1m1 0h5m4 0h6m4 0h1m2 0h5m2 0h1m1 0h1M4 71.5h1m5 0h1m6 0h1m1 0h1m1 0h2m1 0h3m3 0h2m4 0h1m1 0h1m1 0h1m2 0h3m2 0h2m1 0h1m1 0h2m1 0h2m2 0h1m1 0h2m1 0h1m1 0h1m1 0h2M4 72.5h7m1 0h2m2 0h3m2 0h1m5 0h2m1 0h2m1 0h1m1 0h1m1 0h1m1 0h2m1 0h1m6 0h4m2 0h1m1 0h3m1 0h3m1 0h3m3 0h1"/>
      </g>
      <text x="98" y="186" text-anchor="middle" fill="#050606" font-family="Arial Black, Impact, sans-serif" font-size="26" letter-spacing="3">SCAN</text>
    </g>
  </g>
</svg>
