<svg xmlns="http://www.w3.org/2000/svg" viewBox="0 0 2550 3300" role="img" aria-labelledby="title desc">
  <title id="title">Drop 001 No More Half-City Printer Ready Sticker</title>
  <desc id="desc">A letter-size printer-ready sticker with a distinct QR code linking to https://neocolumbus.github.io/Project-Columbus/site/signal/?drop=001&amp;source=sticker-008&amp;kind=Neighborhood&amp;break=This+place+is+treated+like+a+fragment.&amp;line=No+more+half-city.&amp;asset=008-no-more-half-city-sticker#field-card.</desc>
  <defs>
    <clipPath id="single-poster">
      <rect width="1640" height="2050" rx="44"/>
    </clipPath>
    <g id="single-frame">
      <rect x="-48" y="-48" width="1736" height="2506" rx="74" fill="#F6F0E4"/>
      <rect x="-48" y="-48" width="1736" height="2506" rx="74" fill="none" stroke="#050606" stroke-width="18"/>
    </g>
    <g id="single-qr">
      <rect width="300" height="360" fill="#F6F0E4" stroke="#050606" stroke-width="14"/>
      <g transform="translate(28 24) scale(3.536232)" shape-rendering="crispEdges">
        <rect width="69" height="69" fill="#F6F0E4"/>
        <path stroke="#050606" d="M4 4.5h7m2 0h1m2 0h3m2 0h1m3 0h2m5 0h2m1 0h1m1 0h1m2 0h2m2 0h3m4 0h3m1 0h2m1 0h7M4 5.5h1m5 0h1m5 0h1m2 0h1m2 0h1m3 0h2m1 0h6m2 0h2m3 0h2m1 0h1m1 0h1m1 0h2m1 0h2m1 0h2m1 0h1m5 0h1M4 6.5h1m1 0h3m1 0h1m1 0h1m1 0h3m1 0h2m1 0h1m2 0h1m1 0h4m2 0h4m2 0h1m2 0h2m1 0h2m2 0h1m1 0h2m2 0h3m1 0h1m1 0h3m1 0h1M4 7.5h1m1 0h3m1 0h1m1 0h3m1 0h1m2 0h4m2 0h1m1 0h3m1 0h2m1 0h1m2 0h2m1 0h1m1 0h1m4 0h1m3 0h4m1 0h1m1 0h1m1 0h3m1 0h1M4 8.5h1m1 0h3m1 0h1m1 0h1m1 0h1m3 0h1m1 0h2m1 0h3m1 0h1m2 0h1m1 0h5m1 0h1m1 0h4m1 0h1m1 0h2m2 0h5m2 0h1m1 0h3m1 0h1M4 9.5h1m5 0h1m1 0h2m1 0h2m1 0h4m1 0h1m1 0h8m3 0h2m1 0h2m5 0h1m2 0h2m3 0h1m3 0h1m5 0h1M4 10.5h7m1 0h1m1 0h1m1 0h1m1 0h1m1 0h1m1 0h1m1 0h1m1 0h1m1 0h1m1 0h1m1 0h1m1 0h1m1 0h1m1 0h1m1 0h1m1 0h1m1 0h1m1 0h1m1 0h1m1 0h1m1 0h1m1 0h1m1 0h1m1 0h7M12 11.5h2m2 0h2m1 0h3m1 0h1m2 0h2m1 0h1m1 0h2m3 0h1m1 0h2m1 0h2m1 0h3m1 0h1m2 0h1m1 0h3M4 12.5h1m1 0h5m2 0h2m1 0h4m4 0h6m1 0h6m1 0h3m1 0h1m2 0h1m1 0h1m4 0h1m1 0h3m1 0h5M6 13.5h1m1 0h2m1 0h3m1 0h3m1 0h2m1 0h1m1 0h1m6 0h4m1 0h1m2 0h3m3 0h4m3 0h2m3 0h3m3 0h1M7 14.5h4m1 0h1m2 0h1m3 0h3m1 0h3m1 0h1m3 0h2m2 0h1m1 0h4m1 0h1m1 0h1m4 0h2m1 0h1m1 0h1m5 0h5M4 15.5h4m1 0h1m1 0h1m1 0h1m1 0h2m2 0h2m1 0h2m2 0h4m3 0h3m1 0h1m5 0h3m2 0h1m1 0h2m1 0h2m1 0h5m2 0h1M5 16.5h2m1 0h1m1 0h2m1 0h5m1 0h2m2 0h1m5 0h1m1 0h2m2 0h9m1 0h1m1 0h1m3 0h6m1 0h2m1 0h3M8 17.5h2m1 0h1m1 0h5m2 0h1m1 0h2m2 0h1m1 0h1m1 0h2m4 0h2m3 0h1m1 0h4m1 0h2m2 0h1m5 0h1m2 0h3M4 18.5h3m1 0h5m1 0h1m2 0h3m1 0h3m2 0h1m5 0h2m3 0h2m1 0h4m1 0h1m1 0h2m1 0h2m1 0h2m8 0h2M4 19.5h3m2 0h1m1 0h2m1 0h5m3 0h1m1 0h1m1 0h2m1 0h1m1 0h1m1 0h3m1 0h4m4 0h2m2 0h1m7 0h1m2 0h2m1 0h2M4 20.5h2m1 0h2m1 0h3m2 0h1m10 0h1m1 0h2m1 0h1m3 0h1m2 0h1m1 0h1m1 0h2m1 0h2m3 0h1m1 0h2m1 0h5m1 0h2M4 21.5h1m1 0h4m2 0h4m2 0h3m2 0h3m1 0h2m1 0h1m2 0h1m2 0h1m2 0h3m4 0h1m1 0h2m2 0h2m1 0h1m1 0h3m1 0h1M4 22.5h1m1 0h2m2 0h3m4 0h5m2 0h4m3 0h3m3 0h2m1 0h1m1 0h2m5 0h4m1 0h2m2 0h1m1 0h3m1 0h1M4 23.5h3m1 0h2m1 0h7m1 0h2m1 0h2m3 0h1m1 0h1m3 0h2m3 0h2m1 0h1m2 0h1m2 0h2m1 0h1m2 0h2m1 0h1m1 0h3m2 0h1M4 24.5h1m2 0h1m1 0h2m1 0h1m2 0h2m2 0h1m1 0h2m1 0h1m1 0h1m6 0h1m2 0h1m3 0h2m3 0h3m1 0h1m1 0h7m3 0h3M5 25.5h1m1 0h1m4 0h1m3 0h3m1 0h1m1 0h5m1 0h2m3 0h1m2 0h1m3 0h2m2 0h1m1 0h2m4 0h2m3 0h3m3 0h1M4 26.5h2m3 0h2m4 0h1m1 0h1m1 0h2m3 0h5m8 0h2m1 0h4m4 0h3m2 0h2m1 0h1m2 0h1m1 0h1m1 0h2M5 27.5h2m4 0h4m2 0h2m2 0h1m1 0h1m1 0h1m1 0h2m1 0h2m1 0h1m3 0h1m6 0h1m1 0h1m1 0h2m3 0h1m2 0h1m1 0h1m1 0h1m3 0h1M4 28.5h1m1 0h1m2 0h3m2 0h1m1 0h1m1 0h1m1 0h1m2 0h2m1 0h4m4 0h2m3 0h3m3 0h3m2 0h3m1 0h4m1 0h1m1 0h4M5 29.5h1m1 0h1m6 0h1m1 0h2m1 0h1m1 0h1m2 0h3m1 0h4m2 0h1m2 0h1m1 0h2m3 0h1m1 0h2m4 0h2m1 0h1m2 0h4M7 30.5h1m1 0h4m2 0h3m1 0h2m2 0h2m1 0h8m1 0h2m2 0h3m1 0h4m2 0h2m3 0h4m1 0h4m1 0h1M8 31.5h2m3 0h1m1 0h1m1 0h2m6 0h1m2 0h1m1 0h1m2 0h2m1 0h3m3 0h1m1 0h1m2 0h2m1 0h2m1 0h1m1 0h1m1 0h2m1 0h1M4 32.5h2m1 0h6m1 0h4m1 0h2m1 0h1m2 0h2m2 0h1m2 0h10m1 0h1m1 0h3m3 0h3m1 0h9M5 33.5h2m1 0h1m3 0h2m1 0h1m3 0h2m6 0h2m1 0h3m3 0h1m2 0h1m1 0h1m3 0h2m1 0h1m2 0h1m1 0h1m2 0h1m3 0h1m1 0h1M5 34.5h4m1 0h1m1 0h2m3 0h1m4 0h1m1 0h4m1 0h1m2 0h1m1 0h1m1 0h3m3 0h1m2 0h1m1 0h1m1 0h3m2 0h1m1 0h1m1 0h1m1 0h2m1 0h2M4 35.5h1m1 0h3m3 0h1m1 0h3m1 0h1m3 0h4m2 0h3m1 0h1m3 0h1m1 0h2m1 0h1m1 0h4m1 0h2m3 0h4m3 0h1M5 36.5h1m2 0h6m3 0h3m1 0h2m1 0h4m1 0h1m2 0h5m2 0h2m4 0h2m2 0h1m1 0h4m1 0h7m1 0h1M4 37.5h1m13 0h3m1 0h4m1 0h2m1 0h1m1 0h1m2 0h3m2 0h2m3 0h5m1 0h1m1 0h1m3 0h1m1 0h1m2 0h1M8 38.5h3m2 0h1m1 0h1m1 0h1m1 0h1m3 0h4m2 0h3m4 0h1m1 0h1m1 0h1m1 0h1m2 0h1m4 0h2m2 0h1m2 0h4m2 0h2M12 39.5h2m2 0h1m3 0h2m2 0h4m4 0h2m1 0h1m2 0h1m1 0h2m1 0h1m4 0h3m3 0h1m1 0h1m6 0h1M4 40.5h2m3 0h4m1 0h1m1 0h1m3 0h2m1 0h1m1 0h1m3 0h1m1 0h1m1 0h3m1 0h1m1 0h1m1 0h1m2 0h2m4 0h6m1 0h4m1 0h1m1 0h1M4 41.5h1m1 0h1m8 0h1m1 0h1m1 0h1m1 0h2m2 0h1m1 0h2m1 0h1m1 0h1m2 0h2m4 0h1m1 0h4m5 0h1m6 0h1m1 0h4M4 42.5h3m1 0h3m5 0h3m3 0h1m3 0h2m1 0h3m2 0h1m1 0h4m2 0h1m1 0h1m2 0h1m2 0h2m1 0h3m1 0h2m2 0h1m1 0h1M4 43.5h1m8 0h2m2 0h1m1 0h4m1 0h2m1 0h2m1 0h1m1 0h4m2 0h2m1 0h1m2 0h2m2 0h1m7 0h1m2 0h1m4 0h1M6 44.5h1m2 0h2m1 0h1m2 0h1m3 0h2m2 0h1m1 0h1m2 0h3m1 0h1m1 0h5m1 0h1m6 0h1m1 0h4m1 0h4m2 0h1m1 0h1m1 0h1M4 45.5h2m3 0h1m1 0h1m4 0h1m3 0h1m1 0h1m4 0h1m4 0h1m3 0h1m3 0h1m5 0h4m1 0h1m1 0h1m1 0h1m3 0h1m3 0h1M4 46.5h2m4 0h1m5 0h1m2 0h1m3 0h2m1 0h1m2 0h1m1 0h1m2 0h5m1 0h4m5 0h2m3 0h2m1 0h2m4 0h2M5 47.5h1m2 0h2m1 0h2m1 0h3m1 0h2m1 0h1m1 0h3m1 0h1m1 0h1m1 0h2m5 0h1m2 0h5m2 0h2m4 0h1m4 0h1m1 0h1m1 0h2M10 48.5h2m4 0h1m2 0h2m3 0h2m3 0h1m3 0h2m2 0h4m1 0h2m3 0h1m3 0h3m1 0h2m3 0h3M5 49.5h3m1 0h1m1 0h1m2 0h1m2 0h3m4 0h1m2 0h6m5 0h1m1 0h3m1 0h2m6 0h2m2 0h2m1 0h1m1 0h2M5 50.5h1m2 0h1m1 0h1m3 0h2m1 0h2m1 0h1m1 0h1m1 0h1m2 0h3m4 0h4m1 0h2m2 0h1m2 0h3m1 0h3m1 0h1m1 0h3m1 0h2m2 0h1M5 51.5h1m1 0h2m3 0h1m1 0h2m5 0h1m2 0h1m1 0h2m1 0h1m2 0h4m5 0h6m1 0h2m3 0h2m1 0h1m2 0h2m3 0h1M10 52.5h1m12 0h1m5 0h1m4 0h3m2 0h4m3 0h1m2 0h8m3 0h5M6 53.5h1m2 0h1m5 0h3m4 0h1m2 0h4m1 0h1m2 0h2m4 0h1m4 0h4m5 0h1m1 0h2m2 0h1m1 0h2M6 54.5h5m1 0h1m5 0h1m2 0h1m3 0h1m1 0h7m1 0h1m1 0h2m1 0h1m1 0h2m6 0h1m1 0h1m1 0h2m2 0h3m2 0h2M4 55.5h3m1 0h1m2 0h3m2 0h3m3 0h1m2 0h5m1 0h3m3 0h1m1 0h2m1 0h1m1 0h1m1 0h4m3 0h1m5 0h2m3 0h1M4 56.5h4m2 0h1m1 0h3m2 0h5m1 0h2m1 0h1m2 0h1m1 0h7m1 0h3m5 0h1m1 0h1m1 0h2m2 0h8M12 57.5h5m1 0h3m1 0h1m1 0h5m1 0h3m3 0h2m1 0h1m1 0h1m1 0h1m1 0h3m1 0h1m1 0h1m1 0h1m2 0h1m3 0h2m1 0h1M4 58.5h7m2 0h2m1 0h4m1 0h1m2 0h6m2 0h1m1 0h1m1 0h1m1 0h2m2 0h3m2 0h1m2 0h1m1 0h3m1 0h1m1 0h1m1 0h1m1 0h3M4 59.5h1m5 0h1m1 0h1m5 0h1m1 0h1m1 0h4m4 0h1m1 0h1m3 0h5m7 0h2m3 0h2m1 0h1m3 0h1m2 0h1M4 60.5h1m1 0h3m1 0h1m1 0h1m5 0h3m5 0h1m4 0h6m3 0h2m1 0h1m1 0h3m1 0h1m1 0h3m2 0h5m1 0h2M4 61.5h1m1 0h3m1 0h1m1 0h4m1 0h1m1 0h1m5 0h1m2 0h1m1 0h1m1 0h4m3 0h3m3 0h2m1 0h1m2 0h3m2 0h2m1 0h2m3 0h1M4 62.5h1m1 0h3m1 0h1m1 0h4m2 0h1m2 0h1m1 0h2m1 0h2m3 0h2m4 0h2m1 0h4m1 0h1m3 0h5m5 0h1m1 0h1m2 0h1M4 63.5h1m5 0h1m3 0h1m1 0h1m1 0h1m1 0h2m1 0h1m2 0h1m1 0h2m1 0h2m3 0h1m1 0h2m1 0h6m1 0h1m1 0h1m2 0h1m1 0h6m3 0h1M4 64.5h7m1 0h4m1 0h1m1 0h4m1 0h1m2 0h2m4 0h2m3 0h1m1 0h2m5 0h1m4 0h2m1 0h1m3 0h2m1 0h3"/>
      </g>
      <text x="150" y="326" text-anchor="middle" fill="#050606" font-family="Arial Black, Impact, sans-serif" font-size="48" letter-spacing="7">SCAN</text>
    </g>
  </defs>
  <rect width="2550" height="3300" fill="#F6F0E4"/>
  <text x="150" y="194" fill="#050606" font-family="Arial Black, Impact, sans-serif" font-size="74" letter-spacing="5">DROP 001 / STICKER / QR</text>
  <text x="150" y="278" fill="#9D4732" font-family="Arial Black, Impact, sans-serif" font-size="34" letter-spacing="5">NO MORE HALF-CITY</text>

  <g transform="translate(455 450)">
    <use href="#single-frame"/>
    <g clip-path="url(#single-poster)">
      <g transform="matrix(1.518519 0 0 1.518519 0.000000 0.000000)">
        <rect width="1080" height="1350" fill="#050606"/>
          <rect x="58" y="58" width="964" height="1234" fill="#061620"/>
          <rect x="58" y="58" width="964" height="104" fill="#F4B037"/>
          <text x="92" y="124" fill="#050606" font-family="Arial Black, Impact, sans-serif" font-size="34" letter-spacing="5">FULL CITY COLUMBUS</text>
          <g opacity="0.5">
            <path d="M514 260 H960 M514 398 H960 M514 536 H960 M514 674 H960 M514 812 H960 M514 950 H960" stroke="#4F8A74" stroke-width="8"/>
            <path d="M620 214 V1040 M766 214 V1040 M912 214 V1040" stroke="#4F8A74" stroke-width="8"/>
          </g>
          <g transform="translate(790 602)">
            <path d="M-260 0 H260 M0 -260 V260" stroke="#E8DDC7" stroke-width="22"/>
            <path d="M-260 0 H260 M0 -260 V260" stroke="#B77836" stroke-width="7"/>
            <circle r="174" fill="#E8DDC7"/>
            <circle r="132" fill="#061620"/>
            <circle r="76" fill="none" stroke="#E8DDC7" stroke-width="24"/>
            <circle r="40" fill="none" stroke="#B77836" stroke-width="11"/>
            <circle r="28" fill="#F4B037"/>
          </g>
          <text x="84" y="402" fill="#E8DDC7" font-family="Impact, Arial Black, sans-serif" font-size="158">NO MORE</text>
          <text x="84" y="582" fill="#F4B037" font-family="Impact, Arial Black, sans-serif" font-size="158">HALF</text>
          <text x="84" y="762" fill="#F4B037" font-family="Impact, Arial Black, sans-serif" font-size="158">CITY</text>
          <text x="88" y="1080" fill="#E8DDC7" font-family="Arial Black, Impact, sans-serif" font-size="38" letter-spacing="5">BUILD THE WHOLE BODY</text>
          <rect x="58" y="1216" width="964" height="76" fill="#F4B037"/>
          <text x="90" y="1268" fill="#050606" font-family="Arial Black, Impact, sans-serif" font-size="30" letter-spacing="4">NO MORE FRAGMENTS / DROP 001</text>
          <text x="540" y="1332" text-anchor="middle" fill="#E8DDC7" font-family="Arial Black, Impact, sans-serif" font-size="19" letter-spacing="2">neocolumbus.github.io/Project-Columbus/site/signal</text>
      </g>
    </g>
    <rect y="2050" width="1640" height="360" fill="#F6F0E4"/>
    <text x="72" y="2200" fill="#050606" font-family="Arial Black, Impact, sans-serif" font-size="44" letter-spacing="5">SCAN THE SIGNAL</text>
    <text x="72" y="2278" fill="#9D4732" font-family="Arial Black, Impact, sans-serif" font-size="26" letter-spacing="4">SOURCE STICKER-008 / PRINTER READY</text>
    <use href="#single-qr" transform="translate(1296 2074)"/>
  </g>

  <text x="150" y="3148" fill="#050606" font-family="Arial Black, Impact, sans-serif" font-size="40" letter-spacing="5">LETTER PDF / CUT ONE BIG STICKER / TEST EVERY SCAN</text>
</svg>
