<svg xmlns="http://www.w3.org/2000/svg" viewBox="0 0 1080 1350" role="img" aria-labelledby="title desc">
  <title id="title">The Machine Pays Tribute With QR</title>
  <desc id="desc">A Drop 001 standalone QR poster linking to https://neocolumbus.github.io/Project-Columbus/site/signal/?drop=001&amp;source=poster-005&amp;kind=Machine&amp;break=Water%2C+power%2C+land%2C+tax%2C+compute%2C+or+data+is+being+treated+as+extraction.&amp;line=The+machine+pays+tribute.#field-card. Poster art is inlined for GitHub-safe rendering.</desc>
  <g transform="matrix(1.000000 0 0 1.000000 0.000000 0.000000)">
    <rect width="1080" height="1350" fill="#17352F"/>
      <g opacity="0.78">
        <path d="M0 160h1080M0 280h1080M0 400h1080M0 520h1080M0 640h1080M0 760h1080M0 880h1080M0 1000h1080M0 1120h1080" stroke="#4F8A74" stroke-width="4"/>
        <path d="M120 0v1350M240 0v1350M360 0v1350M480 0v1350M600 0v1350M720 0v1350M840 0v1350M960 0v1350" stroke="#4F8A74" stroke-width="4"/>
      </g>
      <g transform="translate(540 372)">
        <rect x="-214" y="-214" width="428" height="428" fill="#061620" stroke="#E8DDC7" stroke-width="18"/>
        <path d="M-314 0h628M0-300v600" stroke="#F4B037" stroke-width="18"/>
        <circle r="156" fill="none" stroke="#E8DDC7" stroke-width="30"/>
        <circle r="58" fill="#F4B037"/>
      </g>
      <rect x="64" y="64" width="952" height="80" fill="#F4B037"/>
      <text x="98" y="118" fill="#050606" font-family="Arial Black, Impact, sans-serif" font-size="34" letter-spacing="5">AI CIVIC DIVIDEND / PUBLIC TEST</text>
      <text x="86" y="724" fill="#F4B037" font-family="Impact, Arial Black, sans-serif" font-size="146">THE</text>
      <text x="86" y="876" fill="#E8DDC7" font-family="Impact, Arial Black, sans-serif" font-size="146">MACHINE</text>
      <text x="86" y="1028" fill="#E8DDC7" font-family="Impact, Arial Black, sans-serif" font-size="146">PAYS</text>
      <text x="86" y="1180" fill="#F4B037" font-family="Impact, Arial Black, sans-serif" font-size="146">TRIBUTE</text>
      <text x="88" y="1254" fill="#E8DDC7" font-family="Arial Black, Impact, sans-serif" font-size="30" letter-spacing="4">WATER / POWER / LAND / TAX / COMPUTE / DATA</text>
      <text x="540" y="1332" text-anchor="middle" fill="#E8DDC7" font-family="Arial Black, Impact, sans-serif" font-size="19" letter-spacing="2">neocolumbus.github.io/Project-Columbus/site/signal</text>
  </g>
  <g transform="translate(796 1008)">
    <rect width="196" height="196" fill="#F6F0E4" stroke="#050606" stroke-width="8"/>
    <g transform="translate(18 14) scale(2.318841)">
      <rect width="69" height="69" fill="#F6F0E4"/>
      <path stroke="#050606" d="M4 4.5h7m2 0h2m2 0h5m1 0h2m2 0h1m4 0h2m1 0h1m3 0h1m1 0h1m2 0h3m2 0h1m1 0h1m1 0h1m1 0h2m1 0h7M4 5.5h1m5 0h1m5 0h2m1 0h3m1 0h1m4 0h7m3 0h1m1 0h1m1 0h3m2 0h1m1 0h5m1 0h2m1 0h1m5 0h1M4 6.5h1m1 0h3m1 0h1m1 0h2m1 0h1m1 0h6m1 0h3m1 0h2m2 0h4m2 0h1m4 0h2m2 0h2m2 0h1m2 0h3m1 0h1m1 0h3m1 0h1M4 7.5h1m1 0h3m1 0h1m1 0h2m1 0h3m3 0h1m2 0h1m3 0h2m2 0h1m1 0h1m2 0h5m3 0h2m4 0h2m1 0h1m1 0h1m1 0h1m1 0h3m1 0h1M4 8.5h1m1 0h3m1 0h1m1 0h2m5 0h4m1 0h1m5 0h7m1 0h1m1 0h2m1 0h5m3 0h1m1 0h3m2 0h1m1 0h3m1 0h1M4 9.5h1m5 0h1m1 0h2m4 0h7m1 0h1m2 0h4m3 0h2m1 0h4m1 0h1m2 0h1m2 0h1m3 0h1m3 0h1m5 0h1M4 10.5h7m1 0h1m1 0h1m1 0h1m1 0h1m1 0h1m1 0h1m1 0h1m1 0h1m1 0h1m1 0h1m1 0h1m1 0h1m1 0h1m1 0h1m1 0h1m1 0h1m1 0h1m1 0h1m1 0h1m1 0h1m1 0h1m1 0h1m1 0h1m1 0h7M12 11.5h1m2 0h1m3 0h1m1 0h2m6 0h1m2 0h1m3 0h1m1 0h1m2 0h2m1 0h3m1 0h1m2 0h1m1 0h3M4 12.5h1m1 0h5m2 0h1m1 0h2m2 0h1m1 0h1m1 0h1m1 0h3m1 0h1m1 0h6m1 0h1m1 0h1m1 0h1m2 0h1m1 0h1m4 0h1m1 0h3m1 0h5M4 13.5h3m2 0h1m1 0h4m3 0h2m4 0h1m1 0h1m3 0h1m5 0h1m4 0h1m3 0h4m3 0h2m1 0h1m1 0h3m2 0h1M9 14.5h4m2 0h4m3 0h2m2 0h1m1 0h2m2 0h2m3 0h2m1 0h1m1 0h1m1 0h1m4 0h2m1 0h1m1 0h1m1 0h1m3 0h1m1 0h3M4 15.5h1m1 0h2m3 0h1m1 0h1m1 0h1m1 0h2m3 0h1m3 0h1m1 0h2m3 0h2m1 0h1m1 0h1m4 0h3m2 0h1m1 0h2m1 0h3m3 0h2M4 16.5h3m1 0h3m1 0h1m1 0h1m2 0h1m1 0h1m2 0h1m4 0h1m1 0h1m1 0h1m3 0h2m2 0h2m2 0h1m1 0h1m1 0h1m3 0h7m1 0h1m2 0h3M4 17.5h1m8 0h1m3 0h1m1 0h1m2 0h2m2 0h2m1 0h3m4 0h2m3 0h1m1 0h4m1 0h2m2 0h1m5 0h1m2 0h1m1 0h1M4 18.5h1m1 0h1m1 0h3m1 0h1m1 0h2m2 0h1m5 0h4m1 0h3m1 0h1m4 0h1m1 0h1m1 0h2m1 0h1m1 0h2m1 0h2m1 0h3m1 0h1m4 0h3M5 19.5h2m4 0h2m1 0h1m1 0h1m4 0h2m2 0h2m1 0h2m3 0h5m1 0h3m1 0h2m1 0h1m1 0h2m1 0h1m1 0h1m3 0h2m1 0h1m2 0h2M6 20.5h1m1 0h1m1 0h6m2 0h2m2 0h1m1 0h1m1 0h1m1 0h2m10 0h1m6 0h1m1 0h1m1 0h3m1 0h2m1 0h1m2 0h2M4 21.5h1m4 0h1m1 0h1m2 0h1m1 0h1m2 0h2m1 0h2m1 0h1m1 0h3m2 0h3m1 0h1m2 0h2m3 0h3m1 0h1m4 0h1m1 0h1m1 0h3m1 0h1M4 22.5h1m2 0h2m1 0h1m1 0h1m1 0h5m1 0h1m1 0h4m5 0h2m2 0h1m2 0h1m1 0h1m1 0h2m2 0h2m1 0h2m1 0h4m3 0h1m1 0h2m1 0h1M9 23.5h1m1 0h2m2 0h2m1 0h1m2 0h1m1 0h3m1 0h3m3 0h2m1 0h1m4 0h1m1 0h8m3 0h1m1 0h1m2 0h2m2 0h2M4 24.5h3m1 0h1m1 0h1m1 0h2m2 0h5m1 0h1m5 0h1m6 0h1m1 0h1m1 0h3m1 0h1m1 0h3m2 0h8m1 0h1m1 0h2M4 25.5h1m3 0h2m1 0h3m4 0h1m1 0h1m3 0h6m3 0h1m2 0h1m2 0h3m2 0h4m5 0h1m3 0h3M4 26.5h3m1 0h1m1 0h1m2 0h6m2 0h1m1 0h2m1 0h1m10 0h2m1 0h4m6 0h2m2 0h1m1 0h2m3 0h1m1 0h2M6 27.5h3m5 0h2m2 0h1m2 0h4m1 0h1m3 0h2m1 0h1m3 0h1m1 0h1m3 0h4m1 0h1m5 0h1m1 0h1m1 0h1m1 0h1m2 0h2M4 28.5h1m1 0h1m1 0h1m1 0h2m2 0h2m2 0h1m1 0h1m2 0h1m3 0h3m4 0h2m3 0h2m1 0h1m2 0h2m2 0h1m2 0h3m1 0h2m1 0h1m1 0h2m1 0h1M5 29.5h1m1 0h3m1 0h5m3 0h2m1 0h1m1 0h3m1 0h4m2 0h1m2 0h1m1 0h1m1 0h1m3 0h2m1 0h1m2 0h1m1 0h1m4 0h2m1 0h1M4 30.5h1m1 0h1m1 0h1m1 0h1m2 0h4m3 0h1m4 0h4m2 0h3m1 0h2m5 0h2m5 0h2m1 0h3m2 0h1m3 0h4M5 31.5h2m5 0h4m3 0h1m1 0h1m2 0h3m1 0h2m3 0h2m1 0h4m2 0h1m1 0h1m2 0h2m1 0h2m1 0h1m1 0h4m1 0h1m2 0h1M5 32.5h1m1 0h6m4 0h1m1 0h2m1 0h1m1 0h1m4 0h1m1 0h11m1 0h1m1 0h3m3 0h3m2 0h5m1 0h1M4 33.5h3m1 0h1m3 0h2m2 0h2m2 0h4m1 0h4m1 0h1m1 0h1m3 0h1m2 0h3m3 0h2m1 0h1m2 0h1m1 0h1m2 0h1m3 0h2M5 34.5h1m2 0h1m1 0h1m1 0h1m4 0h1m1 0h5m1 0h1m1 0h1m1 0h1m2 0h1m1 0h1m1 0h5m1 0h1m2 0h1m1 0h1m1 0h3m2 0h1m1 0h1m1 0h1m1 0h3m1 0h1M4 35.5h2m1 0h2m3 0h1m1 0h1m6 0h4m7 0h1m3 0h2m1 0h1m1 0h6m1 0h2m3 0h4m3 0h2m1 0h2M5 36.5h2m1 0h7m1 0h6m1 0h1m1 0h2m1 0h2m2 0h6m1 0h4m2 0h2m2 0h1m1 0h4m1 0h9M6 37.5h1m1 0h2m6 0h1m1 0h2m1 0h2m1 0h5m1 0h1m1 0h1m2 0h3m2 0h2m3 0h5m1 0h1m1 0h1m1 0h1m1 0h1m1 0h1m1 0h2M5 38.5h1m1 0h6m4 0h2m2 0h2m1 0h3m2 0h1m1 0h2m3 0h1m1 0h1m1 0h3m2 0h1m4 0h2m2 0h1m1 0h6m1 0h2M5 39.5h1m1 0h2m3 0h1m2 0h3m8 0h1m1 0h1m2 0h4m2 0h2m1 0h2m1 0h2m1 0h1m1 0h1m1 0h1m5 0h1m6 0h1M4 40.5h1m3 0h1m1 0h3m1 0h1m2 0h1m1 0h1m2 0h2m1 0h1m3 0h1m2 0h3m1 0h2m1 0h1m1 0h1m3 0h1m1 0h1m2 0h3m1 0h4m1 0h4m1 0h1M4 41.5h1m6 0h2m5 0h1m3 0h2m1 0h1m1 0h2m1 0h1m4 0h3m8 0h3m2 0h2m2 0h1m1 0h3m1 0h2M5 42.5h3m2 0h1m8 0h1m1 0h2m2 0h1m1 0h5m2 0h1m2 0h3m1 0h2m1 0h1m5 0h1m3 0h2m1 0h2m2 0h1m1 0h1M4 43.5h3m1 0h2m6 0h5m1 0h1m1 0h3m3 0h4m1 0h1m1 0h2m3 0h1m1 0h3m1 0h1m7 0h4m4 0h1M5 44.5h1m2 0h1m1 0h2m1 0h1m1 0h3m1 0h4m1 0h1m3 0h7m1 0h1m2 0h2m5 0h2m1 0h1m1 0h2m1 0h3m1 0h1m1 0h1m1 0h1m1 0h1M7 45.5h2m7 0h2m1 0h1m1 0h1m1 0h1m1 0h3m4 0h1m8 0h1m4 0h2m3 0h3m1 0h1m1 0h3M10 46.5h2m1 0h2m1 0h3m1 0h1m1 0h2m1 0h1m3 0h1m1 0h1m1 0h1m2 0h3m1 0h4m3 0h1m2 0h1m3 0h2m2 0h1m1 0h1m2 0h2M7 47.5h2m4 0h2m3 0h1m2 0h2m1 0h1m2 0h1m1 0h1m1 0h2m1 0h1m3 0h1m2 0h1m1 0h3m1 0h2m3 0h2m5 0h3m1 0h2M4 48.5h2m2 0h1m1 0h1m2 0h1m2 0h2m2 0h1m2 0h2m1 0h1m2 0h1m3 0h3m1 0h2m1 0h1m5 0h2m3 0h2m2 0h2m1 0h1m1 0h4M5 49.5h2m1 0h1m3 0h2m2 0h1m1 0h2m3 0h2m1 0h1m1 0h5m2 0h1m2 0h2m3 0h1m1 0h3m1 0h1m3 0h1m2 0h1m1 0h2m1 0h1M4 50.5h2m1 0h6m2 0h2m10 0h2m5 0h4m2 0h1m1 0h1m1 0h1m2 0h1m1 0h2m1 0h3m1 0h3m2 0h2m1 0h1M4 51.5h1m6 0h5m4 0h1m1 0h1m1 0h1m2 0h4m1 0h4m5 0h6m1 0h2m3 0h2m1 0h1m2 0h1m3 0h1M4 52.5h2m1 0h1m2 0h3m3 0h2m1 0h1m1 0h2m2 0h3m1 0h1m4 0h3m2 0h4m3 0h1m2 0h8m3 0h3m1 0h1M4 53.5h6m1 0h3m1 0h2m4 0h6m1 0h1m1 0h1m1 0h3m5 0h1m3 0h4m5 0h1m1 0h1m3 0h1m1 0h2M6 54.5h6m4 0h2m2 0h2m1 0h2m1 0h4m1 0h3m1 0h1m1 0h4m1 0h2m6 0h1m1 0h1m1 0h2m2 0h2m2 0h3M4 55.5h3m1 0h1m2 0h1m2 0h3m2 0h2m1 0h1m2 0h5m1 0h1m1 0h1m3 0h1m1 0h2m3 0h1m1 0h4m3 0h1m2 0h1m2 0h1M4 56.5h4m2 0h2m1 0h2m1 0h1m3 0h1m4 0h1m6 0h6m1 0h4m4 0h1m1 0h1m1 0h2m2 0h9M12 57.5h1m1 0h2m1 0h1m2 0h2m1 0h3m1 0h2m1 0h3m3 0h2m1 0h1m1 0h1m1 0h1m1 0h3m1 0h1m1 0h1m1 0h1m2 0h1m3 0h4M4 58.5h7m4 0h2m1 0h7m1 0h1m1 0h1m1 0h1m1 0h1m1 0h1m1 0h1m1 0h2m1 0h4m2 0h1m2 0h1m1 0h3m1 0h1m1 0h1m1 0h1m2 0h2M4 59.5h1m5 0h1m1 0h1m1 0h3m2 0h3m1 0h1m2 0h1m5 0h1m3 0h1m3 0h1m2 0h2m3 0h1m4 0h1m1 0h2m3 0h1m2 0h1M4 60.5h1m1 0h3m1 0h1m1 0h3m2 0h4m1 0h3m4 0h1m1 0h6m3 0h1m1 0h2m1 0h1m4 0h4m2 0h8M4 61.5h1m1 0h3m1 0h1m1 0h2m2 0h1m2 0h1m1 0h2m2 0h2m1 0h1m1 0h1m1 0h4m1 0h1m3 0h1m1 0h1m1 0h2m1 0h1m6 0h3m1 0h2m3 0h1M4 62.5h1m1 0h3m1 0h1m1 0h1m2 0h1m1 0h1m1 0h1m3 0h1m1 0h3m4 0h1m5 0h1m1 0h1m6 0h4m1 0h3m4 0h1m1 0h1m2 0h1M4 63.5h1m5 0h1m4 0h2m1 0h2m1 0h2m2 0h2m1 0h2m1 0h3m2 0h1m1 0h2m1 0h1m1 0h2m3 0h2m3 0h1m2 0h5m3 0h1M4 64.5h7m1 0h2m2 0h1m1 0h1m1 0h3m1 0h5m6 0h1m2 0h3m4 0h1m1 0h1m1 0h5m5 0h2m1 0h3"/>
    </g>
    <text x="98" y="186" text-anchor="middle" fill="#050606" font-family="Arial Black, Impact, sans-serif" font-size="26" letter-spacing="3">SCAN</text>
  </g>
</svg>
