<svg xmlns="http://www.w3.org/2000/svg" viewBox="0 0 1080 1350" role="img" aria-labelledby="title desc">
  <title id="title">COTA Is The Nervous System With QR</title>
  <desc id="desc">A Drop 001 standalone QR poster linking to https://neocolumbus.github.io/Project-Columbus/site/signal/?drop=001&amp;source=poster-007&amp;kind=Transit&amp;break=Stop+lacks+shelter%2C+shade%2C+light%2C+crossing%2C+seating%2C+route+information%2C+or+dignity.&amp;line=Transit+is+the+nervous+system.#field-card. Poster art is inlined for GitHub-safe rendering.</desc>
  <g transform="matrix(1.000000 0 0 1.000000 0.000000 0.000000)">
    <rect width="1080" height="1350" fill="#061620"/>
      <rect x="58" y="58" width="964" height="1234" fill="#050606"/>
      <rect x="58" y="58" width="964" height="104" fill="#F4B037"/>
      <text x="92" y="124" fill="#050606" font-family="Arial Black, Impact, sans-serif" font-size="34" letter-spacing="5">TRANSIT 007</text>
      <g opacity="0.42">
        <path d="M474 274 H932 M474 402 H932 M474 530 H932 M474 658 H932 M474 786 H932 M474 914 H932" stroke="#4F8A74" stroke-width="8"/>
        <path d="M560 220 V1040 M690 220 V1040 M820 220 V1040 M950 220 V1040" stroke="#4F8A74" stroke-width="8"/>
      </g>
      <path d="M500 1010 C630 850 620 704 726 650 C820 602 820 724 946 472" fill="none" stroke="#F4B037" stroke-width="34" stroke-linecap="square"/>
      <path d="M488 506 C604 418 706 436 788 548 C878 674 894 730 968 660" fill="none" stroke="#E8DDC7" stroke-width="18" stroke-linecap="square"/>
      <g fill="#F6F0E4" stroke="#050606" stroke-width="14">
        <circle cx="548" cy="920" r="46"/>
        <circle cx="726" cy="650" r="46"/>
        <circle cx="720" cy="610" r="46"/>
        <circle cx="900" cy="504" r="46"/>
      </g>
      <g transform="translate(622 320)">
        <circle r="116" fill="#E8DDC7"/>
        <circle r="84" fill="#061620"/>
        <circle r="44" fill="none" stroke="#E8DDC7" stroke-width="18"/>
        <circle r="24" fill="#F4B037"/>
      </g>
      <text x="86" y="662" fill="#F4B037" font-family="Impact, Arial Black, sans-serif" font-size="116">COTA IS THE</text>
      <text x="86" y="820" fill="#E8DDC7" font-family="Impact, Arial Black, sans-serif" font-size="138">NERVOUS</text>
      <text x="86" y="978" fill="#E8DDC7" font-family="Impact, Arial Black, sans-serif" font-size="138">SYSTEM</text>
      <rect x="58" y="1216" width="964" height="76" fill="#F4B037"/>
      <text x="90" y="1268" fill="#050606" font-family="Arial Black, Impact, sans-serif" font-size="30" letter-spacing="4">FREQUENCY IS DIGNITY / DROP 001</text>
      <text x="540" y="1332" text-anchor="middle" fill="#E8DDC7" font-family="Arial Black, Impact, sans-serif" font-size="19" letter-spacing="2">neocolumbus.github.io/Project-Columbus/site/signal</text>
  </g>
  <g transform="translate(796 1008)">
    <rect width="196" height="196" fill="#F6F0E4" stroke="#050606" stroke-width="8"/>
    <g transform="translate(18 14) scale(2.318841)">
      <rect width="69" height="69" fill="#F6F0E4"/>
      <path stroke="#050606" d="M4 4.5h7m3 0h1m2 0h1m2 0h1m1 0h3m1 0h1m3 0h1m2 0h1m2 0h1m2 0h3m1 0h5m1 0h1m1 0h3m1 0h2m1 0h7M4 5.5h1m5 0h1m4 0h1m1 0h3m5 0h2m1 0h3m1 0h4m1 0h2m3 0h1m2 0h1m1 0h1m2 0h3m2 0h2m1 0h1m5 0h1M4 6.5h1m1 0h3m1 0h1m1 0h1m1 0h4m3 0h2m1 0h1m1 0h4m1 0h1m1 0h3m7 0h3m1 0h3m1 0h1m2 0h3m1 0h1m1 0h3m1 0h1M4 7.5h1m1 0h3m1 0h1m1 0h5m1 0h2m4 0h4m1 0h1m1 0h2m1 0h1m1 0h1m3 0h4m3 0h1m2 0h5m1 0h1m1 0h1m1 0h3m1 0h1M4 8.5h1m1 0h3m1 0h1m1 0h2m7 0h2m2 0h1m2 0h1m1 0h1m1 0h5m2 0h2m3 0h3m2 0h1m1 0h1m1 0h3m2 0h1m1 0h3m1 0h1M4 9.5h1m5 0h1m1 0h1m1 0h1m1 0h2m1 0h1m3 0h2m4 0h1m1 0h2m3 0h5m1 0h2m3 0h4m2 0h2m3 0h1m5 0h1M4 10.5h7m1 0h1m1 0h1m1 0h1m1 0h1m1 0h1m1 0h1m1 0h1m1 0h1m1 0h1m1 0h1m1 0h1m1 0h1m1 0h1m1 0h1m1 0h1m1 0h1m1 0h1m1 0h1m1 0h1m1 0h1m1 0h1m1 0h1m1 0h1m1 0h7M12 11.5h2m2 0h1m1 0h2m4 0h1m6 0h2m3 0h1m1 0h1m2 0h2m1 0h3m1 0h1m2 0h1m1 0h2m1 0h1M4 12.5h1m1 0h5m2 0h1m1 0h1m3 0h3m1 0h3m1 0h1m1 0h1m1 0h6m1 0h1m1 0h1m1 0h1m2 0h1m1 0h1m4 0h1m1 0h3m1 0h5M7 13.5h3m4 0h2m3 0h1m3 0h3m3 0h2m5 0h1m4 0h1m3 0h4m3 0h2m3 0h3m1 0h1M4 14.5h1m2 0h1m1 0h3m3 0h2m1 0h2m1 0h2m4 0h1m4 0h2m3 0h2m1 0h1m1 0h1m1 0h1m4 0h2m1 0h1m1 0h1m5 0h1m1 0h3M4 15.5h1m1 0h4m1 0h3m2 0h3m4 0h2m1 0h1m1 0h1m1 0h2m1 0h4m1 0h1m4 0h3m2 0h1m1 0h2m1 0h2m4 0h2M4 16.5h1m1 0h1m2 0h2m2 0h2m2 0h4m1 0h2m1 0h3m1 0h1m9 0h2m2 0h1m1 0h1m1 0h1m3 0h4m1 0h2m1 0h1m1 0h4M7 17.5h2m2 0h3m3 0h6m1 0h1m1 0h1m9 0h2m3 0h1m1 0h4m1 0h2m2 0h1m5 0h1m4 0h1M7 18.5h1m2 0h2m2 0h2m1 0h1m1 0h1m1 0h1m1 0h1m1 0h1m1 0h2m1 0h1m2 0h3m2 0h1m1 0h1m1 0h2m1 0h1m1 0h2m1 0h2m1 0h2m1 0h2m3 0h4M6 19.5h1m1 0h1m3 0h5m1 0h2m1 0h1m2 0h2m2 0h2m3 0h2m7 0h1m1 0h3m1 0h2m1 0h1m4 0h1m1 0h3m2 0h2M5 20.5h1m1 0h2m1 0h1m7 0h1m2 0h1m1 0h1m1 0h1m3 0h1m5 0h2m2 0h4m3 0h2m2 0h3m2 0h2m4 0h2M7 21.5h2m3 0h1m1 0h2m1 0h2m2 0h1m8 0h1m1 0h1m3 0h2m2 0h2m3 0h5m1 0h2m2 0h1m1 0h3m1 0h1M6 22.5h1m3 0h2m2 0h3m2 0h3m2 0h1m6 0h3m1 0h1m2 0h5m5 0h3m3 0h2m2 0h2m1 0h2m1 0h1M4 23.5h3m1 0h2m2 0h1m1 0h1m4 0h1m2 0h1m2 0h2m1 0h2m3 0h2m1 0h1m1 0h1m2 0h9m6 0h2m1 0h2M4 24.5h1m4 0h3m2 0h1m1 0h2m3 0h1m1 0h3m2 0h2m5 0h1m2 0h5m3 0h2m1 0h2m1 0h2m1 0h4m2 0h2M5 25.5h1m1 0h1m5 0h1m1 0h1m1 0h3m1 0h1m1 0h3m2 0h3m2 0h2m1 0h1m3 0h2m1 0h6m2 0h1m1 0h1m3 0h3M5 26.5h1m1 0h2m1 0h3m1 0h6m2 0h2m3 0h2m2 0h4m2 0h6m1 0h1m2 0h3m1 0h4m1 0h4m1 0h1m2 0h1M4 27.5h1m1 0h3m3 0h9m3 0h2m4 0h1m2 0h2m3 0h1m3 0h2m1 0h2m1 0h3m5 0h1m1 0h1m1 0h1M4 28.5h1m1 0h1m3 0h4m3 0h1m1 0h2m2 0h4m1 0h2m5 0h1m3 0h4m2 0h3m2 0h8m1 0h1m1 0h3M7 29.5h3m1 0h1m3 0h1m7 0h3m1 0h1m1 0h2m1 0h1m1 0h1m1 0h2m2 0h2m1 0h5m3 0h1m1 0h1m4 0h2m1 0h1m1 0h1M6 30.5h1m1 0h1m1 0h4m2 0h1m6 0h1m1 0h1m5 0h3m1 0h1m1 0h7m1 0h1m1 0h1m2 0h1m1 0h1m1 0h1m2 0h1m3 0h4M6 31.5h3m2 0h3m3 0h1m3 0h1m2 0h1m1 0h2m2 0h1m2 0h2m1 0h4m2 0h1m1 0h1m2 0h2m1 0h2m1 0h1m1 0h1m1 0h2m1 0h1m2 0h1M4 32.5h10m1 0h1m6 0h2m1 0h3m1 0h1m2 0h10m1 0h1m1 0h3m3 0h3m1 0h6m1 0h1m1 0h1M4 33.5h1m3 0h1m3 0h2m5 0h1m3 0h6m1 0h1m1 0h1m3 0h1m2 0h3m3 0h2m1 0h1m2 0h1m1 0h1m2 0h1m3 0h3M5 34.5h1m2 0h1m1 0h1m1 0h5m1 0h1m1 0h1m2 0h1m1 0h1m2 0h1m2 0h2m1 0h1m1 0h5m1 0h1m2 0h1m1 0h1m1 0h3m2 0h1m1 0h1m1 0h1m1 0h1m3 0h1M4 35.5h2m2 0h1m3 0h1m1 0h2m2 0h2m1 0h10m1 0h1m3 0h2m1 0h1m1 0h6m1 0h2m3 0h4m3 0h1m3 0h1M5 36.5h1m2 0h5m1 0h1m1 0h1m1 0h5m8 0h7m1 0h4m2 0h2m2 0h1m1 0h4m1 0h9M4 37.5h1m1 0h3m3 0h2m1 0h1m1 0h1m2 0h2m2 0h5m1 0h1m4 0h1m1 0h1m2 0h2m3 0h5m1 0h1m1 0h1m3 0h1m1 0h1m2 0h1M4 38.5h2m1 0h1m2 0h5m1 0h1m6 0h1m1 0h1m3 0h1m1 0h1m6 0h1m1 0h3m2 0h1m4 0h2m2 0h2m1 0h5m1 0h2M4 39.5h1m2 0h1m1 0h1m1 0h1m1 0h4m7 0h1m1 0h1m1 0h8m1 0h1m1 0h1m4 0h3m1 0h3m3 0h1m1 0h1m6 0h1M5 40.5h2m1 0h8m1 0h2m1 0h3m1 0h3m2 0h1m1 0h4m1 0h7m2 0h2m3 0h6m1 0h1m1 0h4m1 0h1M11 41.5h1m5 0h1m1 0h2m1 0h7m1 0h1m8 0h1m1 0h1m2 0h4m3 0h1m1 0h1m1 0h5m1 0h3M4 42.5h1m1 0h1m3 0h1m2 0h1m1 0h2m1 0h3m4 0h1m1 0h1m3 0h1m1 0h2m1 0h2m2 0h1m1 0h1m1 0h2m1 0h1m2 0h1m3 0h2m1 0h2m2 0h1m1 0h1M5 43.5h1m5 0h5m1 0h2m1 0h3m1 0h1m3 0h1m1 0h4m1 0h1m2 0h2m3 0h4m1 0h2m3 0h1m2 0h4m4 0h1M4 44.5h3m2 0h5m2 0h1m2 0h3m1 0h1m2 0h1m1 0h2m1 0h10m1 0h1m2 0h3m2 0h3m2 0h2m1 0h1m1 0h1m1 0h1m1 0h1M6 45.5h1m2 0h1m3 0h4m2 0h2m1 0h5m1 0h1m1 0h1m1 0h1m3 0h2m1 0h3m4 0h1m1 0h2m3 0h1m1 0h1m1 0h1m1 0h1M7 46.5h1m2 0h2m1 0h1m3 0h2m1 0h1m3 0h1m1 0h1m2 0h1m1 0h1m1 0h1m2 0h3m1 0h1m1 0h3m4 0h3m2 0h2m2 0h1m1 0h1m3 0h1M6 47.5h1m1 0h2m1 0h1m1 0h5m2 0h3m2 0h1m2 0h2m1 0h3m4 0h1m5 0h1m1 0h1m1 0h1m5 0h1m4 0h3m1 0h2M5 48.5h1m1 0h2m1 0h1m5 0h1m1 0h2m3 0h5m1 0h1m3 0h11m3 0h1m1 0h1m1 0h3m1 0h4m1 0h3M4 49.5h1m4 0h1m1 0h2m1 0h2m1 0h3m3 0h8m2 0h1m1 0h1m1 0h1m1 0h3m3 0h2m4 0h3m2 0h1m1 0h1m2 0h1m1 0h1M5 50.5h1m2 0h6m3 0h4m1 0h1m2 0h4m2 0h1m1 0h1m1 0h4m1 0h3m2 0h1m2 0h3m1 0h3m2 0h8M8 51.5h2m1 0h1m6 0h1m1 0h2m1 0h3m3 0h1m1 0h2m1 0h2m5 0h6m1 0h2m3 0h2m1 0h2m1 0h1m3 0h1M4 52.5h1m1 0h1m1 0h1m1 0h5m7 0h2m3 0h1m1 0h1m1 0h1m1 0h4m2 0h4m3 0h1m2 0h7m4 0h4M6 53.5h1m1 0h2m2 0h1m3 0h1m2 0h1m1 0h2m1 0h5m1 0h1m9 0h1m3 0h4m5 0h1m5 0h1m2 0h2M6 54.5h5m2 0h5m1 0h1m1 0h1m1 0h2m2 0h1m2 0h2m1 0h1m2 0h5m1 0h2m6 0h1m1 0h1m1 0h3m1 0h2m1 0h4M4 55.5h3m1 0h1m2 0h1m2 0h1m1 0h1m1 0h2m2 0h2m1 0h2m1 0h3m2 0h1m1 0h1m1 0h1m1 0h2m3 0h1m1 0h4m3 0h1m2 0h1m2 0h1m3 0h2M4 56.5h4m2 0h4m1 0h1m7 0h3m1 0h1m1 0h1m1 0h7m1 0h4m4 0h1m1 0h1m1 0h2m2 0h8M12 57.5h2m1 0h1m2 0h2m1 0h2m2 0h1m1 0h2m1 0h1m1 0h1m3 0h2m1 0h1m1 0h1m1 0h1m1 0h3m1 0h1m1 0h1m1 0h1m2 0h1m3 0h4M4 58.5h7m3 0h2m4 0h2m1 0h4m2 0h2m1 0h1m1 0h1m1 0h1m1 0h2m1 0h4m2 0h1m2 0h1m1 0h3m1 0h1m1 0h1m1 0h1m2 0h2M4 59.5h1m5 0h1m1 0h2m1 0h2m1 0h3m3 0h2m1 0h1m2 0h1m1 0h1m3 0h2m1 0h1m2 0h3m1 0h1m1 0h2m3 0h4m3 0h1m2 0h1M4 60.5h1m1 0h3m1 0h1m1 0h1m1 0h1m3 0h6m1 0h2m2 0h1m1 0h6m1 0h3m6 0h1m2 0h1m1 0h1m3 0h8M4 61.5h1m1 0h3m1 0h1m1 0h1m1 0h4m2 0h2m3 0h2m1 0h1m1 0h2m1 0h5m1 0h3m1 0h2m1 0h1m5 0h2m2 0h2m1 0h2m3 0h1M4 62.5h1m1 0h3m1 0h1m1 0h4m1 0h1m2 0h4m2 0h2m1 0h1m1 0h2m4 0h2m3 0h1m5 0h5m1 0h1m4 0h1m1 0h1m2 0h1M4 63.5h1m5 0h1m2 0h2m3 0h1m3 0h3m3 0h1m2 0h3m1 0h2m4 0h4m2 0h4m3 0h1m1 0h5m3 0h1M4 64.5h7m1 0h3m2 0h2m5 0h2m13 0h3m3 0h1m1 0h1m2 0h4m1 0h1m3 0h2m1 0h3"/>
    </g>
    <text x="98" y="186" text-anchor="middle" fill="#050606" font-family="Arial Black, Impact, sans-serif" font-size="26" letter-spacing="3">SCAN</text>
  </g>
</svg>
