<svg xmlns="http://www.w3.org/2000/svg" viewBox="0 0 850 1100" role="img" aria-labelledby="title desc">
  <title id="title">Post The Signal Handbill</title>
  <desc id="desc">A one-page handbill explaining how to join Drop 001 by posting the signal and naming a local break, with a QR code to the public scan path.</desc>
  <defs>
    <g id="project-qr-code">
      <rect width="41" height="41" fill="#F6F0E4"/>
      <path stroke="#050606" d="M4 4.5h7m1 0h1m1 0h1m1 0h1m1 0h2m1 0h2m4 0h1m2 0h7M4 5.5h1m5 0h1m3 0h3m3 0h1m2 0h1m2 0h1m3 0h1m5 0h1M4 6.5h1m1 0h3m1 0h1m2 0h1m3 0h1m3 0h1m1 0h3m2 0h1m1 0h1m1 0h3m1 0h1M4 7.5h1m1 0h3m1 0h1m1 0h3m1 0h1m1 0h1m9 0h1m1 0h1m1 0h3m1 0h1M4 8.5h1m1 0h3m1 0h1m1 0h4m2 0h1m2 0h2m2 0h3m2 0h1m1 0h3m1 0h1M4 9.5h1m5 0h1m1 0h2m6 0h1m1 0h2m2 0h1m1 0h1m1 0h1m5 0h1M4 10.5h7m1 0h1m1 0h1m1 0h1m1 0h1m1 0h1m1 0h1m1 0h1m1 0h1m1 0h1m1 0h7M12 11.5h1m1 0h3m1 0h5m2 0h2M4 12.5h1m3 0h1m1 0h3m4 0h1m3 0h1m1 0h4m1 0h6m2 0h1M5 13.5h1m1 0h2m8 0h1m1 0h3m4 0h2m1 0h1m3 0h3M4 14.5h1m2 0h1m2 0h7m2 0h1m2 0h1m3 0h3m4 0h1m1 0h1M4 15.5h1m3 0h2m2 0h1m2 0h2m1 0h8m3 0h2m4 0h2M4 16.5h1m3 0h1m1 0h3m3 0h4m2 0h1m1 0h2m2 0h1m1 0h1m2 0h1M5 17.5h4m2 0h1m4 0h1m3 0h1m1 0h1m4 0h1m1 0h1m1 0h1M4 18.5h3m3 0h2m1 0h2m1 0h1m3 0h3m2 0h1m1 0h4m1 0h4M4 19.5h1m2 0h1m1 0h1m2 0h1m4 0h1m3 0h1m1 0h3m1 0h4M4 20.5h1m1 0h1m1 0h4m1 0h2m1 0h2m1 0h1m1 0h1m2 0h5m1 0h1m1 0h1m2 0h1M5 21.5h4m7 0h2m1 0h4m1 0h2m1 0h1m1 0h1m3 0h3M4 22.5h1m3 0h1m1 0h5m2 0h1m1 0h2m1 0h1m1 0h1m2 0h5m1 0h1m1 0h1M4 23.5h2m1 0h3m1 0h1m1 0h1m3 0h1m5 0h1m1 0h1m2 0h4m4 0h1M4 24.5h2m1 0h5m3 0h1m3 0h2m2 0h6m1 0h1m1 0h2m1 0h2M4 25.5h3m4 0h1m2 0h1m3 0h1m2 0h2m2 0h3m1 0h1m3 0h3M7 26.5h1m2 0h1m2 0h3m2 0h2m1 0h1m2 0h2m1 0h6m2 0h1M8 27.5h1m3 0h1m2 0h7m1 0h3m1 0h2m1 0h1m1 0h1m3 0h1M4 28.5h3m2 0h3m2 0h1m2 0h2m2 0h1m1 0h1m1 0h2m1 0h5m3 0h1M12 29.5h1m1 0h6m8 0h1m3 0h1m1 0h1M4 30.5h7m1 0h1m2 0h3m1 0h3m2 0h1m1 0h1m1 0h1m1 0h1m1 0h2m1 0h1M4 31.5h1m5 0h1m4 0h1m1 0h1m2 0h3m1 0h2m2 0h1m3 0h1M4 32.5h1m1 0h3m1 0h1m1 0h1m5 0h1m3 0h5m1 0h6m1 0h2M4 33.5h1m1 0h3m1 0h1m3 0h3m1 0h1m1 0h1m6 0h2m1 0h3m1 0h1M4 34.5h1m1 0h3m1 0h1m3 0h1m2 0h1m2 0h3m1 0h1m1 0h1m3 0h3m1 0h1M4 35.5h1m5 0h1m4 0h2m1 0h1m2 0h2m2 0h2m1 0h3M4 36.5h7m1 0h1m1 0h2m3 0h1m1 0h1m3 0h6m2 0h1m2 0h1"/>
    </g>
  </defs>
  <rect width="850" height="1100" fill="#E8DDC7"/>
  <rect x="42" y="42" width="766" height="1016" fill="#061620"/>
  <rect x="42" y="42" width="766" height="88" fill="#F4B037"/>
  <text x="70" y="98" fill="#050606" font-family="Arial Black, Impact, sans-serif" font-size="34" letter-spacing="4">DROP 001 / PUBLIC HANDOFF</text>

  <g transform="translate(425 292)">
    <circle r="132" fill="#E8DDC7"/>
    <circle r="102" fill="#061620"/>
    <path d="M-190 0h380M0-190v380" stroke="#E8DDC7" stroke-width="18"/>
    <path d="M-190 0h380M0-190v380" stroke="#B77836" stroke-width="6"/>
    <circle r="54" fill="none" stroke="#E8DDC7" stroke-width="18"/>
    <circle r="28" fill="#F4B037"/>
  </g>

  <text x="70" y="522" fill="#F4B037" font-family="Impact, Arial Black, sans-serif" font-size="84">POST THE SIGNAL.</text>
  <text x="70" y="604" fill="#E8DDC7" font-family="Impact, Arial Black, sans-serif" font-size="84">NAME THE BREAK.</text>
  <text x="70" y="686" fill="#E8DDC7" font-family="Impact, Arial Black, sans-serif" font-size="84">BUILD THE BODY.</text>

  <g font-family="Arial Black, Impact, sans-serif" font-size="22" letter-spacing="2">
    <text x="76" y="776" fill="#F4B037">01</text>
    <text x="130" y="776" fill="#E8DDC7">POST THE MARK.</text>
    <text x="76" y="836" fill="#F4B037">02</text>
    <text x="130" y="836" fill="#E8DDC7">TAG A REAL PLACE.</text>
    <text x="76" y="896" fill="#F4B037">03</text>
    <text x="130" y="896" fill="#E8DDC7">NAME THE BREAK.</text>
    <text x="76" y="956" fill="#F4B037">04</text>
    <text x="130" y="956" fill="#E8DDC7">SEND A LINE OR PHOTO.</text>
  </g>



  <g transform="translate(630 774)">
    <rect width="136" height="172" fill="#F4B037"/>
    <use href="#project-qr-code" transform="translate(10 10) scale(2.5778)"/>
    <text x="68" y="154" text-anchor="middle" fill="#050606" font-family="Arial Black, Impact, sans-serif" font-size="15" letter-spacing="1">SCAN SIGNAL</text>
  </g>

  <rect x="42" y="994" width="766" height="64" fill="#F4B037"/>
  <text x="70" y="1036" fill="#050606" font-family="Arial Black, Impact, sans-serif" font-size="23" letter-spacing="2">neocolumbus.github.io/Project-Columbus/signal</text>
</svg>
