<svg xmlns="http://www.w3.org/2000/svg" viewBox="0 0 800 800" role="img" aria-labelledby="title desc">
  <title id="title">Scan The Signal Sticker</title>
  <desc id="desc">A Full City Columbus sticker with a QR code linking to https://neocolumbus.github.io/Project-Columbus/site/signal/?source=sticker#field-card</desc>
  <rect width="800" height="800" fill="#061620"/>
  <rect x="44" y="44" width="712" height="712" fill="#F4B037"/>
  <rect x="84" y="84" width="632" height="632" fill="#050606"/>
  <g transform="translate(190 116) scale(8.571429)">
    <rect width="49" height="49" fill="#F6F0E4"/>
      <path stroke="#050606" d="M4 4.5h7m7 0h2m1 0h5m1 0h1m1 0h2m3 0h3m1 0h7M4 5.5h1m5 0h1m3 0h2m4 0h2m3 0h1m3 0h4m1 0h1m1 0h1m1 0h1m5 0h1M4 6.5h1m1 0h3m1 0h1m1 0h1m2 0h1m3 0h1m1 0h9m1 0h2m2 0h1m2 0h1m1 0h3m1 0h1M4 7.5h1m1 0h3m1 0h1m1 0h2m3 0h1m1 0h1m4 0h2m4 0h2m2 0h1m3 0h1m1 0h3m1 0h1M4 8.5h1m1 0h3m1 0h1m1 0h1m1 0h2m2 0h2m2 0h6m1 0h1m2 0h2m1 0h2m1 0h1m1 0h3m1 0h1M4 9.5h1m5 0h1m1 0h4m4 0h1m3 0h3m1 0h6m4 0h1m5 0h1M4 10.5h7m1 0h1m1 0h1m1 0h1m1 0h1m1 0h1m1 0h1m1 0h1m1 0h1m1 0h1m1 0h1m1 0h1m1 0h1m1 0h1m1 0h7M12 11.5h3m1 0h1m2 0h2m1 0h1m2 0h4m1 0h1m4 0h1M4 12.5h1m1 0h5m4 0h1m1 0h5m1 0h2m1 0h1m2 0h3m1 0h1m1 0h1m2 0h5M4 13.5h4m5 0h2m2 0h3m2 0h6m1 0h1m2 0h1m1 0h2m1 0h4m2 0h2M4 14.5h4m1 0h3m1 0h2m5 0h1m3 0h3m1 0h5m3 0h2m1 0h2m1 0h2M6 15.5h1m2 0h1m1 0h1m1 0h1m2 0h4m2 0h1m2 0h4m1 0h1m4 0h4m1 0h2m1 0h1M5 16.5h4m1 0h4m1 0h2m1 0h1m1 0h2m1 0h2m1 0h1m1 0h6m1 0h1m3 0h2m1 0h1M4 17.5h1m1 0h1m1 0h2m3 0h3m4 0h3m3 0h1m2 0h1m1 0h1m1 0h2m1 0h9M4 18.5h2m2 0h1m1 0h1m2 0h2m3 0h1m1 0h1m1 0h1m1 0h1m2 0h2m1 0h4m1 0h1m1 0h1m1 0h1m2 0h1M4 19.5h6m1 0h1m3 0h1m2 0h1m1 0h1m4 0h3m2 0h2m3 0h3m1 0h1m1 0h1m2 0h1M5 20.5h1m3 0h3m2 0h2m2 0h2m1 0h1m4 0h6m1 0h1m1 0h2m2 0h1m2 0h2M4 21.5h1m2 0h3m1 0h5m1 0h1m1 0h2m1 0h3m2 0h1m2 0h1m1 0h2m1 0h2m1 0h3m1 0h3M4 22.5h3m2 0h3m2 0h1m1 0h2m1 0h2m1 0h1m1 0h1m1 0h1m4 0h3m2 0h2m2 0h2m1 0h1M5 23.5h2m1 0h2m3 0h1m1 0h1m7 0h1m4 0h1m1 0h1m2 0h5m1 0h3m1 0h2M5 24.5h1m2 0h1m1 0h2m1 0h1m1 0h3m2 0h1m1 0h1m2 0h4m2 0h1m3 0h1m3 0h1m2 0h2M8 25.5h2m1 0h4m1 0h2m1 0h1m1 0h1m1 0h3m1 0h1m1 0h8m1 0h7M5 26.5h4m1 0h2m1 0h1m1 0h2m1 0h1m1 0h1m1 0h1m1 0h1m5 0h4m2 0h1m1 0h4m1 0h1M4 27.5h3m2 0h1m3 0h1m1 0h4m3 0h2m1 0h2m4 0h2m1 0h4m2 0h2m2 0h1M5 28.5h1m1 0h2m1 0h1m4 0h1m1 0h2m1 0h2m5 0h4m2 0h1m1 0h1m1 0h1m4 0h1M4 29.5h1m2 0h2m4 0h1m1 0h2m1 0h1m1 0h1m2 0h3m1 0h1m1 0h2m1 0h1m1 0h2m1 0h4m1 0h3M6 30.5h2m2 0h2m2 0h1m2 0h3m4 0h1m5 0h5M5 31.5h3m4 0h1m2 0h1m2 0h3m2 0h4m5 0h1m2 0h1m1 0h1m1 0h1m1 0h1m1 0h1M4 32.5h1m1 0h1m2 0h2m2 0h1m1 0h1m4 0h3m4 0h1m1 0h2m2 0h1m1 0h1m1 0h1m3 0h2m1 0h1M4 33.5h2m1 0h1m1 0h1m4 0h2m3 0h1m2 0h1m1 0h2m2 0h1m1 0h3m4 0h2m1 0h1m1 0h1m1 0h1M4 34.5h1m3 0h5m1 0h3m2 0h2m2 0h1m1 0h2m2 0h1m7 0h1m1 0h1m1 0h1M4 35.5h1m2 0h2m3 0h1m1 0h1m1 0h1m2 0h2m2 0h4m1 0h1m1 0h1m1 0h1m2 0h1m2 0h2m1 0h1m2 0h1M4 36.5h1m1 0h1m1 0h7m3 0h1m2 0h1m1 0h1m2 0h1m1 0h3m2 0h1m2 0h5m1 0h1m1 0h1M12 37.5h1m1 0h1m3 0h2m1 0h3m1 0h3m1 0h2m1 0h1m2 0h2m3 0h2m1 0h2M4 38.5h7m6 0h1m1 0h3m3 0h1m2 0h4m2 0h3m1 0h1m1 0h3M4 39.5h1m5 0h1m1 0h2m2 0h3m2 0h3m1 0h2m2 0h1m6 0h1m3 0h2M4 40.5h1m1 0h3m1 0h1m1 0h4m1 0h3m4 0h2m2 0h1m1 0h2m2 0h1m1 0h5m1 0h1M4 41.5h1m1 0h3m1 0h1m1 0h1m1 0h1m3 0h1m1 0h5m1 0h2m7 0h3m1 0h1M4 42.5h1m1 0h3m1 0h1m1 0h2m4 0h1m1 0h1m3 0h1m1 0h1m3 0h2m3 0h2m1 0h5M4 43.5h1m5 0h1m2 0h1m1 0h2m3 0h1m1 0h4m4 0h3m3 0h2m2 0h2m1 0h1M4 44.5h7m1 0h2m1 0h4m4 0h1m2 0h1m1 0h4m1 0h1m1 0h1m1 0h4m1 0h1"/>
  </g>
  <text x="400" y="610" text-anchor="middle" fill="#F4B037" font-family="Impact, Arial Black, sans-serif" font-size="86">SCAN THE SIGNAL</text>
  <text x="400" y="674" text-anchor="middle" fill="#F6F0E4" font-family="Arial Black, Impact, sans-serif" font-size="26" letter-spacing="3">FULL CITY COLUMBUS</text>
  <text x="400" y="716" text-anchor="middle" fill="#F6F0E4" font-family="Arial Black, Impact, sans-serif" font-size="18" letter-spacing="1">neocolumbus.github.io/Project-Columbus/site/signal</text>
</svg>
