<svg xmlns="http://www.w3.org/2000/svg" viewBox="0 0 800 800" role="img" aria-labelledby="title desc">
  <title id="title">Scan The Signal Sticker</title>
  <desc id="desc">A Full City Columbus sticker with a QR code linking to https://neocolumbus.github.io/Project-Columbus/</desc>
  <rect width="800" height="800" fill="#061620"/>
  <rect x="44" y="44" width="712" height="712" fill="#F4B037"/>
  <rect x="84" y="84" width="632" height="632" fill="#050606"/>
  <g transform="translate(190 116) scale(9.333333)">
    <rect width="45" height="45" fill="#F6F0E4"/>
    <path fill="#050606" d="M4 4h1v1h-1zM5 4h1v1h-1zM6 4h1v1h-1zM7 4h1v1h-1zM8 4h1v1h-1zM9 4h1v1h-1zM10 4h1v1h-1zM15 4h1v1h-1zM16 4h1v1h-1zM17 4h1v1h-1zM18 4h1v1h-1zM19 4h1v1h-1zM21 4h1v1h-1zM24 4h1v1h-1zM25 4h1v1h-1zM27 4h1v1h-1zM28 4h1v1h-1zM29 4h1v1h-1zM34 4h1v1h-1zM35 4h1v1h-1zM36 4h1v1h-1zM37 4h1v1h-1zM38 4h1v1h-1zM39 4h1v1h-1zM40 4h1v1h-1zM4 5h1v1h-1zM10 5h1v1h-1zM12 5h1v1h-1zM13 5h1v1h-1zM14 5h1v1h-1zM16 5h1v1h-1zM17 5h1v1h-1zM21 5h1v1h-1zM23 5h1v1h-1zM24 5h1v1h-1zM25 5h1v1h-1zM29 5h1v1h-1zM32 5h1v1h-1zM34 5h1v1h-1zM40 5h1v1h-1zM4 6h1v1h-1zM6 6h1v1h-1zM7 6h1v1h-1zM8 6h1v1h-1zM10 6h1v1h-1zM14 6h1v1h-1zM15 6h1v1h-1zM18 6h1v1h-1zM19 6h1v1h-1zM21 6h1v1h-1zM25 6h1v1h-1zM28 6h1v1h-1zM29 6h1v1h-1zM31 6h1v1h-1zM32 6h1v1h-1zM34 6h1v1h-1zM36 6h1v1h-1zM37 6h1v1h-1zM38 6h1v1h-1zM40 6h1v1h-1zM4 7h1v1h-1zM6 7h1v1h-1zM7 7h1v1h-1zM8 7h1v1h-1zM10 7h1v1h-1zM12 7h1v1h-1zM13 7h1v1h-1zM16 7h1v1h-1zM20 7h1v1h-1zM21 7h1v1h-1zM22 7h1v1h-1zM23 7h1v1h-1zM25 7h1v1h-1zM29 7h1v1h-1zM30 7h1v1h-1zM31 7h1v1h-1zM32 7h1v1h-1zM34 7h1v1h-1zM36 7h1v1h-1zM37 7h1v1h-1zM38 7h1v1h-1zM40 7h1v1h-1zM4 8h1v1h-1zM6 8h1v1h-1zM7 8h1v1h-1zM8 8h1v1h-1zM10 8h1v1h-1zM12 8h1v1h-1zM13 8h1v1h-1zM21 8h1v1h-1zM23 8h1v1h-1zM24 8h1v1h-1zM30 8h1v1h-1zM34 8h1v1h-1zM36 8h1v1h-1zM37 8h1v1h-1zM38 8h1v1h-1zM40 8h1v1h-1zM4 9h1v1h-1zM10 9h1v1h-1zM14 9h1v1h-1zM15 9h1v1h-1zM17 9h1v1h-1zM18 9h1v1h-1zM20 9h1v1h-1zM21 9h1v1h-1zM22 9h1v1h-1zM23 9h1v1h-1zM24 9h1v1h-1zM25 9h1v1h-1zM27 9h1v1h-1zM28 9h1v1h-1zM34 9h1v1h-1zM40 9h1v1h-1zM4 10h1v1h-1zM5 10h1v1h-1zM6 10h1v1h-1zM7 10h1v1h-1zM8 10h1v1h-1zM9 10h1v1h-1zM10 10h1v1h-1zM12 10h1v1h-1zM14 10h1v1h-1zM16 10h1v1h-1zM18 10h1v1h-1zM20 10h1v1h-1zM22 10h1v1h-1zM24 10h1v1h-1zM26 10h1v1h-1zM28 10h1v1h-1zM30 10h1v1h-1zM32 10h1v1h-1zM34 10h1v1h-1zM35 10h1v1h-1zM36 10h1v1h-1zM37 10h1v1h-1zM38 10h1v1h-1zM39 10h1v1h-1zM40 10h1v1h-1zM12 11h1v1h-1zM15 11h1v1h-1zM18 11h1v1h-1zM29 11h1v1h-1zM31 11h1v1h-1zM32 11h1v1h-1zM5 12h1v1h-1zM7 12h1v1h-1zM8 12h1v1h-1zM9 12h1v1h-1zM10 12h1v1h-1zM12 12h1v1h-1zM13 12h1v1h-1zM14 12h1v1h-1zM15 12h1v1h-1zM17 12h1v1h-1zM18 12h1v1h-1zM20 12h1v1h-1zM21 12h1v1h-1zM23 12h1v1h-1zM27 12h1v1h-1zM28 12h1v1h-1zM29 12h1v1h-1zM32 12h1v1h-1zM33 12h1v1h-1zM34 12h1v1h-1zM36 12h1v1h-1zM37 12h1v1h-1zM39 12h1v1h-1zM6 13h1v1h-1zM7 13h1v1h-1zM12 13h1v1h-1zM14 13h1v1h-1zM15 13h1v1h-1zM19 13h1v1h-1zM24 13h1v1h-1zM26 13h1v1h-1zM27 13h1v1h-1zM28 13h1v1h-1zM29 13h1v1h-1zM33 13h1v1h-1zM34 13h1v1h-1zM36 13h1v1h-1zM38 13h1v1h-1zM39 13h1v1h-1zM40 13h1v1h-1zM4 14h1v1h-1zM7 14h1v1h-1zM8 14h1v1h-1zM10 14h1v1h-1zM15 14h1v1h-1zM17 14h1v1h-1zM18 14h1v1h-1zM21 14h1v1h-1zM25 14h1v1h-1zM26 14h1v1h-1zM27 14h1v1h-1zM28 14h1v1h-1zM29 14h1v1h-1zM33 14h1v1h-1zM34 14h1v1h-1zM35 14h1v1h-1zM36 14h1v1h-1zM38 14h1v1h-1zM40 14h1v1h-1zM4 15h1v1h-1zM5 15h1v1h-1zM9 15h1v1h-1zM11 15h1v1h-1zM12 15h1v1h-1zM13 15h1v1h-1zM16 15h1v1h-1zM17 15h1v1h-1zM21 15h1v1h-1zM23 15h1v1h-1zM24 15h1v1h-1zM28 15h1v1h-1zM30 15h1v1h-1zM31 15h1v1h-1zM33 15h1v1h-1zM34 15h1v1h-1zM38 15h1v1h-1zM10 16h1v1h-1zM11 16h1v1h-1zM12 16h1v1h-1zM14 16h1v1h-1zM16 16h1v1h-1zM17 16h1v1h-1zM18 16h1v1h-1zM19 16h1v1h-1zM20 16h1v1h-1zM21 16h1v1h-1zM24 16h1v1h-1zM27 16h1v1h-1zM28 16h1v1h-1zM34 16h1v1h-1zM35 16h1v1h-1zM37 16h1v1h-1zM5 17h1v1h-1zM14 17h1v1h-1zM21 17h1v1h-1zM25 17h1v1h-1zM27 17h1v1h-1zM29 17h1v1h-1zM30 17h1v1h-1zM31 17h1v1h-1zM32 17h1v1h-1zM33 17h1v1h-1zM36 17h1v1h-1zM38 17h1v1h-1zM4 18h1v1h-1zM6 18h1v1h-1zM8 18h1v1h-1zM9 18h1v1h-1zM10 18h1v1h-1zM13 18h1v1h-1zM14 18h1v1h-1zM16 18h1v1h-1zM17 18h1v1h-1zM19 18h1v1h-1zM22 18h1v1h-1zM29 18h1v1h-1zM30 18h1v1h-1zM31 18h1v1h-1zM34 18h1v1h-1zM36 18h1v1h-1zM37 18h1v1h-1zM38 18h1v1h-1zM39 18h1v1h-1zM40 18h1v1h-1zM5 19h1v1h-1zM6 19h1v1h-1zM8 19h1v1h-1zM11 19h1v1h-1zM16 19h1v1h-1zM21 19h1v1h-1zM22 19h1v1h-1zM25 19h1v1h-1zM26 19h1v1h-1zM27 19h1v1h-1zM30 19h1v1h-1zM31 19h1v1h-1zM32 19h1v1h-1zM33 19h1v1h-1zM35 19h1v1h-1zM37 19h1v1h-1zM38 19h1v1h-1zM39 19h1v1h-1zM40 19h1v1h-1zM4 20h1v1h-1zM7 20h1v1h-1zM8 20h1v1h-1zM9 20h1v1h-1zM10 20h1v1h-1zM12 20h1v1h-1zM14 20h1v1h-1zM16 20h1v1h-1zM22 20h1v1h-1zM23 20h1v1h-1zM25 20h1v1h-1zM26 20h1v1h-1zM28 20h1v1h-1zM29 20h1v1h-1zM31 20h1v1h-1zM33 20h1v1h-1zM34 20h1v1h-1zM35 20h1v1h-1zM38 20h1v1h-1zM40 20h1v1h-1zM4 21h1v1h-1zM5 21h1v1h-1zM7 21h1v1h-1zM11 21h1v1h-1zM16 21h1v1h-1zM17 21h1v1h-1zM18 21h1v1h-1zM19 21h1v1h-1zM25 21h1v1h-1zM26 21h1v1h-1zM27 21h1v1h-1zM29 21h1v1h-1zM31 21h1v1h-1zM33 21h1v1h-1zM35 21h1v1h-1zM37 21h1v1h-1zM39 21h1v1h-1zM4 22h1v1h-1zM5 22h1v1h-1zM6 22h1v1h-1zM7 22h1v1h-1zM10 22h1v1h-1zM11 22h1v1h-1zM13 22h1v1h-1zM15 22h1v1h-1zM16 22h1v1h-1zM17 22h1v1h-1zM18 22h1v1h-1zM20 22h1v1h-1zM22 22h1v1h-1zM23 22h1v1h-1zM28 22h1v1h-1zM29 22h1v1h-1zM31 22h1v1h-1zM33 22h1v1h-1zM36 22h1v1h-1zM38 22h1v1h-1zM40 22h1v1h-1zM6 23h1v1h-1zM12 23h1v1h-1zM15 23h1v1h-1zM16 23h1v1h-1zM22 23h1v1h-1zM26 23h1v1h-1zM27 23h1v1h-1zM29 23h1v1h-1zM31 23h1v1h-1zM32 23h1v1h-1zM36 23h1v1h-1zM37 23h1v1h-1zM39 23h1v1h-1zM6 24h1v1h-1zM8 24h1v1h-1zM10 24h1v1h-1zM11 24h1v1h-1zM13 24h1v1h-1zM14 24h1v1h-1zM16 24h1v1h-1zM17 24h1v1h-1zM18 24h1v1h-1zM19 24h1v1h-1zM21 24h1v1h-1zM22 24h1v1h-1zM23 24h1v1h-1zM27 24h1v1h-1zM28 24h1v1h-1zM29 24h1v1h-1zM30 24h1v1h-1zM31 24h1v1h-1zM32 24h1v1h-1zM33 24h1v1h-1zM34 24h1v1h-1zM36 24h1v1h-1zM37 24h1v1h-1zM39 24h1v1h-1zM5 25h1v1h-1zM6 25h1v1h-1zM7 25h1v1h-1zM8 25h1v1h-1zM14 25h1v1h-1zM15 25h1v1h-1zM17 25h1v1h-1zM19 25h1v1h-1zM22 25h1v1h-1zM23 25h1v1h-1zM24 25h1v1h-1zM25 25h1v1h-1zM26 25h1v1h-1zM27 25h1v1h-1zM29 25h1v1h-1zM30 25h1v1h-1zM31 25h1v1h-1zM32 25h1v1h-1zM35 25h1v1h-1zM36 25h1v1h-1zM38 25h1v1h-1zM39 25h1v1h-1zM6 26h1v1h-1zM7 26h1v1h-1zM10 26h1v1h-1zM13 26h1v1h-1zM16 26h1v1h-1zM17 26h1v1h-1zM20 26h1v1h-1zM23 26h1v1h-1zM25 26h1v1h-1zM27 26h1v1h-1zM29 26h1v1h-1zM31 26h1v1h-1zM36 26h1v1h-1zM37 26h1v1h-1zM40 26h1v1h-1zM5 27h1v1h-1zM6 27h1v1h-1zM9 27h1v1h-1zM11 27h1v1h-1zM13 27h1v1h-1zM14 27h1v1h-1zM16 27h1v1h-1zM17 27h1v1h-1zM19 27h1v1h-1zM21 27h1v1h-1zM29 27h1v1h-1zM31 27h1v1h-1zM32 27h1v1h-1zM33 27h1v1h-1zM35 27h1v1h-1zM37 27h1v1h-1zM38 27h1v1h-1zM40 27h1v1h-1zM4 28h1v1h-1zM5 28h1v1h-1zM7 28h1v1h-1zM10 28h1v1h-1zM11 28h1v1h-1zM13 28h1v1h-1zM14 28h1v1h-1zM16 28h1v1h-1zM19 28h1v1h-1zM20 28h1v1h-1zM21 28h1v1h-1zM22 28h1v1h-1zM23 28h1v1h-1zM28 28h1v1h-1zM29 28h1v1h-1zM35 28h1v1h-1zM36 28h1v1h-1zM40 28h1v1h-1zM4 29h1v1h-1zM5 29h1v1h-1zM6 29h1v1h-1zM8 29h1v1h-1zM11 29h1v1h-1zM14 29h1v1h-1zM16 29h1v1h-1zM19 29h1v1h-1zM20 29h1v1h-1zM21 29h1v1h-1zM24 29h1v1h-1zM25 29h1v1h-1zM27 29h1v1h-1zM30 29h1v1h-1zM34 29h1v1h-1zM37 29h1v1h-1zM38 29h1v1h-1zM4 30h1v1h-1zM5 30h1v1h-1zM8 30h1v1h-1zM10 30h1v1h-1zM12 30h1v1h-1zM13 30h1v1h-1zM15 30h1v1h-1zM16 30h1v1h-1zM17 30h1v1h-1zM20 30h1v1h-1zM21 30h1v1h-1zM22 30h1v1h-1zM24 30h1v1h-1zM25 30h1v1h-1zM30 30h1v1h-1zM31 30h1v1h-1zM34 30h1v1h-1zM35 30h1v1h-1zM36 30h1v1h-1zM40 30h1v1h-1zM4 31h1v1h-1zM6 31h1v1h-1zM7 31h1v1h-1zM8 31h1v1h-1zM9 31h1v1h-1zM11 31h1v1h-1zM13 31h1v1h-1zM17 31h1v1h-1zM22 31h1v1h-1zM23 31h1v1h-1zM30 31h1v1h-1zM32 31h1v1h-1zM33 31h1v1h-1zM35 31h1v1h-1zM38 31h1v1h-1zM39 31h1v1h-1zM4 32h1v1h-1zM7 32h1v1h-1zM8 32h1v1h-1zM10 32h1v1h-1zM13 32h1v1h-1zM14 32h1v1h-1zM15 32h1v1h-1zM16 32h1v1h-1zM17 32h1v1h-1zM18 32h1v1h-1zM19 32h1v1h-1zM20 32h1v1h-1zM21 32h1v1h-1zM23 32h1v1h-1zM26 32h1v1h-1zM27 32h1v1h-1zM28 32h1v1h-1zM29 32h1v1h-1zM31 32h1v1h-1zM32 32h1v1h-1zM33 32h1v1h-1zM34 32h1v1h-1zM35 32h1v1h-1zM36 32h1v1h-1zM37 32h1v1h-1zM12 33h1v1h-1zM13 33h1v1h-1zM14 33h1v1h-1zM15 33h1v1h-1zM16 33h1v1h-1zM17 33h1v1h-1zM19 33h1v1h-1zM23 33h1v1h-1zM24 33h1v1h-1zM26 33h1v1h-1zM29 33h1v1h-1zM32 33h1v1h-1zM36 33h1v1h-1zM37 33h1v1h-1zM38 33h1v1h-1zM4 34h1v1h-1zM5 34h1v1h-1zM6 34h1v1h-1zM7 34h1v1h-1zM8 34h1v1h-1zM9 34h1v1h-1zM10 34h1v1h-1zM14 34h1v1h-1zM18 34h1v1h-1zM20 34h1v1h-1zM21 34h1v1h-1zM22 34h1v1h-1zM23 34h1v1h-1zM24 34h1v1h-1zM25 34h1v1h-1zM26 34h1v1h-1zM27 34h1v1h-1zM29 34h1v1h-1zM30 34h1v1h-1zM32 34h1v1h-1zM34 34h1v1h-1zM36 34h1v1h-1zM37 34h1v1h-1zM38 34h1v1h-1zM40 34h1v1h-1zM4 35h1v1h-1zM10 35h1v1h-1zM12 35h1v1h-1zM13 35h1v1h-1zM15 35h1v1h-1zM16 35h1v1h-1zM18 35h1v1h-1zM20 35h1v1h-1zM21 35h1v1h-1zM24 35h1v1h-1zM26 35h1v1h-1zM29 35h1v1h-1zM30 35h1v1h-1zM31 35h1v1h-1zM32 35h1v1h-1zM36 35h1v1h-1zM37 35h1v1h-1zM40 35h1v1h-1zM4 36h1v1h-1zM6 36h1v1h-1zM7 36h1v1h-1zM8 36h1v1h-1zM10 36h1v1h-1zM12 36h1v1h-1zM14 36h1v1h-1zM15 36h1v1h-1zM16 36h1v1h-1zM18 36h1v1h-1zM20 36h1v1h-1zM22 36h1v1h-1zM23 36h1v1h-1zM25 36h1v1h-1zM26 36h1v1h-1zM30 36h1v1h-1zM31 36h1v1h-1zM32 36h1v1h-1zM33 36h1v1h-1zM34 36h1v1h-1zM35 36h1v1h-1zM36 36h1v1h-1zM39 36h1v1h-1zM4 37h1v1h-1zM6 37h1v1h-1zM7 37h1v1h-1zM8 37h1v1h-1zM10 37h1v1h-1zM12 37h1v1h-1zM16 37h1v1h-1zM17 37h1v1h-1zM19 37h1v1h-1zM20 37h1v1h-1zM22 37h1v1h-1zM28 37h1v1h-1zM31 37h1v1h-1zM32 37h1v1h-1zM34 37h1v1h-1zM38 37h1v1h-1zM4 38h1v1h-1zM6 38h1v1h-1zM7 38h1v1h-1zM8 38h1v1h-1zM10 38h1v1h-1zM13 38h1v1h-1zM15 38h1v1h-1zM18 38h1v1h-1zM19 38h1v1h-1zM20 38h1v1h-1zM23 38h1v1h-1zM24 38h1v1h-1zM27 38h1v1h-1zM29 38h1v1h-1zM30 38h1v1h-1zM35 38h1v1h-1zM36 38h1v1h-1zM37 38h1v1h-1zM38 38h1v1h-1zM39 38h1v1h-1zM40 38h1v1h-1zM4 39h1v1h-1zM10 39h1v1h-1zM12 39h1v1h-1zM14 39h1v1h-1zM15 39h1v1h-1zM17 39h1v1h-1zM18 39h1v1h-1zM19 39h1v1h-1zM20 39h1v1h-1zM21 39h1v1h-1zM23 39h1v1h-1zM24 39h1v1h-1zM26 39h1v1h-1zM27 39h1v1h-1zM28 39h1v1h-1zM30 39h1v1h-1zM36 39h1v1h-1zM37 39h1v1h-1zM38 39h1v1h-1zM39 39h1v1h-1zM40 39h1v1h-1zM4 40h1v1h-1zM5 40h1v1h-1zM6 40h1v1h-1zM7 40h1v1h-1zM8 40h1v1h-1zM9 40h1v1h-1zM10 40h1v1h-1zM15 40h1v1h-1zM16 40h1v1h-1zM17 40h1v1h-1zM18 40h1v1h-1zM19 40h1v1h-1zM21 40h1v1h-1zM22 40h1v1h-1zM27 40h1v1h-1zM28 40h1v1h-1zM32 40h1v1h-1zM33 40h1v1h-1zM35 40h1v1h-1zM36 40h1v1h-1zM40 40h1v1h-1z"/>
  </g>
  <text x="400" y="610" text-anchor="middle" fill="#F4B037" font-family="Impact, Arial Black, sans-serif" font-size="86">SCAN THE SIGNAL</text>
  <text x="400" y="674" text-anchor="middle" fill="#F6F0E4" font-family="Arial Black, Impact, sans-serif" font-size="26" letter-spacing="3">FULL CITY COLUMBUS</text>
  <text x="400" y="716" text-anchor="middle" fill="#F6F0E4" font-family="Arial Black, Impact, sans-serif" font-size="20" letter-spacing="2">neocolumbus.github.io/Project-Columbus</text>
</svg>
