<svg xmlns="http://www.w3.org/2000/svg" viewBox="0 0 800 800" role="img" aria-labelledby="title desc">
  <title id="title">Scan The Signal Sticker</title>
  <desc id="desc">A Full City Columbus sticker with a QR code linking to https://neocolumbus.github.io/Project-Columbus/signal/?source=sticker</desc>
  <rect width="800" height="800" fill="#061620"/>
  <rect x="44" y="44" width="712" height="712" fill="#F4B037"/>
  <rect x="84" y="84" width="632" height="632" fill="#050606"/>
  <g transform="translate(190 116) scale(9.333333)">
    <rect width="45" height="45" fill="#F6F0E4"/>
    <path stroke="#050606" d="M4 4.5h7m4 0h2m2 0h1m1 0h2m1 0h2m1 0h1m1 0h2m1 0h1m1 0h7m-37 1h1m5 0h1m4 0h2m1 0h6m1 0h2m3 0h3m1 0h1m5 0h1m-37 1h1m1 0h3m1 0h1m1 0h4m1 0h1m4 0h7m1 0h3m1 0h1m1 0h3m1 0h1m-37 1h1m1 0h3m1 0h1m1 0h1m1 0h1m4 0h3m1 0h1m2 0h2m1 0h3m2 0h1m1 0h3m1 0h1m-37 1h1m1 0h3m1 0h1m1 0h1m1 0h2m2 0h1m3 0h4m1 0h1m4 0h1m1 0h1m1 0h3m1 0h1m-37 1h1m5 0h1m1 0h1m1 0h1m1 0h3m3 0h1m1 0h3m1 0h2m1 0h2m1 0h1m5 0h1m-37 1h7m1 0h1m1 0h1m1 0h1m1 0h1m1 0h1m1 0h1m1 0h1m1 0h1m1 0h1m1 0h1m1 0h1m1 0h7m-29 1h2m1 0h3m1 0h2m2 0h4m1 0h1m2 0h2m-29 1h1m1 0h5m2 0h2m2 0h1m1 0h1m2 0h3m1 0h7m1 0h5m-33 1h2m1 0h1m1 0h1m2 0h4m1 0h2m4 0h3m4 0h1m2 0h1m3 0h1m-34 1h2m1 0h4m1 0h3m7 0h1m4 0h1m1 0h3m2 0h1m2 0h2m-37 1h2m2 0h2m1 0h1m1 0h3m1 0h1m2 0h1m4 0h1m1 0h2m3 0h1m2 0h2m3 0h1m-36 1h1m4 0h2m2 0h1m2 0h2m1 0h2m6 0h3m1 0h3m1 0h1m1 0h3m-37 1h1m3 0h1m6 0h1m1 0h1m2 0h6m1 0h1m2 0h1m1 0h1m2 0h1m3 0h1m-36 1h2m2 0h4m2 0h3m2 0h1m1 0h1m6 0h2m1 0h1m2 0h4m1 0h2m-37 1h4m3 0h3m1 0h1m3 0h5m1 0h1m4 0h7m-33 1h4m1 0h6m1 0h3m1 0h1m4 0h1m2 0h3m2 0h2m1 0h1m1 0h1m1 0h1m-37 1h1m2 0h3m1 0h1m5 0h3m2 0h1m1 0h1m2 0h1m4 0h1m2 0h1m1 0h1m1 0h1m-35 1h1m1 0h4m1 0h1m1 0h3m2 0h5m2 0h1m3 0h7m1 0h3m-37 1h1m3 0h1m2 0h1m4 0h1m2 0h1m3 0h3m2 0h1m1 0h1m2 0h3m1 0h1m2 0h1m-37 1h1m1 0h1m3 0h2m1 0h7m1 0h1m1 0h2m1 0h2m1 0h3m1 0h2m1 0h3m-35 1h5m4 0h3m2 0h1m1 0h1m2 0h2m2 0h1m2 0h1m1 0h1m4 0h1m-34 1h2m3 0h6m4 0h2m1 0h1m3 0h1m3 0h4m1 0h3m1 0h2m-37 1h2m1 0h2m2 0h1m3 0h2m1 0h1m1 0h1m7 0h1m1 0h1m1 0h1m1 0h3m2 0h2m-36 1h2m1 0h9m1 0h1m3 0h1m1 0h6m2 0h1m1 0h1m1 0h1m1 0h2m-36 1h1m3 0h1m4 0h1m1 0h1m1 0h1m1 0h2m6 0h1m2 0h1m1 0h1m2 0h1m2 0h1m-35 1h1m1 0h1m2 0h2m1 0h1m3 0h1m7 0h2m2 0h2m1 0h3m1 0h1m2 0h3m-37 1h1m1 0h1m2 0h1m1 0h1m3 0h1m1 0h1m2 0h1m1 0h1m2 0h2m3 0h1m1 0h2m2 0h1m2 0h2m-37 1h1m2 0h1m2 0h2m1 0h5m3 0h2m1 0h1m1 0h1m1 0h2m2 0h5m1 0h3m-29 1h6m2 0h3m1 0h2m1 0h1m1 0h1m1 0h2m3 0h2m-34 1h7m2 0h1m2 0h2m1 0h3m2 0h2m4 0h1m1 0h1m1 0h1m1 0h1m1 0h3m-37 1h1m5 0h1m1 0h2m3 0h1m3 0h7m2 0h1m1 0h1m3 0h2m1 0h2m-37 1h1m1 0h3m1 0h1m1 0h1m2 0h2m1 0h3m2 0h1m1 0h1m3 0h8m1 0h3m-37 1h1m1 0h3m1 0h1m1 0h1m1 0h1m1 0h4m1 0h2m1 0h1m1 0h2m1 0h2m1 0h3m1 0h2m2 0h1m-37 1h1m1 0h3m1 0h1m1 0h1m1 0h1m3 0h3m2 0h1m2 0h1m2 0h3m6 0h3m-37 1h1m5 0h1m2 0h3m1 0h1m1 0h1m3 0h6m3 0h2m2 0h1m3 0h1m-37 1h7m1 0h1m1 0h2m1 0h1m1 0h1m3 0h1m4 0h4m1 0h1m2 0h5"/>
  </g>
  <text x="400" y="610" text-anchor="middle" fill="#F4B037" font-family="Impact, Arial Black, sans-serif" font-size="86">SCAN THE SIGNAL</text>
  <text x="400" y="674" text-anchor="middle" fill="#F6F0E4" font-family="Arial Black, Impact, sans-serif" font-size="26" letter-spacing="3">FULL CITY COLUMBUS</text>
  <text x="400" y="716" text-anchor="middle" fill="#F6F0E4" font-family="Arial Black, Impact, sans-serif" font-size="18" letter-spacing="1">neocolumbus.github.io/Project-Columbus/signal</text>
</svg>
