<svg xmlns="http://www.w3.org/2000/svg" viewBox="0 0 1200 2050" role="img" aria-labelledby="title desc">
  <title id="title">Drop 001 Poster Sticker Set</title>
  <desc id="desc">A no-QR sticker sheet made from the cleaned Drop 001 poster set. Poster art is inlined for GitHub-safe rendering.</desc>
  <defs>
    <clipPath id="poster-sticker">
      <rect width="320" height="400" rx="14"/>
    </clipPath>
    <g id="sticker-frame">
      <rect x="-14" y="-14" width="348" height="428" rx="22" fill="#F6F0E4"/>
      <rect x="-14" y="-14" width="348" height="428" rx="22" fill="none" stroke="#050606" stroke-width="6"/>
    </g>
  </defs>
  <rect width="1200" height="2050" fill="#F6F0E4"/>
  <text x="70" y="108" fill="#050606" font-family="Arial Black, Impact, sans-serif" font-size="42" letter-spacing="3">DROP 001 / POSTER STICKER SET</text>

  <g transform="translate(130 160)">
    <use href="#sticker-frame"/>
    <g clip-path="url(#poster-sticker)">
      <g transform="matrix(0.296296 0 0 0.296296 0.000000 0.000000)">
        <rect width="1080" height="1350" fill="#E8DDC7"/>
          <rect x="58" y="58" width="964" height="1234" fill="#061620"/>
          <rect x="58" y="58" width="964" height="98" fill="#9D4732"/>
          <text x="92" y="121" fill="#E8DDC7" font-family="Arial Black, Impact, sans-serif" font-size="34" letter-spacing="5">DROP 001 / SECOND GEOMETRY</text>
          <g transform="translate(540 356)">
            <circle r="178" fill="#E8DDC7"/>
            <circle r="136" fill="#061620"/>
            <rect x="-258" y="-13" width="516" height="26" fill="#E8DDC7"/>
            <rect x="-13" y="-178" width="26" height="356" fill="#E8DDC7"/>
            <rect x="-258" y="-4" width="516" height="8" fill="#B77836"/>
            <rect x="-4" y="-178" width="8" height="356" fill="#B77836"/>
            <circle r="72" fill="none" stroke="#E8DDC7" stroke-width="23"/>
            <circle r="36" fill="#F4B037"/>
          </g>
          <text x="92" y="725" fill="#F4B037" font-family="Impact, Arial Black, sans-serif" font-size="150">THE</text>
          <text x="92" y="875" fill="#E8DDC7" font-family="Impact, Arial Black, sans-serif" font-size="144">EARTHWORKS</text>
          <text x="92" y="1025" fill="#E8DDC7" font-family="Impact, Arial Black, sans-serif" font-size="150">WERE</text>
          <text x="92" y="1176" fill="#F4B037" font-family="Impact, Arial Black, sans-serif" font-size="150">FIRST</text>
          <rect x="58" y="1216" width="964" height="76" fill="#F4B037"/>
          <text x="92" y="1266" fill="#050606" font-family="Arial Black, Impact, sans-serif" font-size="28" letter-spacing="3">THE NEXT CITY IS US / PROJECT-COLUMBUS</text>
          <text x="540" y="1318" text-anchor="middle" fill="#061620" font-family="Arial Black, Impact, sans-serif" font-size="17" letter-spacing="2">HOPEWELL CEREMONIAL EARTHWORKS / RAISED TWO THOUSAND YEARS BACK</text>
          <text x="540" y="1340" text-anchor="middle" fill="#061620" font-family="Arial Black, Impact, sans-serif" font-size="17" letter-spacing="2">neocolumbus.github.io/Project-Columbus/site/signal</text>
      </g>
    </g>
  </g>
  <g transform="translate(750 160)">
    <use href="#sticker-frame"/>
    <g clip-path="url(#poster-sticker)">
      <g transform="matrix(0.296296 0 0 0.296296 0.000000 0.000000)">
        <rect width="1080" height="1350" fill="#050606"/>
          <rect x="54" y="54" width="972" height="1242" fill="#061620"/>
          <path d="M0 894 C220 786 350 810 540 902 S870 1006 1080 882" fill="none" stroke="#4F8A74" stroke-width="58"/>
          <path d="M0 972 C220 864 350 888 540 980 S870 1084 1080 960" fill="none" stroke="#E8DDC7" stroke-width="20"/>
          <path d="M540 54 V1296" stroke="#F4B037" stroke-width="10"/>
          <path d="M54 656 H1026" stroke="#F4B037" stroke-width="10"/>
          <g transform="translate(540 656)">
            <circle r="198" fill="#E8DDC7"/>
            <circle r="152" fill="#061620"/>
            <circle r="78" fill="none" stroke="#E8DDC7" stroke-width="26"/>
            <circle r="40" fill="#F4B037"/>
          </g>
          <rect x="54" y="54" width="972" height="116" fill="#F4B037"/>
          <text x="92" y="126" fill="#050606" font-family="Arial Black, Impact, sans-serif" font-size="38" letter-spacing="5">FIELD NOTICE / 002</text>
          <text x="92" y="314" fill="#E8DDC7" font-family="Impact, Arial Black, sans-serif" font-size="132">SIGNAL</text>
          <text x="92" y="442" fill="#E8DDC7" font-family="Impact, Arial Black, sans-serif" font-size="132">SEEN</text>
          <text x="92" y="1150" fill="#F4B037" font-family="Impact, Arial Black, sans-serif" font-size="118">CONFLUENCE</text>
          <text x="92" y="1216" fill="#E8DDC7" font-family="Arial Black, Impact, sans-serif" font-size="28" letter-spacing="4">SCIOTO + OLENTANGY</text>
          <text x="540" y="1332" text-anchor="middle" fill="#E8DDC7" font-family="Arial Black, Impact, sans-serif" font-size="19" letter-spacing="2">neocolumbus.github.io/Project-Columbus/site/signal</text>
      </g>
    </g>
  </g>
  <g transform="translate(130 610)">
    <use href="#sticker-frame"/>
    <g clip-path="url(#poster-sticker)">
      <g transform="matrix(0.296296 0 0 0.296296 0.000000 0.000000)">
        <rect width="1080" height="1350" fill="#9D4732"/>
          <rect x="66" y="66" width="948" height="1218" fill="#E8DDC7"/>
          <rect x="66" y="66" width="948" height="168" fill="#061620"/>
          <text x="100" y="138" fill="#F4B037" font-family="Arial Black, Impact, sans-serif" font-size="32" letter-spacing="5">EVIDENCE 003 / CITY CENTER</text>
          <text x="100" y="204" fill="#E8DDC7" font-family="Arial Black, Impact, sans-serif" font-size="26" letter-spacing="4">NOT A SEAL. A SIGNAL.</text>
          <g transform="translate(540 454)">
            <rect x="-342" y="-15" width="684" height="30" fill="#061620"/>
            <rect x="-15" y="-282" width="30" height="560" fill="#061620"/>
            <circle r="190" fill="#E8DDC7" stroke="#061620" stroke-width="26"/>
            <circle r="132" fill="#061620"/>
            <circle r="64" fill="none" stroke="#E8DDC7" stroke-width="22"/>
            <circle r="38" fill="#F4B037"/>
          </g>
          <text x="98" y="850" fill="#050606" font-family="Impact, Arial Black, sans-serif" font-size="104">THE CENTER</text>
          <text x="98" y="960" fill="#050606" font-family="Impact, Arial Black, sans-serif" font-size="104">WAS HERE</text>
          <text x="98" y="1070" fill="#050606" font-family="Impact, Arial Black, sans-serif" font-size="104">BEFORE</text>
          <text x="98" y="1180" fill="#9D4732" font-family="Impact, Arial Black, sans-serif" font-size="104">THE SEAL</text>
          <rect x="66" y="1218" width="948" height="66" fill="#061620"/>
          <text x="540" y="1332" text-anchor="middle" fill="#E8DDC7" font-family="Arial Black, Impact, sans-serif" font-size="19" letter-spacing="2">neocolumbus.github.io/Project-Columbus/site/signal</text>
      </g>
    </g>
  </g>
  <g transform="translate(750 610)">
    <use href="#sticker-frame"/>
    <g clip-path="url(#poster-sticker)">
      <g transform="matrix(0.296296 0 0 0.296296 0.000000 0.000000)">
        <rect width="1080" height="1350" fill="#F4B037"/>
          <rect x="52" y="52" width="976" height="1246" fill="#050606"/>
          <g fill="#E8DDC7">
            <rect x="102" y="112" width="196" height="156"/>
            <rect x="342" y="112" width="278" height="156"/>
            <rect x="662" y="112" width="316" height="156"/>
            <rect x="102" y="314" width="332" height="156"/>
            <rect x="480" y="314" width="182" height="156"/>
            <rect x="704" y="314" width="274" height="156"/>
          </g>
          <path d="M92 576 H988" stroke="#F4B037" stroke-width="24"/>
          <path d="M540 84 V586" stroke="#F4B037" stroke-width="16"/>
          <circle cx="540" cy="586" r="78" fill="#E8DDC7"/>
          <circle cx="540" cy="586" r="42" fill="#050606"/>
          <circle cx="540" cy="586" r="22" fill="#F4B037"/>
          <text x="92" y="762" fill="#F4B037" font-family="Impact, Arial Black, sans-serif" font-size="150">A PILE</text>
          <text x="92" y="912" fill="#E8DDC7" font-family="Impact, Arial Black, sans-serif" font-size="150">OF PROJECTS</text>
          <text x="92" y="1062" fill="#E8DDC7" font-family="Impact, Arial Black, sans-serif" font-size="150">IS NOT</text>
          <text x="92" y="1212" fill="#F4B037" font-family="Impact, Arial Black, sans-serif" font-size="150">A CITY</text>
          <text x="92" y="1272" fill="#E8DDC7" font-family="Arial Black, Impact, sans-serif" font-size="30" letter-spacing="4">MAKE THE WHOLE BODY MOVE</text>
          <text x="540" y="1332" text-anchor="middle" fill="#061620" font-family="Arial Black, Impact, sans-serif" font-size="19" letter-spacing="2">neocolumbus.github.io/Project-Columbus/site/signal</text>
      </g>
    </g>
  </g>
  <g transform="translate(130 1060)">
    <use href="#sticker-frame"/>
    <g clip-path="url(#poster-sticker)">
      <g transform="matrix(0.296296 0 0 0.296296 0.000000 0.000000)">
        <rect width="1080" height="1350" fill="#17352F"/>
          <g opacity="0.78">
            <path d="M0 160h1080M0 280h1080M0 400h1080M0 520h1080M0 640h1080M0 760h1080M0 880h1080M0 1000h1080M0 1120h1080" stroke="#4F8A74" stroke-width="4"/>
            <path d="M120 0v1350M240 0v1350M360 0v1350M480 0v1350M600 0v1350M720 0v1350M840 0v1350M960 0v1350" stroke="#4F8A74" stroke-width="4"/>
          </g>
          <g transform="translate(540 372)">
            <rect x="-214" y="-214" width="428" height="428" fill="#061620" stroke="#E8DDC7" stroke-width="18"/>
            <path d="M-314 0h628M0-300v600" stroke="#F4B037" stroke-width="18"/>
            <circle r="156" fill="none" stroke="#E8DDC7" stroke-width="30"/>
            <circle r="58" fill="#F4B037"/>
          </g>
          <rect x="64" y="64" width="952" height="80" fill="#F4B037"/>
          <text x="98" y="118" fill="#050606" font-family="Arial Black, Impact, sans-serif" font-size="34" letter-spacing="5">AI CIVIC DIVIDEND / PUBLIC TEST</text>
          <text x="86" y="724" fill="#F4B037" font-family="Impact, Arial Black, sans-serif" font-size="146">THE</text>
          <text x="86" y="876" fill="#E8DDC7" font-family="Impact, Arial Black, sans-serif" font-size="146">MACHINE</text>
          <text x="86" y="1028" fill="#E8DDC7" font-family="Impact, Arial Black, sans-serif" font-size="146">PAYS</text>
          <text x="86" y="1180" fill="#F4B037" font-family="Impact, Arial Black, sans-serif" font-size="146">TRIBUTE</text>
          <text x="88" y="1254" fill="#E8DDC7" font-family="Arial Black, Impact, sans-serif" font-size="30" letter-spacing="4">WATER / POWER / LAND / TAX / COMPUTE / DATA</text>
          <text x="540" y="1332" text-anchor="middle" fill="#E8DDC7" font-family="Arial Black, Impact, sans-serif" font-size="19" letter-spacing="2">neocolumbus.github.io/Project-Columbus/site/signal</text>
      </g>
    </g>
  </g>
  <g transform="translate(750 1060)">
    <use href="#sticker-frame"/>
    <g clip-path="url(#poster-sticker)">
      <g transform="matrix(0.296296 0 0 0.296296 0.000000 0.000000)">
        <rect width="1080" height="1350" fill="#E8DDC7"/>
          <rect x="58" y="58" width="964" height="1234" fill="#050606"/>
          <g fill="#9D4732">
            <rect x="94" y="94" width="132" height="86"/>
            <rect x="246" y="94" width="190" height="86"/>
            <rect x="456" y="94" width="142" height="86"/>
            <rect x="618" y="94" width="242" height="86"/>
            <rect x="880" y="94" width="106" height="86"/>
            <rect x="94" y="206" width="230" height="86"/>
            <rect x="344" y="206" width="134" height="86"/>
            <rect x="498" y="206" width="252" height="86"/>
            <rect x="770" y="206" width="216" height="86"/>
          </g>
          <path d="M706 422 L872 594 L810 706 L938 858 L884 982 L962 1106" fill="none" stroke="#F4B037" stroke-width="30" stroke-linecap="square"/>
          <path d="M94 382 H986" stroke="#E8DDC7" stroke-width="14"/>
          <path d="M700 348 V1128" stroke="#E8DDC7" stroke-width="8"/>
          <circle cx="700" cy="698" r="92" fill="#E8DDC7"/>
          <circle cx="700" cy="698" r="60" fill="#050606"/>
          <circle cx="700" cy="698" r="28" fill="#F4B037"/>
          <text x="90" y="528" fill="#E8DDC7" font-family="Impact, Arial Black, sans-serif" font-size="140">REPORT</text>
          <text x="90" y="874" fill="#F4B037" font-family="Impact, Arial Black, sans-serif" font-size="180">A DEAD</text>
          <text x="90" y="1042" fill="#E8DDC7" font-family="Impact, Arial Black, sans-serif" font-size="180">WALL</text>
          <rect x="58" y="1216" width="964" height="76" fill="#F4B037"/>
          <text x="90" y="1268" fill="#050606" font-family="Arial Black, Impact, sans-serif" font-size="30" letter-spacing="4">DENSITY DESERVES BEAUTY / DROP 001</text>
      </g>
    </g>
  </g>
  <g transform="translate(130 1510)">
    <use href="#sticker-frame"/>
    <g clip-path="url(#poster-sticker)">
      <g transform="matrix(0.296296 0 0 0.296296 0.000000 0.000000)">
        <rect width="1080" height="1350" fill="#061620"/>
          <rect x="58" y="58" width="964" height="1234" fill="#050606"/>
          <rect x="58" y="58" width="964" height="104" fill="#F4B037"/>
          <text x="92" y="124" fill="#050606" font-family="Arial Black, Impact, sans-serif" font-size="34" letter-spacing="5">TRANSIT 007</text>
          <g opacity="0.42">
            <path d="M474 274 H932 M474 402 H932 M474 530 H932 M474 658 H932 M474 786 H932 M474 914 H932" stroke="#4F8A74" stroke-width="8"/>
            <path d="M560 220 V1040 M690 220 V1040 M820 220 V1040 M950 220 V1040" stroke="#4F8A74" stroke-width="8"/>
          </g>
          <path d="M500 1010 C630 850 620 704 726 650 C820 602 820 724 946 472" fill="none" stroke="#F4B037" stroke-width="34" stroke-linecap="square"/>
          <path d="M488 506 C604 418 706 436 788 548 C878 674 894 730 968 660" fill="none" stroke="#E8DDC7" stroke-width="18" stroke-linecap="square"/>
          <g fill="#F6F0E4" stroke="#050606" stroke-width="14">
            <circle cx="548" cy="920" r="46"/>
            <circle cx="726" cy="650" r="46"/>
            <circle cx="720" cy="610" r="46"/>
            <circle cx="900" cy="504" r="46"/>
          </g>
          <g transform="translate(622 320)">
            <circle r="116" fill="#E8DDC7"/>
            <circle r="84" fill="#061620"/>
            <circle r="44" fill="none" stroke="#E8DDC7" stroke-width="18"/>
            <circle r="24" fill="#F4B037"/>
          </g>
          <text x="86" y="662" fill="#F4B037" font-family="Impact, Arial Black, sans-serif" font-size="116">COTA IS THE</text>
          <text x="86" y="820" fill="#E8DDC7" font-family="Impact, Arial Black, sans-serif" font-size="138">NERVOUS</text>
          <text x="86" y="978" fill="#E8DDC7" font-family="Impact, Arial Black, sans-serif" font-size="138">SYSTEM</text>
          <rect x="58" y="1216" width="964" height="76" fill="#F4B037"/>
          <text x="90" y="1268" fill="#050606" font-family="Arial Black, Impact, sans-serif" font-size="30" letter-spacing="4">FREQUENCY IS DIGNITY / DROP 001</text>
          <text x="540" y="1332" text-anchor="middle" fill="#E8DDC7" font-family="Arial Black, Impact, sans-serif" font-size="19" letter-spacing="2">neocolumbus.github.io/Project-Columbus/site/signal</text>
      </g>
    </g>
  </g>
  <g transform="translate(750 1510)">
    <use href="#sticker-frame"/>
    <g clip-path="url(#poster-sticker)">
      <g transform="matrix(0.296296 0 0 0.296296 0.000000 0.000000)">
        <rect width="1080" height="1350" fill="#050606"/>
          <rect x="58" y="58" width="964" height="1234" fill="#061620"/>
          <rect x="58" y="58" width="964" height="104" fill="#F4B037"/>
          <text x="92" y="124" fill="#050606" font-family="Arial Black, Impact, sans-serif" font-size="34" letter-spacing="5">FULL CITY COLUMBUS</text>
          <g opacity="0.5">
            <path d="M514 260 H960 M514 398 H960 M514 536 H960 M514 674 H960 M514 812 H960 M514 950 H960" stroke="#4F8A74" stroke-width="8"/>
            <path d="M620 214 V1040 M766 214 V1040 M912 214 V1040" stroke="#4F8A74" stroke-width="8"/>
          </g>
          <g transform="translate(790 602)">
            <path d="M-260 0 H260 M0 -260 V260" stroke="#E8DDC7" stroke-width="22"/>
            <path d="M-260 0 H260 M0 -260 V260" stroke="#B77836" stroke-width="7"/>
            <circle r="174" fill="#E8DDC7"/>
            <circle r="132" fill="#061620"/>
            <circle r="76" fill="none" stroke="#E8DDC7" stroke-width="24"/>
            <circle r="40" fill="none" stroke="#B77836" stroke-width="11"/>
            <circle r="28" fill="#F4B037"/>
          </g>
          <text x="84" y="402" fill="#E8DDC7" font-family="Impact, Arial Black, sans-serif" font-size="158">NO MORE</text>
          <text x="84" y="582" fill="#F4B037" font-family="Impact, Arial Black, sans-serif" font-size="158">HALF</text>
          <text x="84" y="762" fill="#F4B037" font-family="Impact, Arial Black, sans-serif" font-size="158">CITY</text>
          <text x="88" y="1080" fill="#E8DDC7" font-family="Arial Black, Impact, sans-serif" font-size="38" letter-spacing="5">BUILD THE WHOLE BODY</text>
          <rect x="58" y="1216" width="964" height="76" fill="#F4B037"/>
          <text x="90" y="1268" fill="#050606" font-family="Arial Black, Impact, sans-serif" font-size="30" letter-spacing="4">NO MORE FRAGMENTS / DROP 001</text>
          <text x="540" y="1332" text-anchor="middle" fill="#E8DDC7" font-family="Arial Black, Impact, sans-serif" font-size="19" letter-spacing="2">neocolumbus.github.io/Project-Columbus/site/signal</text>
      </g>
    </g>
  </g>

  <text x="70" y="1998" fill="#050606" font-family="Arial Black, Impact, sans-serif" font-size="24" letter-spacing="4">POSTER STICKERS / TRANSIT ADDED / NO QR</text>
</svg>
