<svg xmlns="http://www.w3.org/2000/svg" viewBox="0 0 2550 3300" role="img" aria-labelledby="title desc">
  <title id="title">Drop 001 Letter Sticker Sheet</title>
  <desc id="desc">A letter-size sticker sheet with four larger poster stickers and corner QR badges. Poster art is inlined for GitHub-safe rendering.</desc>
  <defs>
    <symbol id="project-qr" viewBox="0 0 49 49">
      <rect width="49" height="49" fill="#F6F0E4"/>
      <path stroke="#050606" d="M4 4.5h7m3 0h2m4 0h6m1 0h1m1 0h2m3 0h3m1 0h7M4 5.5h1m5 0h1m2 0h1m1 0h4m2 0h1m2 0h2m3 0h6m1 0h1m1 0h1m5 0h1M4 6.5h1m1 0h3m1 0h1m1 0h3m1 0h2m2 0h4m1 0h5m1 0h2m2 0h1m2 0h1m1 0h3m1 0h1M4 7.5h1m1 0h3m1 0h1m1 0h1m1 0h1m3 0h1m5 0h2m4 0h2m1 0h1m4 0h1m1 0h3m1 0h1M4 8.5h1m1 0h3m1 0h1m1 0h2m1 0h1m2 0h2m2 0h6m1 0h1m2 0h5m1 0h1m1 0h3m1 0h1M4 9.5h1m5 0h1m1 0h4m1 0h1m2 0h1m3 0h3m1 0h6m4 0h1m5 0h1M4 10.5h7m1 0h1m1 0h1m1 0h1m1 0h1m1 0h1m1 0h1m1 0h1m1 0h1m1 0h1m1 0h1m1 0h1m1 0h1m1 0h1m1 0h7M12 11.5h1m3 0h1m2 0h2m1 0h1m2 0h4m1 0h1m4 0h1M4 12.5h1m1 0h5m4 0h1m1 0h1m1 0h3m1 0h2m1 0h1m2 0h3m1 0h1m1 0h1m2 0h5M5 13.5h1m3 0h1m3 0h7m2 0h6m1 0h1m2 0h1m1 0h2m1 0h4m2 0h2M4 14.5h1m2 0h1m2 0h1m1 0h4m8 0h3m1 0h5m3 0h1m2 0h2m1 0h2M4 15.5h6m2 0h2m1 0h4m1 0h1m1 0h1m2 0h4m1 0h1m4 0h2m3 0h2m1 0h1M4 16.5h2m1 0h1m1 0h2m1 0h2m1 0h1m2 0h4m1 0h2m1 0h1m1 0h4m1 0h1m1 0h1m3 0h2m1 0h1M4 17.5h3m1 0h1m4 0h5m1 0h4m3 0h1m2 0h1m1 0h1m1 0h12M4 18.5h2m4 0h1m6 0h1m4 0h1m1 0h1m2 0h2m1 0h2m1 0h1m2 0h2m1 0h1m2 0h1M4 19.5h5m2 0h1m1 0h3m2 0h1m1 0h1m1 0h1m2 0h3m2 0h1m5 0h2m1 0h1m1 0h1m2 0h1M10 20.5h2m2 0h3m2 0h1m1 0h1m2 0h1m1 0h6m1 0h1m1 0h2m2 0h1m2 0h2M4 21.5h2m1 0h2m3 0h1m1 0h6m2 0h3m2 0h1m2 0h1m1 0h1m2 0h2m1 0h3m1 0h3M4 22.5h2m1 0h1m1 0h5m2 0h1m2 0h2m1 0h1m1 0h1m1 0h1m4 0h2m1 0h1m1 0h2m2 0h2m1 0h1M5 23.5h1m1 0h3m2 0h2m1 0h1m2 0h3m3 0h1m3 0h1m1 0h1m4 0h3m1 0h3m1 0h2M5 24.5h4m1 0h1m1 0h2m1 0h3m1 0h2m1 0h2m1 0h4m2 0h1m1 0h1m1 0h1m6 0h2M4 25.5h1m3 0h2m1 0h1m2 0h1m1 0h1m1 0h2m1 0h1m1 0h3m1 0h1m1 0h5m1 0h2m1 0h3m2 0h2M4 26.5h1m4 0h2m1 0h1m1 0h4m2 0h1m1 0h1m1 0h1m5 0h4m2 0h1m1 0h6M7 27.5h3m5 0h2m5 0h2m1 0h2m4 0h2m1 0h4m3 0h1M6 28.5h2m2 0h3m1 0h2m1 0h2m2 0h1m5 0h4m2 0h1m1 0h1m1 0h1m4 0h1m1 0h1M5 29.5h2m1 0h2m3 0h1m2 0h1m1 0h3m2 0h3m1 0h1m1 0h2m1 0h1m1 0h2m1 0h4m1 0h1m1 0h1M10 30.5h1m3 0h1m2 0h3m4 0h1m5 0h5m3 0h1M5 31.5h3m3 0h1m4 0h1m1 0h3m2 0h4m5 0h1m2 0h1m1 0h1m1 0h1m1 0h1M4 32.5h1m1 0h1m1 0h1m1 0h2m1 0h1m5 0h4m4 0h1m1 0h2m2 0h1m1 0h1m5 0h2M4 33.5h1m2 0h3m4 0h1m2 0h1m1 0h2m1 0h1m1 0h2m2 0h1m1 0h1m4 0h1m1 0h2m1 0h1m1 0h1m1 0h1M4 34.5h1m3 0h6m4 0h1m4 0h1m1 0h2m2 0h1m1 0h1m5 0h1m1 0h1m1 0h1M4 35.5h1m2 0h1m4 0h1m4 0h1m1 0h1m3 0h4m1 0h1m1 0h3m3 0h1m1 0h2m1 0h1m2 0h1M4 36.5h1m1 0h1m3 0h2m2 0h1m2 0h5m1 0h1m2 0h1m1 0h4m1 0h1m2 0h5m1 0h1m1 0h1M12 37.5h3m1 0h3m2 0h3m1 0h3m1 0h2m1 0h1m2 0h2m3 0h2m1 0h2M4 38.5h7m2 0h2m1 0h1m2 0h3m3 0h1m2 0h4m1 0h4m1 0h1m1 0h3M4 39.5h1m5 0h1m1 0h2m1 0h1m4 0h4m1 0h2m2 0h1m4 0h1m1 0h1m3 0h2M4 40.5h1m1 0h3m1 0h1m1 0h3m4 0h1m4 0h2m2 0h1m1 0h2m1 0h1m2 0h5m1 0h1M4 41.5h1m1 0h3m1 0h1m1 0h3m3 0h1m1 0h1m1 0h3m1 0h2m6 0h4m1 0h1m1 0h1M4 42.5h1m1 0h3m1 0h1m1 0h1m4 0h2m1 0h2m2 0h1m1 0h1m3 0h2m3 0h2m1 0h3m1 0h1M4 43.5h1m5 0h1m3 0h3m1 0h1m1 0h6m4 0h3m3 0h2m2 0h2m1 0h1M4 44.5h7m1 0h5m6 0h1m2 0h1m1 0h4m1 0h1m1 0h1m1 0h4m1 0h1"/>
    </symbol>
    <clipPath id="letter-poster">
      <rect width="820" height="1025" rx="32"/>
    </clipPath>
    <g id="letter-frame">
      <rect x="-24" y="-24" width="868" height="1073" rx="46" fill="#F6F0E4"/>
      <rect x="-24" y="-24" width="868" height="1073" rx="46" fill="none" stroke="#050606" stroke-width="14"/>
    </g>
    <g id="letter-qr">
      <rect width="176" height="212" fill="#F6F0E4" stroke="#050606" stroke-width="10"/>
      <use href="#project-qr" x="18" y="16" width="140" height="140"/>
      <text x="88" y="190" text-anchor="middle" fill="#050606" font-family="Arial Black, Impact, sans-serif" font-size="28" letter-spacing="4">SCAN</text>
    </g>
  </defs>
  <rect width="2550" height="3300" fill="#F6F0E4"/>
  <text x="150" y="174" fill="#050606" font-family="Arial Black, Impact, sans-serif" font-size="78" letter-spacing="5">DROP 001 / LETTER STICKERS</text>
  <text x="150" y="250" fill="#9D4732" font-family="Arial Black, Impact, sans-serif" font-size="34" letter-spacing="5">BIGGER STICKERS / REAL CORNERS / STREET PACK</text>

  <g transform="translate(250 360)">
    <use href="#letter-frame"/>
    <g clip-path="url(#letter-poster)">
      <g transform="matrix(0.759259 0 0 0.759259 0.000000 0.000000)">
        <rect width="1080" height="1350" fill="#E8DDC7"/>
          <rect x="58" y="58" width="964" height="1234" fill="#061620"/>
          <rect x="58" y="58" width="964" height="98" fill="#9D4732"/>
          <text x="92" y="121" fill="#E8DDC7" font-family="Arial Black, Impact, sans-serif" font-size="34" letter-spacing="5">DROP 001 / SECOND GEOMETRY</text>
          <g transform="translate(540 356)">
            <circle r="178" fill="#E8DDC7"/>
            <circle r="136" fill="#061620"/>
            <rect x="-258" y="-13" width="516" height="26" fill="#E8DDC7"/>
            <rect x="-13" y="-178" width="26" height="356" fill="#E8DDC7"/>
            <rect x="-258" y="-4" width="516" height="8" fill="#B77836"/>
            <rect x="-4" y="-178" width="8" height="356" fill="#B77836"/>
            <circle r="72" fill="none" stroke="#E8DDC7" stroke-width="23"/>
            <circle r="36" fill="#F4B037"/>
          </g>
          <text x="92" y="725" fill="#F4B037" font-family="Impact, Arial Black, sans-serif" font-size="150">THE</text>
          <text x="92" y="875" fill="#E8DDC7" font-family="Impact, Arial Black, sans-serif" font-size="144">EARTHWORKS</text>
          <text x="92" y="1025" fill="#E8DDC7" font-family="Impact, Arial Black, sans-serif" font-size="150">WERE</text>
          <text x="92" y="1176" fill="#F4B037" font-family="Impact, Arial Black, sans-serif" font-size="150">FIRST</text>
          <rect x="58" y="1216" width="964" height="76" fill="#F4B037"/>
          <text x="92" y="1266" fill="#050606" font-family="Arial Black, Impact, sans-serif" font-size="28" letter-spacing="3">THE NEXT CITY IS US / PROJECT-COLUMBUS</text>
          <text x="540" y="1318" text-anchor="middle" fill="#061620" font-family="Arial Black, Impact, sans-serif" font-size="17" letter-spacing="2">HOPEWELL CEREMONIAL EARTHWORKS / RAISED TWO THOUSAND YEARS BACK</text>
          <text x="540" y="1340" text-anchor="middle" fill="#061620" font-family="Arial Black, Impact, sans-serif" font-size="17" letter-spacing="2">neocolumbus.github.io/Project-Columbus/site/signal</text>
      </g>
    </g>
    <use href="#letter-qr" transform="translate(620 790)"/>
  </g>
  <g transform="translate(1480 360)">
    <use href="#letter-frame"/>
    <g clip-path="url(#letter-poster)">
      <g transform="matrix(0.759259 0 0 0.759259 0.000000 0.000000)">
        <rect width="1080" height="1350" fill="#050606"/>
          <rect x="54" y="54" width="972" height="1242" fill="#061620"/>
          <path d="M0 894 C220 786 350 810 540 902 S870 1006 1080 882" fill="none" stroke="#4F8A74" stroke-width="58"/>
          <path d="M0 972 C220 864 350 888 540 980 S870 1084 1080 960" fill="none" stroke="#E8DDC7" stroke-width="20"/>
          <path d="M540 54 V1296" stroke="#F4B037" stroke-width="10"/>
          <path d="M54 656 H1026" stroke="#F4B037" stroke-width="10"/>
          <g transform="translate(540 656)">
            <circle r="198" fill="#E8DDC7"/>
            <circle r="152" fill="#061620"/>
            <circle r="78" fill="none" stroke="#E8DDC7" stroke-width="26"/>
            <circle r="40" fill="#F4B037"/>
          </g>
          <rect x="54" y="54" width="972" height="116" fill="#F4B037"/>
          <text x="92" y="126" fill="#050606" font-family="Arial Black, Impact, sans-serif" font-size="38" letter-spacing="5">FIELD NOTICE / 002</text>
          <text x="92" y="314" fill="#E8DDC7" font-family="Impact, Arial Black, sans-serif" font-size="132">SIGNAL</text>
          <text x="92" y="442" fill="#E8DDC7" font-family="Impact, Arial Black, sans-serif" font-size="132">SEEN</text>
          <text x="92" y="1150" fill="#F4B037" font-family="Impact, Arial Black, sans-serif" font-size="118">CONFLUENCE</text>
          <text x="92" y="1216" fill="#E8DDC7" font-family="Arial Black, Impact, sans-serif" font-size="28" letter-spacing="4">SCIOTO + OLENTANGY</text>
          <text x="540" y="1332" text-anchor="middle" fill="#E8DDC7" font-family="Arial Black, Impact, sans-serif" font-size="19" letter-spacing="2">neocolumbus.github.io/Project-Columbus/site/signal</text>
      </g>
    </g>
    <use href="#letter-qr" transform="translate(620 790)"/>
  </g>
  <g transform="translate(250 1710)">
    <use href="#letter-frame"/>
    <g clip-path="url(#letter-poster)">
      <g transform="matrix(0.759259 0 0 0.759259 0.000000 0.000000)">
        <rect width="1080" height="1350" fill="#9D4732"/>
          <rect x="66" y="66" width="948" height="1218" fill="#E8DDC7"/>
          <rect x="66" y="66" width="948" height="168" fill="#061620"/>
          <text x="100" y="138" fill="#F4B037" font-family="Arial Black, Impact, sans-serif" font-size="32" letter-spacing="5">EVIDENCE 003 / CITY CENTER</text>
          <text x="100" y="204" fill="#E8DDC7" font-family="Arial Black, Impact, sans-serif" font-size="26" letter-spacing="4">NOT A SEAL. A SIGNAL.</text>
          <g transform="translate(540 454)">
            <rect x="-342" y="-15" width="684" height="30" fill="#061620"/>
            <rect x="-15" y="-204" width="30" height="408" fill="#061620"/>
            <circle r="190" fill="#E8DDC7" stroke="#061620" stroke-width="26"/>
            <circle r="132" fill="#061620"/>
            <circle r="64" fill="none" stroke="#E8DDC7" stroke-width="22"/>
            <circle r="38" fill="#F4B037"/>
          </g>
          <text x="98" y="780" fill="#050606" font-family="Impact, Arial Black, sans-serif" font-size="112">THE CENTER</text>
          <text x="98" y="902" fill="#050606" font-family="Impact, Arial Black, sans-serif" font-size="112">WAS HERE</text>
          <text x="98" y="1024" fill="#050606" font-family="Impact, Arial Black, sans-serif" font-size="112">BEFORE</text>
          <text x="98" y="1146" fill="#9D4732" font-family="Impact, Arial Black, sans-serif" font-size="112">THE SEAL</text>
          <rect x="66" y="1218" width="948" height="66" fill="#061620"/>
          <text x="540" y="1332" text-anchor="middle" fill="#E8DDC7" font-family="Arial Black, Impact, sans-serif" font-size="19" letter-spacing="2">neocolumbus.github.io/Project-Columbus/site/signal</text>
      </g>
    </g>
    <use href="#letter-qr" transform="translate(620 790)"/>
  </g>
  <g transform="translate(1480 1710)">
    <use href="#letter-frame"/>
    <g clip-path="url(#letter-poster)">
      <g transform="matrix(0.759259 0 0 0.759259 0.000000 0.000000)">
        <rect width="1080" height="1350" fill="#061620"/>
          <rect x="58" y="58" width="964" height="1234" fill="#050606"/>
          <rect x="58" y="58" width="964" height="104" fill="#F4B037"/>
          <text x="92" y="124" fill="#050606" font-family="Arial Black, Impact, sans-serif" font-size="34" letter-spacing="5">TRANSIT 007</text>
          <g opacity="0.42">
            <path d="M474 274 H932 M474 402 H932 M474 530 H932 M474 658 H932 M474 786 H932 M474 914 H932" stroke="#4F8A74" stroke-width="8"/>
            <path d="M560 220 V1040 M690 220 V1040 M820 220 V1040 M950 220 V1040" stroke="#4F8A74" stroke-width="8"/>
          </g>
          <path d="M500 1010 C630 850 620 704 726 650 C820 602 820 724 946 472" fill="none" stroke="#F4B037" stroke-width="34" stroke-linecap="square"/>
          <path d="M488 506 C604 418 706 436 788 548 C878 674 894 730 968 660" fill="none" stroke="#E8DDC7" stroke-width="18" stroke-linecap="square"/>
          <g fill="#F6F0E4" stroke="#050606" stroke-width="14">
            <circle cx="548" cy="920" r="46"/>
            <circle cx="726" cy="650" r="46"/>
            <circle cx="720" cy="610" r="46"/>
            <circle cx="900" cy="504" r="46"/>
          </g>
          <g transform="translate(622 320)">
            <circle r="116" fill="#E8DDC7"/>
            <circle r="84" fill="#061620"/>
            <circle r="44" fill="none" stroke="#E8DDC7" stroke-width="18"/>
            <circle r="24" fill="#F4B037"/>
          </g>
          <text x="86" y="662" fill="#F4B037" font-family="Impact, Arial Black, sans-serif" font-size="116">COTA IS THE</text>
          <text x="86" y="820" fill="#E8DDC7" font-family="Impact, Arial Black, sans-serif" font-size="138">NERVOUS</text>
          <text x="86" y="978" fill="#E8DDC7" font-family="Impact, Arial Black, sans-serif" font-size="138">SYSTEM</text>
          <rect x="58" y="1216" width="964" height="76" fill="#F4B037"/>
          <text x="90" y="1268" fill="#050606" font-family="Arial Black, Impact, sans-serif" font-size="30" letter-spacing="4">FREQUENCY IS DIGNITY / DROP 001</text>
          <text x="540" y="1332" text-anchor="middle" fill="#E8DDC7" font-family="Arial Black, Impact, sans-serif" font-size="19" letter-spacing="2">neocolumbus.github.io/Project-Columbus/site/signal</text>
      </g>
    </g>
    <use href="#letter-qr" transform="translate(620 790)"/>
  </g>

  <text x="150" y="3176" fill="#050606" font-family="Arial Black, Impact, sans-serif" font-size="40" letter-spacing="5">PRINT LETTER SIZE / CUT FOUR BIG / TEST EVERY SCAN</text>
</svg>
