<svg xmlns="http://www.w3.org/2000/svg" viewBox="0 0 2550 3300" role="img" aria-labelledby="title desc">
  <title id="title">Drop 001 Letter Sticker Sheet</title>
  <desc id="desc">A letter-size sticker sheet with four larger poster stickers and corner QR badges.</desc>
  <defs>
    <symbol id="project-qr" viewBox="0 0 49 49">
      <rect width="49" height="49" fill="#F6F0E4"/>
      <path stroke="#050606" d="M4 4.5h7m3 0h2m4 0h6m1 0h1m1 0h2m3 0h3m1 0h7M4 5.5h1m5 0h1m2 0h1m1 0h4m2 0h1m2 0h2m3 0h6m1 0h1m1 0h1m5 0h1M4 6.5h1m1 0h3m1 0h1m1 0h3m1 0h2m2 0h4m1 0h5m1 0h2m2 0h1m2 0h1m1 0h3m1 0h1M4 7.5h1m1 0h3m1 0h1m1 0h1m1 0h1m3 0h1m5 0h2m4 0h2m1 0h1m4 0h1m1 0h3m1 0h1M4 8.5h1m1 0h3m1 0h1m1 0h2m1 0h1m2 0h2m2 0h6m1 0h1m2 0h5m1 0h1m1 0h3m1 0h1M4 9.5h1m5 0h1m1 0h4m1 0h1m2 0h1m3 0h3m1 0h6m4 0h1m5 0h1M4 10.5h7m1 0h1m1 0h1m1 0h1m1 0h1m1 0h1m1 0h1m1 0h1m1 0h1m1 0h1m1 0h1m1 0h1m1 0h1m1 0h1m1 0h7M12 11.5h1m3 0h1m2 0h2m1 0h1m2 0h4m1 0h1m4 0h1M4 12.5h1m1 0h5m4 0h1m1 0h1m1 0h3m1 0h2m1 0h1m2 0h3m1 0h1m1 0h1m2 0h5M5 13.5h1m3 0h1m3 0h7m2 0h6m1 0h1m2 0h1m1 0h2m1 0h4m2 0h2M4 14.5h1m2 0h1m2 0h1m1 0h4m8 0h3m1 0h5m3 0h1m2 0h2m1 0h2M4 15.5h6m2 0h2m1 0h4m1 0h1m1 0h1m2 0h4m1 0h1m4 0h2m3 0h2m1 0h1M4 16.5h2m1 0h1m1 0h2m1 0h2m1 0h1m2 0h4m1 0h2m1 0h1m1 0h4m1 0h1m1 0h1m3 0h2m1 0h1M4 17.5h3m1 0h1m4 0h5m1 0h4m3 0h1m2 0h1m1 0h1m1 0h12M4 18.5h2m4 0h1m6 0h1m4 0h1m1 0h1m2 0h2m1 0h2m1 0h1m2 0h2m1 0h1m2 0h1M4 19.5h5m2 0h1m1 0h3m2 0h1m1 0h1m1 0h1m2 0h3m2 0h1m5 0h2m1 0h1m1 0h1m2 0h1M10 20.5h2m2 0h3m2 0h1m1 0h1m2 0h1m1 0h6m1 0h1m1 0h2m2 0h1m2 0h2M4 21.5h2m1 0h2m3 0h1m1 0h6m2 0h3m2 0h1m2 0h1m1 0h1m2 0h2m1 0h3m1 0h3M4 22.5h2m1 0h1m1 0h5m2 0h1m2 0h2m1 0h1m1 0h1m1 0h1m4 0h2m1 0h1m1 0h2m2 0h2m1 0h1M5 23.5h1m1 0h3m2 0h2m1 0h1m2 0h3m3 0h1m3 0h1m1 0h1m4 0h3m1 0h3m1 0h2M5 24.5h4m1 0h1m1 0h2m1 0h3m1 0h2m1 0h2m1 0h4m2 0h1m1 0h1m1 0h1m6 0h2M4 25.5h1m3 0h2m1 0h1m2 0h1m1 0h1m1 0h2m1 0h1m1 0h3m1 0h1m1 0h5m1 0h2m1 0h3m2 0h2M4 26.5h1m4 0h2m1 0h1m1 0h4m2 0h1m1 0h1m1 0h1m5 0h4m2 0h1m1 0h6M7 27.5h3m5 0h2m5 0h2m1 0h2m4 0h2m1 0h4m3 0h1M6 28.5h2m2 0h3m1 0h2m1 0h2m2 0h1m5 0h4m2 0h1m1 0h1m1 0h1m4 0h1m1 0h1M5 29.5h2m1 0h2m3 0h1m2 0h1m1 0h3m2 0h3m1 0h1m1 0h2m1 0h1m1 0h2m1 0h4m1 0h1m1 0h1M10 30.5h1m3 0h1m2 0h3m4 0h1m5 0h5m3 0h1M5 31.5h3m3 0h1m4 0h1m1 0h3m2 0h4m5 0h1m2 0h1m1 0h1m1 0h1m1 0h1M4 32.5h1m1 0h1m1 0h1m1 0h2m1 0h1m5 0h4m4 0h1m1 0h2m2 0h1m1 0h1m5 0h2M4 33.5h1m2 0h3m4 0h1m2 0h1m1 0h2m1 0h1m1 0h2m2 0h1m1 0h1m4 0h1m1 0h2m1 0h1m1 0h1m1 0h1M4 34.5h1m3 0h6m4 0h1m4 0h1m1 0h2m2 0h1m1 0h1m5 0h1m1 0h1m1 0h1M4 35.5h1m2 0h1m4 0h1m4 0h1m1 0h1m3 0h4m1 0h1m1 0h3m3 0h1m1 0h2m1 0h1m2 0h1M4 36.5h1m1 0h1m3 0h2m2 0h1m2 0h5m1 0h1m2 0h1m1 0h4m1 0h1m2 0h5m1 0h1m1 0h1M12 37.5h3m1 0h3m2 0h3m1 0h3m1 0h2m1 0h1m2 0h2m3 0h2m1 0h2M4 38.5h7m2 0h2m1 0h1m2 0h3m3 0h1m2 0h4m1 0h4m1 0h1m1 0h3M4 39.5h1m5 0h1m1 0h2m1 0h1m4 0h4m1 0h2m2 0h1m4 0h1m1 0h1m3 0h2M4 40.5h1m1 0h3m1 0h1m1 0h3m4 0h1m4 0h2m2 0h1m1 0h2m1 0h1m2 0h5m1 0h1M4 41.5h1m1 0h3m1 0h1m1 0h3m3 0h1m1 0h1m1 0h3m1 0h2m6 0h4m1 0h1m1 0h1M4 42.5h1m1 0h3m1 0h1m1 0h1m4 0h2m1 0h2m2 0h1m1 0h1m3 0h2m3 0h2m1 0h3m1 0h1M4 43.5h1m5 0h1m3 0h3m1 0h1m1 0h6m4 0h3m3 0h2m2 0h2m1 0h1M4 44.5h7m1 0h5m6 0h1m2 0h1m1 0h4m1 0h1m1 0h1m1 0h4m1 0h1"/>
    </symbol>
    <clipPath id="letter-poster">
      <rect width="820" height="1025" rx="32"/>
    </clipPath>
    <g id="letter-frame">
      <rect x="-24" y="-24" width="868" height="1073" rx="46" fill="#F6F0E4"/>
      <rect x="-24" y="-24" width="868" height="1073" rx="46" fill="none" stroke="#050606" stroke-width="14"/>
    </g>
    <g id="letter-qr">
      <rect width="176" height="212" fill="#F6F0E4" stroke="#050606" stroke-width="10"/>
      <use href="#project-qr" x="18" y="16" width="140" height="140"/>
      <text x="88" y="190" text-anchor="middle" fill="#050606" font-family="Arial Black, Impact, sans-serif" font-size="28" letter-spacing="4">SCAN</text>
    </g>
  </defs>
  <rect width="2550" height="3300" fill="#F6F0E4"/>
  <text x="150" y="174" fill="#050606" font-family="Arial Black, Impact, sans-serif" font-size="78" letter-spacing="5">DROP 001 / LETTER STICKERS</text>
  <text x="150" y="250" fill="#9D4732" font-family="Arial Black, Impact, sans-serif" font-size="34" letter-spacing="5">BIGGER STICKERS / REAL CORNERS / STREET PACK</text>

  <g transform="translate(250 360)">
    <use href="#letter-frame"/>
    <image href="posters/001-earthworks-were-first.svg" width="820" height="1025" clip-path="url(#letter-poster)"/>
    <use href="#letter-qr" transform="translate(620 790)"/>
  </g>
  <g transform="translate(1480 360)">
    <use href="#letter-frame"/>
    <image href="posters/002-signal-seen-confluence.svg" width="820" height="1025" clip-path="url(#letter-poster)"/>
    <use href="#letter-qr" transform="translate(620 790)"/>
  </g>
  <g transform="translate(250 1710)">
    <use href="#letter-frame"/>
    <image href="posters/003-center-before-seal.svg" width="820" height="1025" clip-path="url(#letter-poster)"/>
    <use href="#letter-qr" transform="translate(620 790)"/>
  </g>
  <g transform="translate(1480 1710)">
    <use href="#letter-frame"/>
    <image href="posters/007-cota-nervous-system.svg" width="820" height="1025" clip-path="url(#letter-poster)"/>
    <use href="#letter-qr" transform="translate(620 790)"/>
  </g>

  <text x="150" y="3176" fill="#050606" font-family="Arial Black, Impact, sans-serif" font-size="40" letter-spacing="5">PRINT LETTER SIZE / CUT FOUR BIG / TEST EVERY SCAN</text>
</svg>
