<svg xmlns="http://www.w3.org/2000/svg" viewBox="0 0 1200 2050" role="img" aria-labelledby="title desc">
  <title id="title">Drop 001 Poster Sticker Set With QR</title>
  <desc id="desc">A QR sticker sheet made from the cleaned Drop 001 poster set.</desc>
  <defs>
    <clipPath id="poster-sticker">
      <rect width="320" height="400" rx="14"/>
    </clipPath>
    <g id="sticker-frame">
      <rect x="-14" y="-14" width="348" height="428" rx="22" fill="#F6F0E4"/>
      <rect x="-14" y="-14" width="348" height="428" rx="22" fill="none" stroke="#050606" stroke-width="6"/>
    </g>
    <g id="qr-badge">
      <rect width="70" height="84" fill="#F6F0E4" stroke="#050606" stroke-width="4"/>
      <g transform="translate(8 6) scale(1.102041)">
        <rect width="49" height="49" fill="#F6F0E4"/>
      <path stroke="#050606" d="M4 4.5h7m3 0h2m4 0h6m1 0h1m1 0h2m3 0h3m1 0h7M4 5.5h1m5 0h1m2 0h1m1 0h4m2 0h1m2 0h2m3 0h6m1 0h1m1 0h1m5 0h1M4 6.5h1m1 0h3m1 0h1m1 0h3m1 0h2m2 0h4m1 0h5m1 0h2m2 0h1m2 0h1m1 0h3m1 0h1M4 7.5h1m1 0h3m1 0h1m1 0h1m1 0h1m3 0h1m5 0h2m4 0h2m1 0h1m4 0h1m1 0h3m1 0h1M4 8.5h1m1 0h3m1 0h1m1 0h2m1 0h1m2 0h2m2 0h6m1 0h1m2 0h5m1 0h1m1 0h3m1 0h1M4 9.5h1m5 0h1m1 0h4m1 0h1m2 0h1m3 0h3m1 0h6m4 0h1m5 0h1M4 10.5h7m1 0h1m1 0h1m1 0h1m1 0h1m1 0h1m1 0h1m1 0h1m1 0h1m1 0h1m1 0h1m1 0h1m1 0h1m1 0h1m1 0h7M12 11.5h1m3 0h1m2 0h2m1 0h1m2 0h4m1 0h1m4 0h1M4 12.5h1m1 0h5m4 0h1m1 0h1m1 0h3m1 0h2m1 0h1m2 0h3m1 0h1m1 0h1m2 0h5M5 13.5h1m3 0h1m3 0h7m2 0h6m1 0h1m2 0h1m1 0h2m1 0h4m2 0h2M4 14.5h1m2 0h1m2 0h1m1 0h4m8 0h3m1 0h5m3 0h1m2 0h2m1 0h2M4 15.5h6m2 0h2m1 0h4m1 0h1m1 0h1m2 0h4m1 0h1m4 0h2m3 0h2m1 0h1M4 16.5h2m1 0h1m1 0h2m1 0h2m1 0h1m2 0h4m1 0h2m1 0h1m1 0h4m1 0h1m1 0h1m3 0h2m1 0h1M4 17.5h3m1 0h1m4 0h5m1 0h4m3 0h1m2 0h1m1 0h1m1 0h12M4 18.5h2m4 0h1m6 0h1m4 0h1m1 0h1m2 0h2m1 0h2m1 0h1m2 0h2m1 0h1m2 0h1M4 19.5h5m2 0h1m1 0h3m2 0h1m1 0h1m1 0h1m2 0h3m2 0h1m5 0h2m1 0h1m1 0h1m2 0h1M10 20.5h2m2 0h3m2 0h1m1 0h1m2 0h1m1 0h6m1 0h1m1 0h2m2 0h1m2 0h2M4 21.5h2m1 0h2m3 0h1m1 0h6m2 0h3m2 0h1m2 0h1m1 0h1m2 0h2m1 0h3m1 0h3M4 22.5h2m1 0h1m1 0h5m2 0h1m2 0h2m1 0h1m1 0h1m1 0h1m4 0h2m1 0h1m1 0h2m2 0h2m1 0h1M5 23.5h1m1 0h3m2 0h2m1 0h1m2 0h3m3 0h1m3 0h1m1 0h1m4 0h3m1 0h3m1 0h2M5 24.5h4m1 0h1m1 0h2m1 0h3m1 0h2m1 0h2m1 0h4m2 0h1m1 0h1m1 0h1m6 0h2M4 25.5h1m3 0h2m1 0h1m2 0h1m1 0h1m1 0h2m1 0h1m1 0h3m1 0h1m1 0h5m1 0h2m1 0h3m2 0h2M4 26.5h1m4 0h2m1 0h1m1 0h4m2 0h1m1 0h1m1 0h1m5 0h4m2 0h1m1 0h6M7 27.5h3m5 0h2m5 0h2m1 0h2m4 0h2m1 0h4m3 0h1M6 28.5h2m2 0h3m1 0h2m1 0h2m2 0h1m5 0h4m2 0h1m1 0h1m1 0h1m4 0h1m1 0h1M5 29.5h2m1 0h2m3 0h1m2 0h1m1 0h3m2 0h3m1 0h1m1 0h2m1 0h1m1 0h2m1 0h4m1 0h1m1 0h1M10 30.5h1m3 0h1m2 0h3m4 0h1m5 0h5m3 0h1M5 31.5h3m3 0h1m4 0h1m1 0h3m2 0h4m5 0h1m2 0h1m1 0h1m1 0h1m1 0h1M4 32.5h1m1 0h1m1 0h1m1 0h2m1 0h1m5 0h4m4 0h1m1 0h2m2 0h1m1 0h1m5 0h2M4 33.5h1m2 0h3m4 0h1m2 0h1m1 0h2m1 0h1m1 0h2m2 0h1m1 0h1m4 0h1m1 0h2m1 0h1m1 0h1m1 0h1M4 34.5h1m3 0h6m4 0h1m4 0h1m1 0h2m2 0h1m1 0h1m5 0h1m1 0h1m1 0h1M4 35.5h1m2 0h1m4 0h1m4 0h1m1 0h1m3 0h4m1 0h1m1 0h3m3 0h1m1 0h2m1 0h1m2 0h1M4 36.5h1m1 0h1m3 0h2m2 0h1m2 0h5m1 0h1m2 0h1m1 0h4m1 0h1m2 0h5m1 0h1m1 0h1M12 37.5h3m1 0h3m2 0h3m1 0h3m1 0h2m1 0h1m2 0h2m3 0h2m1 0h2M4 38.5h7m2 0h2m1 0h1m2 0h3m3 0h1m2 0h4m1 0h4m1 0h1m1 0h3M4 39.5h1m5 0h1m1 0h2m1 0h1m4 0h4m1 0h2m2 0h1m4 0h1m1 0h1m3 0h2M4 40.5h1m1 0h3m1 0h1m1 0h3m4 0h1m4 0h2m2 0h1m1 0h2m1 0h1m2 0h5m1 0h1M4 41.5h1m1 0h3m1 0h1m1 0h3m3 0h1m1 0h1m1 0h3m1 0h2m6 0h4m1 0h1m1 0h1M4 42.5h1m1 0h3m1 0h1m1 0h1m4 0h2m1 0h2m2 0h1m1 0h1m3 0h2m3 0h2m1 0h3m1 0h1M4 43.5h1m5 0h1m3 0h3m1 0h1m1 0h6m4 0h3m3 0h2m2 0h2m1 0h1M4 44.5h7m1 0h5m6 0h1m2 0h1m1 0h4m1 0h1m1 0h1m1 0h4m1 0h1"/>
      </g>
      <text x="35" y="75" text-anchor="middle" fill="#050606" font-family="Arial Black, Impact, sans-serif" font-size="11" letter-spacing="2">SCAN</text>
    </g>
  </defs>
  <rect width="1200" height="2050" fill="#F6F0E4"/>
  <text x="70" y="108" fill="#050606" font-family="Arial Black, Impact, sans-serif" font-size="42" letter-spacing="3">DROP 001 / POSTER STICKER SET / QR</text>

  <g transform="translate(130 160)">
    <use href="#sticker-frame"/>
    <image href="posters/001-earthworks-were-first.svg" width="320" height="400" clip-path="url(#poster-sticker)"/>
    <use href="#qr-badge" transform="translate(238 296)"/>
  </g>
  <g transform="translate(750 160)">
    <use href="#sticker-frame"/>
    <image href="posters/002-signal-seen-confluence.svg" width="320" height="400" clip-path="url(#poster-sticker)"/>
    <use href="#qr-badge" transform="translate(238 296)"/>
  </g>
  <g transform="translate(130 610)">
    <use href="#sticker-frame"/>
    <image href="posters/003-center-before-seal.svg" width="320" height="400" clip-path="url(#poster-sticker)"/>
    <use href="#qr-badge" transform="translate(238 296)"/>
  </g>
  <g transform="translate(750 610)">
    <use href="#sticker-frame"/>
    <image href="posters/004-pile-of-projects.svg" width="320" height="400" clip-path="url(#poster-sticker)"/>
    <use href="#qr-badge" transform="translate(238 296)"/>
  </g>
  <g transform="translate(130 1060)">
    <use href="#sticker-frame"/>
    <image href="posters/005-machine-pays-tribute.svg" width="320" height="400" clip-path="url(#poster-sticker)"/>
    <use href="#qr-badge" transform="translate(238 296)"/>
  </g>
  <g transform="translate(750 1060)">
    <use href="#sticker-frame"/>
    <image href="posters/006-report-dead-wall.svg" width="320" height="400" clip-path="url(#poster-sticker)"/>
    <use href="#qr-badge" transform="translate(238 296)"/>
  </g>
  <g transform="translate(130 1510)">
    <use href="#sticker-frame"/>
    <image href="posters/007-cota-nervous-system.svg" width="320" height="400" clip-path="url(#poster-sticker)"/>
    <use href="#qr-badge" transform="translate(238 296)"/>
  </g>
  <g transform="translate(750 1510)">
    <use href="#sticker-frame"/>
    <image href="posters/008-no-more-half-city.svg" width="320" height="400" clip-path="url(#poster-sticker)"/>
    <use href="#qr-badge" transform="translate(238 296)"/>
  </g>

  <text x="70" y="1998" fill="#050606" font-family="Arial Black, Impact, sans-serif" font-size="24" letter-spacing="4">POSTER STICKERS / TRANSIT ADDED / QR CORNERS</text>
</svg>
